SourceCodePro_1.ufo
<glyph name="dollar" format="1">
  <advance width="600"/>
  <unicode hex="0024"/>
  <outline>
    <contour>
      <point x="366" y="569" type="line"/>
      <point x="469" y="569" type="line"/>
      <point x="504" y="745" type="line"/>
      <point x="401" y="745" type="line"/>
    </contour>
    <contour>
      <point x="84" y="116" type="line"/>
      <point x="134" y="63"/>
      <point x="223" y="34"/>
      <point x="292" y="34" type="curve" smooth="yes"/>
      <point x="468" y="34"/>
      <point x="571" y="127"/>
      <point x="571" y="236" type="curve" smooth="yes"/>
      <point x="571" y="389"/>
      <point x="328" y="390"/>
      <point x="328" y="448" type="curve" smooth="yes"/>
      <point x="328" y="474"/>
      <point x="353" y="491"/>
      <point x="399" y="491" type="curve" smooth="yes"/>
      <point x="453" y="491"/>
      <point x="486" y="474"/>
      <point x="527" y="442" type="curve"/>
      <point x="623" y="532" type="line"/>
      <point x="583" y="582"/>
      <point x="527" y="618"/>
      <point x="435" y="618" type="curve" smooth="yes"/>
      <point x="281" y="618"/>
      <point x="174" y="538"/>
      <point x="174" y="423" type="curve" smooth="yes"/>
      <point x="174" y="269"/>
      <point x="415" y="272"/>
      <point x="415" y="205" type="curve" smooth="yes"/>
      <point x="415" y="178"/>
      <point x="390" y="161"/>
      <point x="341" y="161" type="curve" smooth="yes"/>
      <point x="280" y="161"/>
      <point x="231" y="183"/>
      <point x="174" y="222" type="curve"/>
    </contour>
    <contour>
      <point x="272" y="99" type="line"/>
      <point x="230" y="-110" type="line"/>
      <point x="334" y="-110" type="line"/>
      <point x="376" y="99" type="line"/>
    </contour>
  </outline>
</glyph>
<glyph name="ampersand" format="1">
  <advance width="599"/>
  <unicode hex="0026"/>
  <outline>
    <contour>
      <point x="50" y="154" type="curve" smooth="yes"/>
      <point x="50" y="56"/>
      <point x="116" y="-12"/>
      <point x="234" y="-12" type="curve" smooth="yes"/>
      <point x="334" y="-12"/>
      <point x="418" y="29"/>
      <point x="487" y="98" type="curve" smooth="yes"/>
      <point x="568" y="180"/>
      <point x="622" y="274"/>
      <point x="666" y="372" type="curve"/>
      <point x="522" y="372" type="line"/>
      <point x="492" y="293"/>
      <point x="451" y="226"/>
      <point x="392" y="168" type="curve" smooth="yes"/>
      <point x="349" y="126"/>
      <point x="303" y="108"/>
      <point x="262" y="108" type="curve" smooth="yes"/>
      <point x="224" y="108"/>
      <point x="204" y="134"/>
      <point x="204" y="170" type="curve" smooth="yes"/>
      <point x="204" y="294"/>
      <point x="514" y="330"/>
      <point x="514" y="522" type="curve" smooth="yes"/>
      <point x="514" y="608"/>
      <point x="462" y="662"/>
      <point x="374" y="662" type="curve" smooth="yes"/>
      <point x="256" y="662"/>
      <point x="172" y="570"/>
      <point x="172" y="464" type="curve" smooth="yes"/>
      <point x="172" y="338"/>
      <point x="264" y="179"/>
      <point x="389" y="78" type="curve"/>
      <point x="440" y="32"/>
      <point x="497" y="0"/>
      <point x="554" y="-12" type="curve"/>
      <point x="616" y="114" type="line"/>
      <point x="586" y="122"/>
      <point x="540" y="140"/>
      <point x="500" y="173" type="curve"/>
      <point x="398" y="246"/>
      <point x="304" y="363"/>
      <point x="304" y="468" type="curve" smooth="yes"/>
      <point x="304" y="524"/>
      <point x="329" y="558"/>
      <point x="362" y="558" type="curve" smooth="yes"/>
      <point x="380" y="558"/>
      <point x="392" y="546"/>
      <point x="392" y="525" type="curve" smooth="yes"/>
      <point x="392" y="380"/>
      <point x="50" y="392"/>
    </contour>
  </outline>
</glyph>
<glyph name="comma" format="1">
  <advance width="600"/>
  <unicode hex="002C"/>
  <outline>
    <contour>
      <point x="338" y="141" type="line"/>
      <point x="315" y="16" type="line"/>
      <point x="298" y="-41"/>
      <point x="250" y="-91"/>
      <point x="154" y="-117" type="curve"/>
      <point x="173" y="-217" type="line"/>
      <point x="342" y="-184"/>
      <point x="445" y="-62"/>
      <point x="445" y="99" type="curve" smooth="yes"/>
      <point x="445" y="179"/>
      <point x="405" y="225"/>
      <point x="336" y="225" type="curve" smooth="yes"/>
      <point x="261" y="225"/>
      <point x="215" y="169"/>
      <point x="215" y="106" type="curve" smooth="yes"/>
      <point x="215" y="49"/>
      <point x="259" y="13"/>
      <point x="319" y="13" type="curve" smooth="yes"/>
      <point x="338" y="13"/>
      <point x="357" y="24"/>
      <point x="372" y="34" type="curve"/>
    </contour>
  </outline>
</glyph>
<glyph name="period" format="1">
  <advance width="599"/>
  <unicode hex="002E"/>
  <outline>
    <contour>
      <point x="340" y="234" type="curve" smooth="yes"/>
      <point x="258" y="234"/>
      <point x="202" y="164"/>
      <point x="202" y="94" type="curve" smooth="yes"/>
      <point x="202" y="34"/>
      <point x="242" y="-12"/>
      <point x="302" y="-12" type="curve" smooth="yes"/>
      <point x="384" y="-12"/>
      <point x="440" y="58"/>
      <point x="440" y="128" type="curve" smooth="yes"/>
      <point x="440" y="188"/>
      <point x="400" y="234"/>
    </contour>
  </outline>
</glyph>
<glyph name="slash" format="1">
  <advance width="600"/>
  <unicode hex="002F"/>
  <outline>
    <contour>
      <point x="673" y="710" type="line"/>
      <point x="541" y="710" type="line"/>
      <point x="38" y="-160" type="line"/>
      <point x="169" y="-160" type="line"/>
    </contour>
  </outline>
</glyph>
<glyph name="six" format="1">
  <advance width="599"/>
  <unicode hex="0036"/>
  <outline>
    <contour>
      <point x="314" y="-12" type="curve" smooth="yes"/>
      <point x="453" y="-12"/>
      <point x="593" y="85"/>
      <point x="593" y="245" type="curve" smooth="yes"/>
      <point x="593" y="349"/>
      <point x="525" y="398"/>
      <point x="430" y="398" type="curve" smooth="yes"/>
      <point x="384" y="398"/>
      <point x="315" y="371"/>
      <point x="260" y="324" type="curve"/>
      <point x="247" y="223" type="line"/>
      <point x="294" y="270"/>
      <point x="337" y="288"/>
      <point x="374" y="288" type="curve" smooth="yes"/>
      <point x="417" y="288"/>
      <point x="447" y="268"/>
      <point x="447" y="222" type="curve" smooth="yes"/>
      <point x="447" y="140"/>
      <point x="389" y="106"/>
      <point x="334" y="106" type="curve" smooth="yes"/>
      <point x="293" y="106"/>
      <point x="252" y="135"/>
      <point x="252" y="234" type="curve" smooth="yes"/>
      <point x="252" y="437"/>
      <point x="348" y="520"/>
      <point x="450" y="520" type="curve" smooth="yes"/>
      <point x="491" y="520"/>
      <point x="530" y="498"/>
      <point x="550" y="475" type="curve"/>
      <point x="652" y="569" type="line"/>
      <point x="617" y="610"/>
      <point x="553" y="647"/>
      <point x="461" y="647" type="curve" smooth="yes"/>
      <point x="293" y="647"/>
      <point x="108" y="503"/>
      <point x="108" y="226" type="curve" smooth="yes"/>
      <point x="108" y="59"/>
      <point x="205" y="-12"/>
    </contour>
  </outline>
</glyph>
<glyph name="nine" format="1">
  <advance width="600"/>
  <unicode hex="0039"/>
  <outline>
    <contour>
      <point x="411" y="647" type="curve" smooth="yes"/>
      <point x="272" y="647"/>
      <point x="132" y="549"/>
      <point x="132" y="390" type="curve" smooth="yes"/>
      <point x="132" y="285"/>
      <point x="200" y="236"/>
      <point x="295" y="236" type="curve" smooth="yes"/>
      <point x="342" y="236"/>
      <point x="410" y="263"/>
      <point x="465" y="311" type="curve"/>
      <point x="478" y="412" type="line"/>
      <point x="431" y="364"/>
      <point x="388" y="347"/>
      <point x="351" y="347" type="curve" smooth="yes"/>
      <point x="308" y="347"/>
      <point x="279" y="366"/>
      <point x="279" y="412" type="curve" smooth="yes"/>
      <point x="279" y="494"/>
      <point x="336" y="529"/>
      <point x="391" y="529" type="curve" smooth="yes"/>
      <point x="433" y="529"/>
      <point x="473" y="500"/>
      <point x="473" y="401" type="curve" smooth="yes"/>
      <point x="473" y="197"/>
      <point x="377" y="115"/>
      <point x="275" y="115" type="curve" smooth="yes"/>
      <point x="234" y="115"/>
      <point x="196" y="137"/>
      <point x="175" y="160" type="curve"/>
      <point x="73" y="66" type="line"/>
      <point x="108" y="25"/>
      <point x="172" y="-12"/>
      <point x="264" y="-12" type="curve" smooth="yes"/>
      <point x="432" y="-12"/>
      <point x="617" y="131"/>
      <point x="617" y="408" type="curve" smooth="yes"/>
      <point x="617" y="576"/>
      <point x="520" y="647"/>
    </contour>
  </outline>
</glyph>
<glyph name="greater" format="1">
  <advance width="600"/>
  <unicode hex="003E"/>
  <outline>
    <contour>
      <point x="485" y="386" type="line"/>
      <point x="96" y="636" type="line"/>
      <point x="96" y="494" type="line"/>
      <point x="356" y="334" type="line"/>
      <point x="356" y="330" type="line"/>
      <point x="96" y="170" type="line"/>
      <point x="96" y="28" type="line"/>
      <point x="485" y="278" type="line"/>
    </contour>
  </outline>
</glyph>
<glyph name="A" format="1">
  <advance width="600"/>
  <unicode hex="0041"/>
  <outline>
    <contour>
      <point x="5" y="0" type="line"/>
      <point x="181" y="0" type="line"/>
      <point x="335" y="344" type="line" smooth="yes"/>
      <point x="363" y="406"/>
      <point x="385" y="466"/>
      <point x="411" y="530" type="curve"/>
      <point x="415" y="530" type="line"/>
      <point x="415" y="464"/>
      <point x="417" y="406"/>
      <point x="419" y="344" type="curve" smooth="yes"/>
      <point x="427" y="0" type="line"/>
      <point x="595" y="0" type="line"/>
      <point x="535" y="650" type="line"/>
      <point x="343" y="650" type="line"/>
    </contour>
    <contour>
      <point x="179" y="148" type="line"/>
      <point x="481" y="148" type="line"/>
      <point x="509" y="268" type="line"/>
      <point x="207" y="268" type="line"/>
    </contour>
  </outline>
</glyph>
<glyph name="B" format="1">
  <advance width="599"/>
  <unicode hex="0042"/>
  <outline>
    <contour>
      <point x="80" y="0" type="line"/>
      <point x="314" y="0" type="line" smooth="yes"/>
      <point x="466" y="0"/>
      <point x="600" y="60"/>
      <point x="600" y="216" type="curve" smooth="yes"/>
      <point x="600" y="276"/>
      <point x="564" y="316"/>
      <point x="490" y="334" type="curve"/>
      <point x="492" y="338" type="line"/>
      <point x="582" y="366"/>
      <point x="632" y="430"/>
      <point x="632" y="500" type="curve" smooth="yes"/>
      <point x="632" y="606"/>
      <point x="538" y="650"/>
      <point x="406" y="650" type="curve" smooth="yes"/>
      <point x="210" y="650" type="line"/>
    </contour>
    <contour>
      <point x="318" y="390" type="line"/>
      <point x="346" y="528" type="line"/>
      <point x="380" y="528" type="line" smooth="yes"/>
      <point x="440" y="528"/>
      <point x="468" y="508"/>
      <point x="468" y="472" type="curve" smooth="yes"/>
      <point x="468" y="422"/>
      <point x="438" y="390"/>
      <point x="360" y="390" type="curve" smooth="yes"/>
    </contour>
    <contour>
      <point x="264" y="122" type="line"/>
      <point x="296" y="282" type="line"/>
      <point x="358" y="282" type="line" smooth="yes"/>
      <point x="418" y="282"/>
      <point x="446" y="258"/>
      <point x="446" y="210" type="curve" smooth="yes"/>
      <point x="446" y="156"/>
      <point x="406" y="122"/>
      <point x="326" y="122" type="curve" smooth="yes"/>
    </contour>
  </outline>
</glyph>
<glyph name="C" format="1">
  <advance width="599"/>
  <unicode hex="0043"/>
  <outline>
    <contour>
      <point x="110" y="264" type="curve" smooth="yes"/>
      <point x="110" y="88"/>
      <point x="216" y="-12"/>
      <point x="380" y="-12" type="curve" smooth="yes"/>
      <point x="472" y="-12"/>
      <point x="544" y="36"/>
      <point x="580" y="70" type="curve"/>
      <point x="514" y="172" type="line"/>
      <point x="484" y="146"/>
      <point x="448" y="126"/>
      <point x="414" y="126" type="curve" smooth="yes"/>
      <point x="312" y="126"/>
      <point x="274" y="180"/>
      <point x="274" y="274" type="curve" smooth="yes"/>
      <point x="274" y="414"/>
      <point x="360" y="524"/>
      <point x="464" y="524" type="curve" smooth="yes"/>
      <point x="494" y="524"/>
      <point x="522" y="508"/>
      <point x="546" y="472" type="curve"/>
      <point x="654" y="556" type="line"/>
      <point x="616" y="624"/>
      <point x="548" y="662"/>
      <point x="472" y="662" type="curve" smooth="yes"/>
      <point x="270" y="662"/>
      <point x="110" y="496"/>
    </contour>
  </outline>
</glyph>
<glyph name="D" format="1">
  <advance width="599"/>
  <unicode hex="0044"/>
  <outline>
    <contour>
      <point x="60" y="0" type="line"/>
      <point x="274" y="0" type="line" smooth="yes"/>
      <point x="478" y="0"/>
      <point x="634" y="130"/>
      <point x="634" y="394" type="curve" smooth="yes"/>
      <point x="634" y="570"/>
      <point x="524" y="650"/>
      <point x="342" y="650" type="curve" smooth="yes"/>
      <point x="190" y="650" type="line"/>
    </contour>
    <contour>
      <point x="246" y="128" type="line"/>
      <point x="324" y="522" type="line"/>
      <point x="338" y="522" type="line" smooth="yes"/>
      <point x="414" y="522"/>
      <point x="470" y="486"/>
      <point x="470" y="384" type="curve" smooth="yes"/>
      <point x="470" y="196"/>
      <point x="378" y="128"/>
      <point x="270" y="128" type="curve" smooth="yes"/>
    </contour>
  </outline>
</glyph>
<glyph name="F" format="1">
  <advance width="600"/>
  <unicode hex="0046"/>
  <outline>
    <contour>
      <point x="104" y="0" type="line"/>
      <point x="264" y="0" type="line"/>
      <point x="314" y="248" type="line"/>
      <point x="544" y="248" type="line"/>
      <point x="570" y="382" type="line"/>
      <point x="340" y="382" type="line"/>
      <point x="366" y="516" type="line"/>
      <point x="642" y="516" type="line"/>
      <point x="668" y="650" type="line"/>
      <point x="234" y="650" type="line"/>
    </contour>
  </outline>
</glyph>
<glyph name="G" format="1">
  <advance width="600"/>
  <unicode hex="0047"/>
  <outline>
    <contour>
      <point x="97" y="247" type="curve" smooth="yes"/>
      <point x="97" y="77"/>
      <point x="200" y="-12"/>
      <point x="342" y="-12" type="curve" smooth="yes"/>
      <point x="425" y="-12"/>
      <point x="510" y="27"/>
      <point x="563" y="67" type="curve"/>
      <point x="624" y="372" type="line"/>
      <point x="394" y="372" type="line"/>
      <point x="368" y="243" type="line"/>
      <point x="457" y="243" type="line"/>
      <point x="436" y="140" type="line"/>
      <point x="422" y="130"/>
      <point x="399" y="124"/>
      <point x="378" y="124" type="curve" smooth="yes"/>
      <point x="300" y="124"/>
      <point x="262" y="177"/>
      <point x="262" y="266" type="curve" smooth="yes"/>
      <point x="262" y="424"/>
      <point x="355" y="527"/>
      <point x="451" y="527" type="curve" smooth="yes"/>
      <point x="501" y="527"/>
      <point x="525" y="509"/>
      <point x="548" y="482" type="curve"/>
      <point x="654" y="580" type="line"/>
      <point x="620" y="623"/>
      <point x="566" y="663"/>
      <point x="479" y="663" type="curve" smooth="yes"/>
      <point x="280" y="663"/>
      <point x="97" y="504"/>
    </contour>
  </outline>
</glyph>
<glyph name="I" format="1">
  <advance width="600"/>
  <unicode hex="0049"/>
  <outline>
    <contour>
      <point x="70" y="0" type="line"/>
      <point x="530" y="0" type="line"/>
      <point x="558" y="134" type="line"/>
      <point x="406" y="134" type="line"/>
      <point x="484" y="516" type="line"/>
      <point x="632" y="516" type="line"/>
      <point x="660" y="650" type="line"/>
      <point x="202" y="650" type="line"/>
      <point x="174" y="516" type="line"/>
      <point x="324" y="516" type="line"/>
      <point x="246" y="134" type="line"/>
      <point x="98" y="134" type="line"/>
    </contour>
  </outline>
</glyph>
<glyph name="L" format="1">
  <advance width="599"/>
  <unicode hex="004C"/>
  <outline>
    <contour>
      <point x="102" y="0" type="line"/>
      <point x="544" y="0" type="line"/>
      <point x="570" y="134" type="line"/>
      <point x="288" y="134" type="line"/>
      <point x="392" y="650" type="line"/>
      <point x="232" y="650" type="line"/>
    </contour>
  </outline>
</glyph>
<glyph name="N" format="1">
  <advance width="600"/>
  <unicode hex="004E"/>
  <outline>
    <contour>
      <point x="64" y="0" type="line"/>
      <point x="215" y="0" type="line"/>
      <point x="257" y="212" type="line" smooth="yes"/>
      <point x="273" y="291"/>
      <point x="276" y="381"/>
      <point x="283" y="454" type="curve"/>
      <point x="287" y="454" type="line"/>
      <point x="313" y="310" type="line"/>
      <point x="377" y="0" type="line"/>
      <point x="537" y="0" type="line"/>
      <point x="667" y="651" type="line"/>
      <point x="516" y="651" type="line"/>
      <point x="474" y="439" type="line" smooth="yes"/>
      <point x="458" y="361"/>
      <point x="454" y="266"/>
      <point x="448" y="197" type="curve"/>
      <point x="444" y="197" type="line"/>
      <point x="418" y="341" type="line"/>
      <point x="354" y="651" type="line"/>
      <point x="194" y="651" type="line"/>
    </contour>
  </outline>
</glyph>
<glyph name="P" format="1">
  <advance width="599"/>
  <unicode hex="0050"/>
  <outline>
    <contour>
      <point x="69" y="0" type="line"/>
      <point x="229" y="0" type="line"/>
      <point x="271" y="212" type="line"/>
      <point x="357" y="212" type="line" smooth="yes"/>
      <point x="520" y="212"/>
      <point x="663" y="282"/>
      <point x="663" y="472" type="curve" smooth="yes"/>
      <point x="663" y="602"/>
      <point x="562" y="650"/>
      <point x="433" y="650" type="curve" smooth="yes"/>
      <point x="199" y="650" type="line"/>
    </contour>
    <contour>
      <point x="297" y="338" type="line"/>
      <point x="333" y="524" type="line"/>
      <point x="411" y="524" type="line" smooth="yes"/>
      <point x="470" y="524"/>
      <point x="505" y="500"/>
      <point x="505" y="448" type="curve" smooth="yes"/>
      <point x="505" y="376"/>
      <point x="458" y="338"/>
      <point x="376" y="338" type="curve" smooth="yes"/>
    </contour>
  </outline>
</glyph>
<glyph name="S" format="1">
  <advance width="600"/>
  <unicode hex="0053"/>
  <outline>
    <contour>
      <point x="67" y="113" type="line"/>
      <point x="138" y="22"/>
      <point x="231" y="-12"/>
      <point x="323" y="-12" type="curve" smooth="yes"/>
      <point x="488" y="-12"/>
      <point x="595" y="85"/>
      <point x="595" y="204" type="curve" smooth="yes"/>
      <point x="595" y="280"/>
      <point x="566" y="322"/>
      <point x="497" y="359" type="curve" smooth="yes"/>
      <point x="428" y="396" type="line" smooth="yes"/>
      <point x="371" y="427"/>
      <point x="340" y="441"/>
      <point x="340" y="468" type="curve" smooth="yes"/>
      <point x="340" y="499"/>
      <point x="369" y="524"/>
      <point x="425" y="524" type="curve" smooth="yes"/>
      <point x="474" y="524"/>
      <point x="513" y="500"/>
      <point x="549" y="467" type="curve"/>
      <point x="648" y="561" type="line"/>
      <point x="593" y="624"/>
      <point x="515" y="662"/>
      <point x="431" y="662" type="curve" smooth="yes"/>
      <point x="290" y="662"/>
      <point x="177" y="569"/>
      <point x="177" y="452" type="curve" smooth="yes"/>
      <point x="177" y="371"/>
      <point x="217" y="322"/>
      <point x="283" y="286" type="curve" smooth="yes"/>
      <point x="348" y="251" type="line" smooth="yes"/>
      <point x="398" y="224"/>
      <point x="430" y="210"/>
      <point x="430" y="181" type="curve" smooth="yes"/>
      <point x="430" y="145"/>
      <point x="392" y="124"/>
      <point x="335" y="124" type="curve" smooth="yes"/>
      <point x="276" y="124"/>
      <point x="218" y="156"/>
      <point x="180" y="203" type="curve"/>
    </contour>
  </outline>
</glyph>
<glyph name="Y" format="1">
  <advance width="600"/>
  <unicode hex="0059"/>
  <outline>
    <contour>
      <point x="221" y="0" type="line"/>
      <point x="379" y="0" type="line"/>
      <point x="423" y="218" type="line"/>
      <point x="717" y="651" type="line"/>
      <point x="552" y="651" type="line"/>
      <point x="462" y="501" type="line" smooth="yes"/>
      <point x="433" y="450"/>
      <point x="403" y="404"/>
      <point x="374" y="352" type="curve"/>
      <point x="370" y="352" type="line"/>
      <point x="361" y="404"/>
      <point x="353" y="451"/>
      <point x="343" y="501" type="curve" smooth="yes"/>
      <point x="312" y="651" type="line"/>
      <point x="143" y="651" type="line"/>
      <point x="265" y="218" type="line"/>
    </contour>
  </outline>
</glyph>
<glyph name="Z" format="1">
  <advance width="600"/>
  <unicode hex="005A"/>
  <outline>
    <contour>
      <point x="55" y="0" type="line"/>
      <point x="548" y="0" type="line"/>
      <point x="575" y="132" type="line"/>
      <point x="276" y="132" type="line"/>
      <point x="656" y="556" type="line"/>
      <point x="675" y="651" type="line"/>
      <point x="213" y="651" type="line"/>
      <point x="186" y="519" type="line"/>
      <point x="454" y="519" type="line"/>
      <point x="74" y="95" type="line"/>
    </contour>
  </outline>
</glyph>
<glyph name="bracketleft" format="1">
  <advance width="599"/>
  <unicode hex="005B"/>
  <outline>
    <contour>
      <point x="302" y="-68" type="line"/>
      <point x="440" y="624" type="line"/>
      <point x="620" y="624" type="line"/>
      <point x="636" y="708" type="line"/>
      <point x="338" y="708" type="line"/>
      <point x="166" y="-152" type="line"/>
      <point x="464" y="-152" type="line"/>
      <point x="482" y="-68" type="line"/>
    </contour>
  </outline>
</glyph>
<glyph name="backslash" format="1">
  <advance width="599"/>
  <unicode hex="005C"/>
  <outline>
    <contour>
      <point x="367" y="-160" type="line"/>
      <point x="498" y="-160" type="line"/>
      <point x="342" y="710" type="line"/>
      <point x="211" y="710" type="line"/>
    </contour>
  </outline>
</glyph>
<glyph name="underscore" format="1">
  <advance width="599"/>
  <unicode hex="005F"/>
  <outline>
    <contour>
      <point x="49" y="-51" type="line"/>
      <point x="26" y="-169" type="line"/>
      <point x="506" y="-169" type="line"/>
      <point x="529" y="-51" type="line"/>
    </contour>
  </outline>
</glyph>
<glyph name="a" format="1">
  <advance width="599"/>
  <unicode hex="0061"/>
  <outline>
    <contour>
      <point x="78" y="182" type="curve" smooth="yes"/>
      <point x="78" y="58"/>
      <point x="141" y="-12"/>
      <point x="239" y="-12" type="curve" smooth="yes"/>
      <point x="292" y="-12"/>
      <point x="350" y="16"/>
      <point x="398" y="66" type="curve"/>
      <point x="400" y="66" type="line"/>
      <point x="400" y="0" type="line"/>
      <point x="530" y="0" type="line"/>
      <point x="630" y="500" type="line"/>
      <point x="502" y="500" type="line"/>
      <point x="480" y="450" type="line"/>
      <point x="478" y="450" type="line"/>
      <point x="454" y="488"/>
      <point x="398" y="512"/>
      <point x="344" y="512" type="curve" smooth="yes"/>
      <point x="206" y="512"/>
      <point x="78" y="366"/>
    </contour>
    <contour>
      <point x="300" y="118" type="curve" smooth="yes"/>
      <point x="266" y="118"/>
      <point x="244" y="143"/>
      <point x="244" y="202" type="curve" smooth="yes"/>
      <point x="244" y="308"/>
      <point x="306" y="382"/>
      <point x="374" y="382" type="curve" smooth="yes"/>
      <point x="395" y="382"/>
      <point x="426" y="370"/>
      <point x="440" y="344" type="curve"/>
      <point x="408" y="188" type="line"/>
      <point x="374" y="138"/>
      <point x="332" y="118"/>
    </contour>
  </outline>
</glyph>
<glyph name="c" format="1">
  <advance width="599"/>
  <unicode hex="0063"/>
  <outline>
    <contour>
      <point x="108" y="210" type="curve" smooth="yes"/>
      <point x="108" y="70"/>
      <point x="203" y="-12"/>
      <point x="340" y="-12" type="curve" smooth="yes"/>
      <point x="407" y="-12"/>
      <point x="490" y="7"/>
      <point x="561" y="51" type="curve"/>
      <point x="518" y="150" type="line"/>
      <point x="478" y="132"/>
      <point x="431" y="115"/>
      <point x="381" y="115" type="curve" smooth="yes"/>
      <point x="315" y="115"/>
      <point x="272" y="161"/>
      <point x="272" y="232" type="curve" smooth="yes"/>
      <point x="272" y="321"/>
      <point x="342" y="383"/>
      <point x="429" y="383" type="curve" smooth="yes"/>
      <point x="464" y="383"/>
      <point x="496" y="366"/>
      <point x="528" y="335" type="curve"/>
      <point x="620" y="433" type="line"/>
      <point x="584" y="476"/>
      <point x="518" y="510"/>
      <point x="436" y="510" type="curve" smooth="yes"/>
      <point x="273" y="510"/>
      <point x="108" y="399"/>
    </contour>
  </outline>
</glyph>
<glyph name="d" format="1">
  <advance width="599"/>
  <unicode hex="0064"/>
  <outline>
    <contour>
      <point x="472" y="456" type="line"/>
      <point x="470" y="456" type="line"/>
      <point x="446" y="490"/>
      <point x="398" y="512"/>
      <point x="344" y="512" type="curve" smooth="yes"/>
      <point x="206" y="512"/>
      <point x="78" y="366"/>
      <point x="78" y="182" type="curve" smooth="yes"/>
      <point x="78" y="58"/>
      <point x="140" y="-12"/>
      <point x="238" y="-12" type="curve" smooth="yes"/>
      <point x="291" y="-12"/>
      <point x="350" y="16"/>
      <point x="398" y="66" type="curve"/>
      <point x="400" y="66" type="line"/>
      <point x="400" y="0" type="line"/>
      <point x="530" y="0" type="line"/>
      <point x="670" y="696" type="line"/>
      <point x="510" y="696" type="line"/>
      <point x="482" y="550" type="line"/>
    </contour>
    <contour>
      <point x="308" y="118" type="curve" smooth="yes"/>
      <point x="274" y="118"/>
      <point x="244" y="143"/>
      <point x="244" y="202" type="curve" smooth="yes"/>
      <point x="244" y="308"/>
      <point x="306" y="382"/>
      <point x="374" y="382" type="curve" smooth="yes"/>
      <point x="395" y="382"/>
      <point x="426" y="370"/>
      <point x="440" y="344" type="curve"/>
      <point x="408" y="188" type="line"/>
      <point x="374" y="138"/>
      <point x="340" y="118"/>
    </contour>
  </outline>
</glyph>
<glyph name="e" format="1">
  <advance width="600"/>
  <unicode hex="0065"/>
  <outline>
    <contour>
      <point x="97" y="200" type="curve" smooth="yes"/>
      <point x="97" y="66"/>
      <point x="192" y="-12"/>
      <point x="328" y="-12" type="curve" smooth="yes"/>
      <point x="393" y="-12"/>
      <point x="472" y="9"/>
      <point x="538" y="46" type="curve"/>
      <point x="505" y="140" type="line"/>
      <point x="456" y="119"/>
      <point x="416" y="108"/>
      <point x="374" y="108" type="curve" smooth="yes"/>
      <point x="306" y="108"/>
      <point x="253" y="133"/>
      <point x="255" y="202" type="curve"/>
      <point x="582" y="202" type="line"/>
      <point x="589" y="219"/>
      <point x="609" y="262"/>
      <point x="609" y="319" type="curve" smooth="yes"/>
      <point x="609" y="427"/>
      <point x="546" y="510"/>
      <point x="415" y="510" type="curve" smooth="yes"/>
      <point x="265" y="510"/>
      <point x="97" y="391"/>
    </contour>
    <contour>
      <point x="274" y="306" type="line"/>
      <point x="298" y="364"/>
      <point x="346" y="390"/>
      <point x="395" y="390" type="curve" smooth="yes"/>
      <point x="458" y="390"/>
      <point x="476" y="355"/>
      <point x="466" y="306" type="curve"/>
    </contour>
  </outline>
</glyph>
<glyph name="f" format="1">
  <advance width="599"/>
  <unicode hex="0066"/>
  <outline>
    <contour>
      <point x="208" y="0" type="line"/>
      <point x="366" y="0" type="line"/>
      <point x="467" y="506" type="line" smooth="yes"/>
      <point x="478" y="563"/>
      <point x="512" y="587"/>
      <point x="571" y="587" type="curve" smooth="yes"/>
      <point x="608" y="587"/>
      <point x="642" y="580"/>
      <point x="670" y="568" type="curve"/>
      <point x="723" y="684" type="line"/>
      <point x="684" y="697"/>
      <point x="634" y="711"/>
      <point x="576" y="711" type="curve" smooth="yes"/>
      <point x="417" y="711"/>
      <point x="332" y="619"/>
      <point x="309" y="506" type="curve" smooth="yes"/>
    </contour>
    <contour>
      <point x="153" y="374" type="line"/>
      <point x="606" y="374" type="line"/>
      <point x="630" y="498" type="line"/>
      <point x="313" y="498" type="line"/>
      <point x="176" y="492" type="line"/>
    </contour>
  </outline>
</glyph>
<glyph name="j" format="1">
  <advance width="599"/>
  <unicode hex="006A"/>
  <outline>
    <contour>
      <point x="151" y="374" type="line"/>
      <point x="347" y="374" type="line"/>
      <point x="278" y="31" type="line" smooth="yes"/>
      <point x="264" y="-40"/>
      <point x="237" y="-69"/>
      <point x="171" y="-69" type="curve" smooth="yes"/>
      <point x="143" y="-69"/>
      <point x="113" y="-64"/>
      <point x="76" y="-46" type="curve"/>
      <point x="8" y="-159" type="line"/>
      <point x="47" y="-179"/>
      <point x="93" y="-193"/>
      <point x="156" y="-193" type="curve" smooth="yes"/>
      <point x="340" y="-193"/>
      <point x="413" y="-85"/>
      <point x="437" y="37" type="curve" smooth="yes"/>
      <point x="529" y="498" type="line"/>
      <point x="176" y="498" type="line"/>
    </contour>
    <contour>
      <point x="470" y="564" type="curve" smooth="yes"/>
      <point x="533" y="564"/>
      <point x="582" y="609"/>
      <point x="582" y="669" type="curve" smooth="yes"/>
      <point x="582" y="726"/>
      <point x="533" y="756"/>
      <point x="483" y="756" type="curve" smooth="yes"/>
      <point x="420" y="756"/>
      <point x="371" y="707"/>
      <point x="371" y="651" type="curve" smooth="yes"/>
      <point x="371" y="592"/>
      <point x="420" y="564"/>
    </contour>
  </outline>
</glyph>
<glyph name="k" format="1">
  <advance width="600"/>
  <unicode hex="006B"/>
  <outline>
    <contour>
      <point x="68" y="0" type="line"/>
      <point x="228" y="0" type="line"/>
      <point x="254" y="124" type="line"/>
      <point x="338" y="194" type="line"/>
      <point x="424" y="0" type="line"/>
      <point x="588" y="0" type="line"/>
      <point x="448" y="286" type="line"/>
      <point x="676" y="500" type="line"/>
      <point x="492" y="500" type="line"/>
      <point x="294" y="316" type="line"/>
      <point x="290" y="316" type="line"/>
      <point x="368" y="696" type="line"/>
      <point x="208" y="696" type="line"/>
    </contour>
  </outline>
</glyph>
<glyph name="l" format="1">
  <advance width="600"/>
  <unicode hex="006C"/>
  <outline>
    <contour>
      <point x="172" y="572" type="line"/>
      <point x="316" y="572" type="line"/>
      <point x="240" y="200" type="line" smooth="yes"/>
      <point x="214" y="72"/>
      <point x="274" y="-12"/>
      <point x="396" y="-12" type="curve" smooth="yes"/>
      <point x="460" y="-12"/>
      <point x="496" y="-2"/>
      <point x="551" y="14" type="curve"/>
      <point x="526" y="132" type="line"/>
      <point x="494" y="121"/>
      <point x="474" y="118"/>
      <point x="452" y="118" type="curve" smooth="yes"/>
      <point x="419" y="118"/>
      <point x="386" y="136"/>
      <point x="398" y="194" type="curve" smooth="yes"/>
      <point x="500" y="696" type="line"/>
      <point x="198" y="696" type="line"/>
    </contour>
  </outline>
</glyph>
<glyph name="n" format="1">
  <advance width="600"/>
  <unicode hex="006E"/>
  <outline>
    <contour>
      <point x="70" y="0" type="line"/>
      <point x="230" y="0" type="line"/>
      <point x="288" y="298" type="line"/>
      <point x="327" y="350"/>
      <point x="373" y="376"/>
      <point x="406" y="376" type="curve" smooth="yes"/>
      <point x="432" y="376"/>
      <point x="448" y="362"/>
      <point x="448" y="334" type="curve" smooth="yes"/>
      <point x="448" y="322"/>
      <point x="444" y="308"/>
      <point x="440" y="290" type="curve" smooth="yes"/>
      <point x="382" y="0" type="line"/>
      <point x="542" y="0" type="line"/>
      <point x="604" y="310" type="line" smooth="yes"/>
      <point x="609" y="334"/>
      <point x="612" y="360"/>
      <point x="612" y="382" type="curve" smooth="yes"/>
      <point x="612" y="468"/>
      <point x="564" y="512"/>
      <point x="482" y="512" type="curve" smooth="yes"/>
      <point x="418" y="512"/>
      <point x="344" y="466"/>
      <point x="298" y="420" type="curve"/>
      <point x="294" y="420" type="line"/>
      <point x="298" y="500" type="line"/>
      <point x="168" y="500" type="line"/>
    </contour>
  </outline>
</glyph>
<glyph name="o" format="1">
  <advance width="599"/>
  <unicode hex="006F"/>
  <outline>
    <contour>
      <point x="380" y="512" type="curve" smooth="yes"/>
      <point x="238" y="512"/>
      <point x="88" y="396"/>
      <point x="88" y="214" type="curve" smooth="yes"/>
      <point x="88" y="78"/>
      <point x="178" y="-12"/>
      <point x="316" y="-12" type="curve" smooth="yes"/>
      <point x="458" y="-12"/>
      <point x="608" y="104"/>
      <point x="608" y="286" type="curve" smooth="yes"/>
      <point x="608" y="422"/>
      <point x="518" y="512"/>
    </contour>
    <contour>
      <point x="324" y="116" type="curve" smooth="yes"/>
      <point x="278" y="116"/>
      <point x="250" y="154"/>
      <point x="250" y="216" type="curve" smooth="yes"/>
      <point x="250" y="322"/>
      <point x="312" y="384"/>
      <point x="372" y="384" type="curve" smooth="yes"/>
      <point x="418" y="384"/>
      <point x="446" y="346"/>
      <point x="446" y="284" type="curve" smooth="yes"/>
      <point x="446" y="178"/>
      <point x="384" y="116"/>
    </contour>
  </outline>
</glyph>
<glyph name="p" format="1">
  <advance width="600"/>
  <unicode hex="0070"/>
  <outline>
    <contour>
      <point x="230" y="42" type="line"/>
      <point x="232" y="42" type="line"/>
      <point x="258" y="8"/>
      <point x="306" y="-12"/>
      <point x="356" y="-12" type="curve" smooth="yes"/>
      <point x="494" y="-12"/>
      <point x="622" y="134"/>
      <point x="622" y="318" type="curve" smooth="yes"/>
      <point x="622" y="442"/>
      <point x="562" y="512"/>
      <point x="462" y="512" type="curve" smooth="yes"/>
      <point x="411" y="512"/>
      <point x="352" y="482"/>
      <point x="304" y="432" type="curve"/>
      <point x="302" y="432" type="line"/>
      <point x="300" y="500" type="line"/>
      <point x="170" y="500" type="line"/>
      <point x="34" y="-176" type="line"/>
      <point x="194" y="-176" type="line"/>
      <point x="218" y="-52" type="line"/>
    </contour>
    <contour>
      <point x="396" y="382" type="curve" smooth="yes"/>
      <point x="430" y="382"/>
      <point x="456" y="357"/>
      <point x="456" y="298" type="curve" smooth="yes"/>
      <point x="456" y="192"/>
      <point x="401" y="118"/>
      <point x="338" y="118" type="curve" smooth="yes"/>
      <point x="310" y="118"/>
      <point x="276" y="130"/>
      <point x="262" y="156" type="curve"/>
      <point x="294" y="306" type="line"/>
      <point x="328" y="362"/>
      <point x="364" y="382"/>
    </contour>
  </outline>
</glyph>
<glyph name="r" format="1">
  <advance width="600"/>
  <unicode hex="0072"/>
  <outline>
    <contour>
      <point x="110" y="0" type="line"/>
      <point x="270" y="0" type="line"/>
      <point x="316" y="230" type="line"/>
      <point x="375" y="331"/>
      <point x="448" y="372"/>
      <point x="510" y="372" type="curve" smooth="yes"/>
      <point x="544" y="372"/>
      <point x="566" y="366"/>
      <point x="590" y="354" type="curve"/>
      <point x="646" y="492" type="line"/>
      <point x="628" y="504"/>
      <point x="598" y="512"/>
      <point x="550" y="512" type="curve" smooth="yes"/>
      <point x="470" y="512"/>
      <point x="396" y="472"/>
      <point x="332" y="382" type="curve"/>
      <point x="328" y="382" type="line"/>
      <point x="338" y="500" type="line"/>
      <point x="208" y="500" type="line"/>
    </contour>
  </outline>
</glyph>
<glyph name="z" format="1">
  <advance width="599"/>
  <unicode hex="007A"/>
  <outline>
    <contour>
      <point x="70" y="0" type="line"/>
      <point x="543" y="0" type="line"/>
      <point x="567" y="123" type="line"/>
      <point x="312" y="123" type="line"/>
      <point x="618" y="413" type="line"/>
      <point x="635" y="498" type="line"/>
      <point x="200" y="498" type="line"/>
      <point x="175" y="374" type="line"/>
      <point x="392" y="374" type="line"/>
      <point x="87" y="84" type="line"/>
    </contour>
  </outline>
</glyph>
<glyph name="bar" format="1">
  <advance width="599"/>
  <unicode hex="007C"/>
  <outline>
    <contour>
      <point x="230" y="-250" type="line"/>
      <point x="370" y="-250" type="line"/>
      <point x="370" y="750" type="line"/>
      <point x="230" y="750" type="line"/>
    </contour>
  </outline>
</glyph>
<glyph name="exclamdown" format="1">
  <advance width="600"/>
  <unicode hex="00A1"/>
  <outline>
    <contour>
      <point x="400" y="239" type="line"/>
      <point x="296" y="239" type="line"/>
      <point x="220" y="-33" type="line"/>
      <point x="187" y="-172" type="line"/>
      <point x="345" y="-172" type="line"/>
      <point x="367" y="-33" type="line"/>
    </contour>
    <contour>
      <point x="488" y="423" type="curve" smooth="yes"/>
      <point x="488" y="474"/>
      <point x="454" y="510"/>
      <point x="402" y="510" type="curve" smooth="yes"/>
      <point x="333" y="510"/>
      <point x="274" y="455"/>
      <point x="274" y="385" type="curve" smooth="yes"/>
      <point x="274" y="335"/>
      <point x="308" y="300"/>
      <point x="360" y="300" type="curve" smooth="yes"/>
      <point x="429" y="300"/>
      <point x="488" y="353"/>
    </contour>
  </outline>
</glyph>
<glyph name="yen" format="1">
  <advance width="599"/>
  <unicode hex="00A5"/>
  <outline>
    <contour>
      <point x="154" y="635" type="line"/>
      <point x="256" y="347" type="line"/>
      <point x="123" y="347" type="line"/>
      <point x="108" y="272" type="line"/>
      <point x="275" y="272" type="line"/>
      <point x="265" y="219" type="line"/>
      <point x="98" y="219" type="line"/>
      <point x="83" y="145" type="line"/>
      <point x="250" y="145" type="line"/>
      <point x="221" y="0" type="line"/>
      <point x="379" y="0" type="line"/>
      <point x="408" y="145" type="line"/>
      <point x="575" y="145" type="line"/>
      <point x="590" y="219" type="line"/>
      <point x="423" y="219" type="line"/>
      <point x="433" y="272" type="line"/>
      <point x="600" y="272" type="line"/>
      <point x="615" y="347" type="line"/>
      <point x="482" y="347" type="line"/>
      <point x="699" y="635" type="line"/>
      <point x="541" y="635" type="line"/>
      <point x="460" y="508" type="line" smooth="yes"/>
      <point x="433" y="465"/>
      <point x="406" y="421"/>
      <point x="379" y="377" type="curve"/>
      <point x="375" y="377" type="line"/>
      <point x="365" y="420"/>
      <point x="357" y="464"/>
      <point x="347" y="508" type="curve" smooth="yes"/>
      <point x="316" y="635" type="line"/>
    </contour>
  </outline>
</glyph>
<glyph name="brokenbar" format="1">
  <advance width="599"/>
  <unicode hex="00A6"/>
  <outline>
    <contour>
      <point x="293" y="315" type="line"/>
      <point x="433" y="315" type="line"/>
      <point x="519" y="750" type="line"/>
      <point x="380" y="750" type="line"/>
    </contour>
    <contour>
      <point x="270" y="202" type="line"/>
      <point x="180" y="-250" type="line"/>
      <point x="320" y="-250" type="line"/>
      <point x="410" y="202" type="line"/>
    </contour>
  </outline>
</glyph>
<glyph name="copyright" format="1">
  <advance width="600"/>
  <unicode hex="00A9"/>
  <outline>
    <contour>
      <point x="73" y="254" type="curve" smooth="yes"/>
      <point x="73" y="92"/>
      <point x="169" y="-8"/>
      <point x="299" y="-8" type="curve" smooth="yes"/>
      <point x="476" y="-8"/>
      <point x="658" y="153"/>
      <point x="658" y="396" type="curve" smooth="yes"/>
      <point x="658" y="558"/>
      <point x="561" y="656"/>
      <point x="431" y="656" type="curve" smooth="yes"/>
      <point x="254" y="656"/>
      <point x="73" y="499"/>
    </contour>
    <contour>
      <point x="142" y="261" type="curve" smooth="yes"/>
      <point x="142" y="453"/>
      <point x="264" y="592"/>
      <point x="419" y="592" type="curve" smooth="yes"/>
      <point x="526" y="592"/>
      <point x="589" y="512"/>
      <point x="589" y="389" type="curve" smooth="yes"/>
      <point x="589" y="199"/>
      <point x="466" y="55"/>
      <point x="311" y="55" type="curve" smooth="yes"/>
      <point x="205" y="55"/>
      <point x="142" y="138"/>
    </contour>
    <contour>
      <point x="197" y="282" type="curve" smooth="yes"/>
      <point x="197" y="187"/>
      <point x="252" y="128"/>
      <point x="339" y="128" type="curve" smooth="yes"/>
      <point x="381" y="128"/>
      <point x="421" y="144"/>
      <point x="458" y="169" type="curve"/>
      <point x="422" y="241" type="line"/>
      <point x="401" y="228"/>
      <point x="385" y="219"/>
      <point x="361" y="219" type="curve" smooth="yes"/>
      <point x="329" y="219"/>
      <point x="311" y="247"/>
      <point x="311" y="292" type="curve" smooth="yes"/>
      <point x="311" y="362"/>
      <point x="349" y="426"/>
      <point x="408" y="426" type="curve" smooth="yes"/>
      <point x="426" y="426"/>
      <point x="437" y="417"/>
      <point x="448" y="402" type="curve"/>
      <point x="520" y="468" type="line"/>
      <point x="497" y="494"/>
      <point x="468" y="517"/>
      <point x="415" y="517" type="curve" smooth="yes"/>
      <point x="311" y="517"/>
      <point x="197" y="424"/>
    </contour>
  </outline>
</glyph>
<glyph name="registered" format="1">
  <advance width="599"/>
  <unicode hex="00AE"/>
  <outline>
    <contour>
      <point x="361" y="310" type="curve" smooth="yes"/>
      <point x="486" y="310"/>
      <point x="606" y="413"/>
      <point x="606" y="548" type="curve" smooth="yes"/>
      <point x="606" y="646"/>
      <point x="538" y="716"/>
      <point x="442" y="716" type="curve" smooth="yes"/>
      <point x="316" y="716"/>
      <point x="197" y="612"/>
      <point x="197" y="477" type="curve" smooth="yes"/>
      <point x="197" y="379"/>
      <point x="264" y="310"/>
    </contour>
    <contour>
      <point x="371" y="361" type="curve" smooth="yes"/>
      <point x="299" y="361"/>
      <point x="254" y="408"/>
      <point x="254" y="481" type="curve" smooth="yes"/>
      <point x="254" y="589"/>
      <point x="334" y="664"/>
      <point x="432" y="664" type="curve" smooth="yes"/>
      <point x="503" y="664"/>
      <point x="548" y="617"/>
      <point x="548" y="544" type="curve" smooth="yes"/>
      <point x="548" y="436"/>
      <point x="469" y="361"/>
    </contour>
    <contour>
      <point x="300" y="416" type="line"/>
      <point x="360" y="416" type="line"/>
      <point x="372" y="474" type="line"/>
      <point x="398" y="474" type="line"/>
      <point x="416" y="416" type="line"/>
      <point x="479" y="416" type="line"/>
      <point x="453" y="492" type="line"/>
      <point x="485" y="505"/>
      <point x="500" y="530"/>
      <point x="500" y="558" type="curve" smooth="yes"/>
      <point x="500" y="594"/>
      <point x="471" y="612"/>
      <point x="430" y="612" type="curve" smooth="yes"/>
      <point x="339" y="612" type="line"/>
    </contour>
    <contour>
      <point x="380" y="516" type="line"/>
      <point x="390" y="567" type="line"/>
      <point x="410" y="567" type="line" smooth="yes"/>
      <point x="426" y="567"/>
      <point x="434" y="558"/>
      <point x="434" y="546" type="curve" smooth="yes"/>
      <point x="434" y="531"/>
      <point x="421" y="516"/>
      <point x="399" y="516" type="curve" smooth="yes"/>
    </contour>
  </outline>
</glyph>
<glyph name="multiply" format="1">
  <advance width="599"/>
  <unicode hex="00D7"/>
  <outline>
    <contour>
      <point x="368" y="252" type="line"/>
      <point x="500" y="114" type="line"/>
      <point x="578" y="192" type="line"/>
      <point x="446" y="330" type="line"/>
      <point x="578" y="468" type="line"/>
      <point x="500" y="546" type="line"/>
      <point x="368" y="408" type="line"/>
      <point x="236" y="546" type="line"/>
      <point x="158" y="468" type="line"/>
      <point x="290" y="330" type="line"/>
      <point x="158" y="192" type="line"/>
      <point x="236" y="114" type="line"/>
    </contour>
  </outline>
</glyph>
<glyph name="aogonek" format="1">
  <advance width="599"/>
  <unicode hex="0105"/>
  <outline>
    <contour>
      <point x="250" y="206" type="curve" smooth="yes"/>
      <point x="250" y="326"/>
      <point x="313" y="381"/>
      <point x="374" y="381" type="curve" smooth="yes"/>
      <point x="401" y="381"/>
      <point x="424" y="373"/>
      <point x="444" y="352" type="curve"/>
      <point x="405" y="159" type="line"/>
      <point x="376" y="127"/>
      <point x="349" y="117"/>
      <point x="318" y="117" type="curve" smooth="yes"/>
      <point x="275" y="117"/>
      <point x="250" y="145"/>
    </contour>
    <contour>
      <point x="86" y="185" type="curve" smooth="yes"/>
      <point x="86" y="63"/>
      <point x="148" y="-12"/>
      <point x="251" y="-12" type="curve" smooth="yes"/>
      <point x="297" y="-12"/>
      <point x="355" y="14"/>
      <point x="397" y="49" type="curve"/>
      <point x="401" y="49" type="line"/>
      <point x="404" y="-3" type="line"/>
      <point x="373" y="-22"/>
      <point x="312" y="-68"/>
      <point x="312" y="-135" type="curve" smooth="yes"/>
      <point x="312" y="-185"/>
      <point x="351" y="-211"/>
      <point x="404" y="-211" type="curve" smooth="yes"/>
      <point x="437" y="-211"/>
      <point x="485" y="-197"/>
      <point x="516" y="-176" type="curve"/>
      <point x="498" y="-106" type="line"/>
      <point x="488" y="-112"/>
      <point x="473" y="-118"/>
      <point x="461" y="-118" type="curve" smooth="yes"/>
      <point x="442" y="-118"/>
      <point x="426" y="-108"/>
      <point x="426" y="-89" type="curve" smooth="yes"/>
      <point x="426" y="-60"/>
      <point x="451" y="-21"/>
      <point x="531" y="0" type="curve"/>
      <point x="631" y="498" type="line"/>
      <point x="507" y="498" type="line"/>
      <point x="484" y="447" type="line"/>
      <point x="481" y="447" type="line"/>
      <point x="450" y="491"/>
      <point x="409" y="510"/>
      <point x="360" y="510" type="curve" smooth="yes"/>
      <point x="230" y="510"/>
      <point x="86" y="385"/>
    </contour>
  </outline>
</glyph>
<glyph name="eogonek" format="1">
  <advance width="600"/>
  <unicode hex="0119"/>
  <outline>
    <contour>
      <point x="505" y="140" type="line"/>
      <point x="456" y="119"/>
      <point x="416" y="108"/>
      <point x="374" y="108" type="curve" smooth="yes"/>
      <point x="306" y="108"/>
      <point x="253" y="133"/>
      <point x="255" y="202" type="curve"/>
      <point x="582" y="202" type="line"/>
      <point x="589" y="219"/>
      <point x="609" y="262"/>
      <point x="609" y="319" type="curve" smooth="yes"/>
      <point x="609" y="427"/>
      <point x="546" y="510"/>
      <point x="415" y="510" type="curve" smooth="yes"/>
      <point x="265" y="510"/>
      <point x="97" y="391"/>
      <point x="97" y="200" type="curve" smooth="yes"/>
      <point x="97" y="66"/>
      <point x="192" y="-12"/>
      <point x="328" y="-12" type="curve" smooth="yes"/>
      <point x="341" y="-12"/>
      <point x="350" y="-12"/>
      <point x="371" y="-8" type="curve"/>
      <point x="336" y="-34"/>
      <point x="291" y="-79"/>
      <point x="291" y="-136" type="curve" smooth="yes"/>
      <point x="291" y="-185"/>
      <point x="329" y="-211"/>
      <point x="382" y="-211" type="curve" smooth="yes"/>
      <point x="414" y="-211"/>
      <point x="463" y="-197"/>
      <point x="493" y="-176" type="curve"/>
      <point x="475" y="-106" type="line"/>
      <point x="465" y="-112"/>
      <point x="452" y="-118"/>
      <point x="439" y="-118" type="curve" smooth="yes"/>
      <point x="418" y="-118"/>
      <point x="403" y="-109"/>
      <point x="403" y="-89" type="curve" smooth="yes"/>
      <point x="403" y="-43"/>
      <point x="437" y="-15"/>
      <point x="538" y="46" type="curve"/>
    </contour>
    <contour>
      <point x="274" y="306" type="line"/>
      <point x="298" y="364"/>
      <point x="346" y="390"/>
      <point x="395" y="390" type="curve" smooth="yes"/>
      <point x="458" y="390"/>
      <point x="476" y="355"/>
      <point x="466" y="306" type="curve"/>
    </contour>
  </outline>
</glyph>
<glyph name="Hbar" format="1">
  <advance width="599"/>
  <unicode hex="0126"/>
  <outline>
    <contour>
      <point x="98" y="485" type="line"/>
      <point x="695" y="485" type="line"/>
      <point x="710" y="560" type="line"/>
      <point x="179" y="560" type="line"/>
      <point x="112" y="554" type="line"/>
    </contour>
    <contour>
      <point x="61" y="0" type="line"/>
      <point x="219" y="0" type="line"/>
      <point x="272" y="266" type="line"/>
      <point x="433" y="266" type="line"/>
      <point x="380" y="0" type="line"/>
      <point x="538" y="0" type="line"/>
      <point x="668" y="651" type="line"/>
      <point x="510" y="651" type="line"/>
      <point x="461" y="404" type="line"/>
      <point x="300" y="404" type="line"/>
      <point x="349" y="651" type="line"/>
      <point x="191" y="651" type="line"/>
    </contour>
  </outline>
</glyph>
<glyph name="hbar" format="1">
  <advance width="600"/>
  <unicode hex="0127"/>
  <outline>
    <contour>
      <point x="114" y="553" type="line"/>
      <point x="514" y="553" type="line"/>
      <point x="529" y="628" type="line"/>
      <point x="205" y="628" type="line"/>
      <point x="128" y="622" type="line"/>
    </contour>
    <contour>
      <point x="69" y="0" type="line"/>
      <point x="227" y="0" type="line"/>
      <point x="289" y="310" type="line"/>
      <point x="325" y="339"/>
      <point x="353" y="356"/>
      <point x="389" y="356" type="curve" smooth="yes"/>
      <point x="439" y="356"/>
      <point x="451" y="328"/>
      <point x="438" y="267" type="curve" smooth="yes"/>
      <point x="385" y="0" type="line"/>
      <point x="543" y="0" type="line"/>
      <point x="600" y="287" type="line" smooth="yes"/>
      <point x="625" y="412"/>
      <point x="592" y="490"/>
      <point x="481" y="490" type="curve" smooth="yes"/>
      <point x="407" y="490"/>
      <point x="345" y="455"/>
      <point x="302" y="419" type="curve"/>
      <point x="329" y="511" type="line"/>
      <point x="366" y="699" type="line"/>
      <point x="209" y="699" type="line"/>
    </contour>
  </outline>
</glyph>
<glyph name="kgreenlandic" format="1">
  <advance width="600"/>
  <unicode hex="0138"/>
  <outline>
    <contour>
      <point x="71" y="0" type="line"/>
      <point x="229" y="0" type="line"/>
      <point x="253" y="122" type="line"/>
      <point x="334" y="188" type="line"/>
      <point x="417" y="0" type="line"/>
      <point x="588" y="0" type="line"/>
      <point x="446" y="292" type="line"/>
      <point x="673" y="498" type="line"/>
      <point x="502" y="498" type="line"/>
      <point x="295" y="311" type="line"/>
      <point x="291" y="311" type="line"/>
      <point x="328" y="498" type="line"/>
      <point x="170" y="498" type="line"/>
    </contour>
  </outline>
</glyph>
<glyph name="napostrophe" format="1">
  <advance width="600"/>
  <unicode hex="0149"/>
  <outline>
    <contour>
      <point x="220" y="0" type="line"/>
      <point x="378" y="0" type="line"/>
      <point x="444" y="331" type="line"/>
      <point x="475" y="359"/>
      <point x="493" y="376"/>
      <point x="522" y="376" type="curve" smooth="yes"/>
      <point x="556" y="376"/>
      <point x="564" y="349"/>
      <point x="552" y="288" type="curve" smooth="yes"/>
      <point x="494" y="0" type="line"/>
      <point x="652" y="0" type="line"/>
      <point x="714" y="308" type="line" smooth="yes"/>
      <point x="739" y="432"/>
      <point x="711" y="510"/>
      <point x="613" y="510" type="curve" smooth="yes"/>
      <point x="548" y="510"/>
      <point x="497" y="475"/>
      <point x="451" y="435" type="curve"/>
      <point x="447" y="435" type="line"/>
      <point x="448" y="498" type="line"/>
      <point x="319" y="498" type="line"/>
    </contour>
    <contour>
      <point x="45" y="280" type="line"/>
      <point x="204" y="346"/>
      <point x="281" y="447"/>
      <point x="281" y="578" type="curve" smooth="yes"/>
      <point x="281" y="652"/>
      <point x="249" y="696"/>
      <point x="186" y="696" type="curve" smooth="yes"/>
      <point x="120" y="696"/>
      <point x="64" y="644"/>
      <point x="64" y="573" type="curve" smooth="yes"/>
      <point x="64" y="527"/>
      <point x="94" y="497"/>
      <point x="142" y="497" type="curve" smooth="yes"/>
      <point x="167" y="497"/>
      <point x="201" y="510"/>
      <point x="223" y="526" type="curve"/>
      <point x="180" y="609" type="line"/>
      <point x="164" y="511" type="line" smooth="yes"/>
      <point x="150" y="443"/>
      <point x="103" y="396"/>
      <point x="21" y="363" type="curve"/>
    </contour>
  </outline>
</glyph>
<glyph name="OE" format="1">
  <advance width="599"/>
  <unicode hex="0152"/>
  <outline>
    <contour>
      <point x="68" y="246" type="curve" smooth="yes"/>
      <point x="68" y="77"/>
      <point x="158" y="0"/>
      <point x="310" y="0" type="curve" smooth="yes"/>
      <point x="596" y="0" type="line"/>
      <point x="622" y="134" type="line"/>
      <point x="458" y="134" type="line"/>
      <point x="486" y="268" type="line"/>
      <point x="602" y="268" type="line"/>
      <point x="628" y="402" type="line"/>
      <point x="512" y="402" type="line"/>
      <point x="534" y="516" type="line"/>
      <point x="690" y="516" type="line"/>
      <point x="716" y="650" type="line"/>
      <point x="408" y="650" type="line" smooth="yes"/>
      <point x="234" y="650"/>
      <point x="68" y="508"/>
    </contour>
    <contour>
      <point x="396" y="522" type="line"/>
      <point x="318" y="128" type="line"/>
      <point x="314" y="128" type="line" smooth="yes"/>
      <point x="268" y="128"/>
      <point x="232" y="161"/>
      <point x="232" y="256" type="curve" smooth="yes"/>
      <point x="232" y="422"/>
      <point x="310" y="522"/>
      <point x="382" y="522" type="curve" smooth="yes"/>
    </contour>
  </outline>
</glyph>
<glyph name="oe" format="1">
  <advance width="600"/>
  <unicode hex="0153"/>
  <outline>
    <contour>
      <point x="195" y="190" type="curve" smooth="yes"/>
      <point x="195" y="245"/>
      <point x="217" y="383"/>
      <point x="285" y="383" type="curve" smooth="yes"/>
      <point x="306" y="383"/>
      <point x="316" y="354"/>
      <point x="316" y="310" type="curve" smooth="yes"/>
      <point x="316" y="230"/>
      <point x="282" y="115"/>
      <point x="232" y="115" type="curve" smooth="yes"/>
      <point x="206" y="115"/>
      <point x="195" y="145"/>
    </contour>
    <contour>
      <point x="53" y="181" type="curve" smooth="yes"/>
      <point x="53" y="60"/>
      <point x="111" y="-12"/>
      <point x="194" y="-12" type="curve" smooth="yes"/>
      <point x="253" y="-12"/>
      <point x="294" y="13"/>
      <point x="332" y="60" type="curve"/>
      <point x="352" y="14"/>
      <point x="393" y="-12"/>
      <point x="443" y="-12" type="curve" smooth="yes"/>
      <point x="483" y="-12"/>
      <point x="539" y="5"/>
      <point x="584" y="35" type="curve"/>
      <point x="551" y="136" type="line"/>
      <point x="521" y="118"/>
      <point x="499" y="111"/>
      <point x="474" y="111" type="curve" smooth="yes"/>
      <point x="432" y="111"/>
      <point x="406" y="139"/>
      <point x="406" y="202" type="curve"/>
      <point x="626" y="202" type="line"/>
      <point x="634" y="224"/>
      <point x="653" y="239"/>
      <point x="653" y="335" type="curve" smooth="yes"/>
      <point x="653" y="432"/>
      <point x="616" y="510"/>
      <point x="537" y="510" type="curve" smooth="yes"/>
      <point x="491" y="510"/>
      <point x="441" y="481"/>
      <point x="404" y="429" type="curve"/>
      <point x="390" y="478"/>
      <point x="358" y="510"/>
      <point x="302" y="510" type="curve" smooth="yes"/>
      <point x="178" y="510"/>
      <point x="53" y="381"/>
    </contour>
    <contour>
      <point x="424" y="298" type="line"/>
      <point x="443" y="362"/>
      <point x="472" y="390"/>
      <point x="501" y="390" type="curve" smooth="yes"/>
      <point x="536" y="390"/>
      <point x="537" y="348"/>
      <point x="527" y="298" type="curve"/>
    </contour>
  </outline>
</glyph>
<glyph name="uhorn" format="1">
  <advance width="600"/>
  <unicode hex="01B0"/>
  <outline>
    <contour>
      <point x="618" y="449" type="line"/>
      <point x="687" y="469"/>
      <point x="743" y="514"/>
      <point x="743" y="589" type="curve" smooth="yes"/>
      <point x="743" y="615"/>
      <point x="736" y="639"/>
      <point x="727" y="652" type="curve"/>
      <point x="610" y="606" type="line"/>
      <point x="614" y="597"/>
      <point x="618" y="584"/>
      <point x="618" y="570" type="curve" smooth="yes"/>
      <point x="618" y="508"/>
      <point x="565" y="499"/>
      <point x="524" y="498" type="curve"/>
    </contour>
    <contour>
      <point x="628" y="500" type="line"/>
      <point x="468" y="500" type="line"/>
      <point x="410" y="202" type="line"/>
      <point x="371" y="150"/>
      <point x="329" y="124"/>
      <point x="296" y="124" type="curve" smooth="yes"/>
      <point x="270" y="124"/>
      <point x="254" y="138"/>
      <point x="254" y="166" type="curve" smooth="yes"/>
      <point x="254" y="178"/>
      <point x="258" y="192"/>
      <point x="262" y="210" type="curve" smooth="yes"/>
      <point x="320" y="500" type="line"/>
      <point x="160" y="500" type="line"/>
      <point x="98" y="190" type="line" smooth="yes"/>
      <point x="93" y="166"/>
      <point x="90" y="140"/>
      <point x="90" y="118" type="curve" smooth="yes"/>
      <point x="90" y="32"/>
      <point x="138" y="-12"/>
      <point x="220" y="-12" type="curve" smooth="yes"/>
      <point x="284" y="-12"/>
      <point x="354" y="34"/>
      <point x="400" y="80" type="curve"/>
      <point x="404" y="80" type="line"/>
      <point x="400" y="0" type="line"/>
      <point x="530" y="0" type="line"/>
    </contour>
  </outline>
</glyph>
<glyph name="emdash" format="1">
  <advance width="599"/>
  <unicode hex="2014"/>
  <outline>
    <contour>
      <point x="59" y="196" type="line"/>
      <point x="619" y="196" type="line"/>
      <point x="642" y="313" type="line"/>
      <point x="82" y="313" type="line"/>
    </contour>
  </outline>
</glyph>
<glyph name="dagger" format="1">
  <advance width="599"/>
  <unicode hex="2020"/>
  <outline>
    <contour>
      <point x="220" y="-80" type="line"/>
      <point x="348" y="-80" type="line"/>
      <point x="440" y="428" type="line"/>
      <point x="598" y="418" type="line"/>
      <point x="622" y="546" type="line"/>
      <point x="460" y="536" type="line"/>
      <point x="506" y="712" type="line"/>
      <point x="378" y="712" type="line"/>
      <point x="352" y="536" type="line"/>
      <point x="196" y="546" type="line"/>
      <point x="170" y="418" type="line"/>
      <point x="332" y="428" type="line"/>
    </contour>
  </outline>
</glyph>
<glyph name="guilsinglleft" format="1">
  <advance width="600"/>
  <unicode hex="2039"/>
  <outline>
    <contour>
      <point x="349" y="20" type="line"/>
      <point x="428" y="79" type="line"/>
      <point x="335" y="252" type="line"/>
      <point x="497" y="425" type="line"/>
      <point x="442" y="484" type="line"/>
      <point x="237" y="331" type="line"/>
      <point x="206" y="173" type="line"/>
    </contour>
  </outline>
</glyph>
<glyph name="guilsinglright" format="1">
  <advance width="600"/>
  <unicode hex="203A"/>
  <outline>
    <contour>
      <point x="204" y="79" type="line"/>
      <point x="259" y="20" type="line"/>
      <point x="464" y="173" type="line"/>
      <point x="495" y="331" type="line"/>
      <point x="352" y="484" type="line"/>
      <point x="273" y="425" type="line"/>
      <point x="366" y="252" type="line"/>
    </contour>
  </outline>
</glyph>
<glyph name="colonmonetary" format="1">
  <advance width="600"/>
  <unicode hex="20A1"/>
  <outline>
    <contour>
      <point x="208" y="-110" type="line"/>
      <point x="260" y="-110" type="line"/>
      <point x="532" y="745" type="line"/>
      <point x="481" y="745" type="line"/>
    </contour>
    <contour>
      <point x="297" y="-110" type="line"/>
      <point x="349" y="-110" type="line"/>
      <point x="621" y="745" type="line"/>
      <point x="570" y="745" type="line"/>
    </contour>
    <contour>
      <point x="129" y="237" type="curve" smooth="yes"/>
      <point x="129" y="75"/>
      <point x="222" y="-12"/>
      <point x="360" y="-12" type="curve" smooth="yes"/>
      <point x="441" y="-12"/>
      <point x="516" y="20"/>
      <point x="583" y="80" type="curve"/>
      <point x="512" y="161" type="line"/>
      <point x="476" y="129"/>
      <point x="438" y="110"/>
      <point x="394" y="110" type="curve" smooth="yes"/>
      <point x="326" y="110"/>
      <point x="289" y="163"/>
      <point x="289" y="254" type="curve" smooth="yes"/>
      <point x="289" y="400"/>
      <point x="354" y="525"/>
      <point x="473" y="525" type="curve" smooth="yes"/>
      <point x="515" y="525"/>
      <point x="543" y="508"/>
      <point x="568" y="484" type="curve"/>
      <point x="672" y="569" type="line"/>
      <point x="632" y="619"/>
      <point x="571" y="647"/>
      <point x="508" y="647" type="curve" smooth="yes"/>
      <point x="292" y="647"/>
      <point x="129" y="485"/>
    </contour>
  </outline>
</glyph>
<glyph name="peseta" format="1">
  <advance width="599"/>
  <unicode hex="20A7"/>
  <outline>
    <contour>
      <point x="84" y="0" type="line"/>
      <point x="233" y="0" type="line"/>
      <point x="275" y="210" type="line"/>
      <point x="314" y="210" type="line" smooth="yes"/>
      <point x="463" y="210"/>
      <point x="606" y="289"/>
      <point x="606" y="465" type="curve" smooth="yes"/>
      <point x="606" y="589"/>
      <point x="516" y="635"/>
      <point x="399" y="635" type="curve" smooth="yes"/>
      <point x="211" y="635" type="line"/>
    </contour>
    <contour>
      <point x="294" y="308" type="line"/>
      <point x="340" y="536" type="line"/>
      <point x="370" y="536" type="line" smooth="yes"/>
      <point x="427" y="536"/>
      <point x="458" y="509"/>
      <point x="458" y="451" type="curve" smooth="yes"/>
      <point x="458" y="365"/>
      <point x="408" y="308"/>
      <point x="325" y="308" type="curve" smooth="yes"/>
    </contour>
    <contour>
      <point x="92" y="374" type="line"/>
      <point x="649" y="374" type="line"/>
      <point x="668" y="470" type="line"/>
      <point x="193" y="470" type="line"/>
      <point x="110" y="465" type="line"/>
    </contour>
  </outline>
</glyph>
<glyph name="Euro" format="1">
  <advance width="599"/>
  <unicode hex="20AC"/>
  <outline>
    <contour>
      <point x="110" y="338" type="line"/>
      <point x="578" y="338" type="line"/>
      <point x="593" y="417" type="line"/>
      <point x="201" y="417" type="line"/>
      <point x="125" y="411" type="line"/>
    </contour>
    <contour>
      <point x="85" y="212" type="line"/>
      <point x="512" y="212" type="line"/>
      <point x="528" y="291" type="line"/>
      <point x="175" y="291" type="line"/>
      <point x="100" y="285" type="line"/>
    </contour>
    <contour>
      <point x="148" y="237" type="curve" smooth="yes"/>
      <point x="148" y="75"/>
      <point x="242" y="-12"/>
      <point x="380" y="-12" type="curve" smooth="yes"/>
      <point x="460" y="-12"/>
      <point x="535" y="20"/>
      <point x="602" y="80" type="curve"/>
      <point x="531" y="161" type="line"/>
      <point x="495" y="129"/>
      <point x="458" y="110"/>
      <point x="413" y="110" type="curve" smooth="yes"/>
      <point x="345" y="110"/>
      <point x="309" y="163"/>
      <point x="309" y="254" type="curve" smooth="yes"/>
      <point x="309" y="400"/>
      <point x="373" y="525"/>
      <point x="492" y="525" type="curve" smooth="yes"/>
      <point x="534" y="525"/>
      <point x="562" y="508"/>
      <point x="588" y="484" type="curve"/>
      <point x="691" y="569" type="line"/>
      <point x="652" y="619"/>
      <point x="590" y="647"/>
      <point x="522" y="647" type="curve" smooth="yes"/>
      <point x="316" y="647"/>
      <point x="148" y="486"/>
    </contour>
  </outline>
</glyph>
<glyph name="trademark" format="1">
  <advance width="599"/>
  <unicode hex="2122"/>
  <outline>
    <contour>
      <point x="344" y="361" type="line"/>
      <point x="433" y="361" type="line"/>
      <point x="451" y="450" type="line"/>
      <point x="463" y="568" type="line"/>
      <point x="467" y="568" type="line"/>
      <point x="489" y="425" type="line"/>
      <point x="549" y="425" type="line"/>
      <point x="628" y="568" type="line"/>
      <point x="632" y="568" type="line"/>
      <point x="597" y="450" type="line"/>
      <point x="579" y="361" type="line"/>
      <point x="669" y="361" type="line"/>
      <point x="732" y="676" type="line"/>
      <point x="623" y="676" type="line"/>
      <point x="572" y="586" type="line"/>
      <point x="539" y="516" type="line"/>
      <point x="535" y="516" type="line"/>
      <point x="530" y="586" type="line"/>
      <point x="515" y="676" type="line"/>
      <point x="407" y="676" type="line"/>
    </contour>
    <contour>
      <point x="133" y="361" type="line"/>
      <point x="235" y="361" type="line"/>
      <point x="280" y="583" type="line"/>
      <point x="356" y="583" type="line"/>
      <point x="374" y="676" type="line"/>
      <point x="121" y="676" type="line"/>
      <point x="102" y="583" type="line"/>
      <point x="178" y="583" type="line"/>
    </contour>
  </outline>
</glyph>
<glyph name="summation" format="1">
  <advance width="599"/>
  <unicode hex="2211"/>
  <outline>
    <contour>
      <point x="52" y="-27" type="line"/>
      <point x="33" y="-120" type="line"/>
      <point x="535" y="-120" type="line"/>
      <point x="561" y="12" type="line"/>
      <point x="254" y="12" type="line"/>
      <point x="255" y="16" type="line"/>
      <point x="470" y="257" type="line"/>
      <point x="358" y="498" type="line"/>
      <point x="359" y="502" type="line"/>
      <point x="636" y="502" type="line"/>
      <point x="663" y="635" type="line"/>
      <point x="194" y="635" type="line"/>
      <point x="175" y="542" type="line"/>
      <point x="309" y="256" type="line"/>
    </contour>
  </outline>
</glyph>
<glyph name="integral" format="1">
  <advance width="599"/>
  <unicode hex="222B"/>
  <outline>
    <contour>
      <point x="148" y="-36" type="curve"/>
      <point x="110" y="-150" type="line"/>
      <point x="121" y="-153"/>
      <point x="143" y="-158"/>
      <point x="167" y="-158" type="curve" smooth="yes"/>
      <point x="331" y="-158"/>
      <point x="385" y="-51"/>
      <point x="413" y="92" type="curve" smooth="yes"/>
      <point x="447" y="260"/>
      <point x="436" y="391"/>
      <point x="467" y="545" type="curve" smooth="yes"/>
      <point x="486" y="637"/>
      <point x="505" y="674"/>
      <point x="555" y="674" type="curve" smooth="yes"/>
      <point x="569" y="674"/>
      <point x="581" y="672"/>
      <point x="590" y="670" type="curve"/>
      <point x="628" y="784" type="line"/>
      <point x="617" y="787"/>
      <point x="595" y="792"/>
      <point x="571" y="792" type="curve" smooth="yes"/>
      <point x="407" y="792"/>
      <point x="353" y="684"/>
      <point x="325" y="542" type="curve" smooth="yes"/>
      <point x="291" y="373"/>
      <point x="302" y="242"/>
      <point x="271" y="88" type="curve" smooth="yes"/>
      <point x="252" y="-6"/>
      <point x="234" y="-40"/>
      <point x="183" y="-40" type="curve" smooth="yes"/>
      <point x="169" y="-40"/>
      <point x="157" y="-39"/>
    </contour>
  </outline>
</glyph>
<glyph name="notequal" format="1">
  <advance width="600"/>
  <unicode hex="2260"/>
  <outline>
    <contour>
      <point x="590" y="154" type="line"/>
      <point x="590" y="266" type="line"/>
      <point x="380" y="266" type="line"/>
      <point x="452" y="394" type="line"/>
      <point x="590" y="394" type="line"/>
      <point x="590" y="506" type="line"/>
      <point x="510" y="506" type="line"/>
      <point x="580" y="626" type="line"/>
      <point x="480" y="626" type="line"/>
      <point x="410" y="506" type="line"/>
      <point x="142" y="506" type="line"/>
      <point x="142" y="394" type="line"/>
      <point x="352" y="394" type="line"/>
      <point x="280" y="266" type="line"/>
      <point x="142" y="266" type="line"/>
      <point x="142" y="154" type="line"/>
      <point x="222" y="154" type="line"/>
      <point x="152" y="34" type="line"/>
      <point x="252" y="34" type="line"/>
      <point x="322" y="154" type="line"/>
    </contour>
  </outline>
</glyph>
<glyph name="lessequal" format="1">
  <advance width="599"/>
  <unicode hex="2264"/>
  <outline>
    <contour>
      <point x="67" y="0" type="line"/>
      <point x="532" y="0" type="line"/>
      <point x="532" y="111" type="line"/>
      <point x="67" y="111" type="line"/>
    </contour>
    <contour>
      <point x="67" y="294" type="line"/>
      <point x="532" y="154" type="line"/>
      <point x="532" y="283" type="line"/>
      <point x="366" y="325" type="line"/>
      <point x="227" y="357" type="line"/>
      <point x="227" y="361" type="line"/>
      <point x="366" y="393" type="line"/>
      <point x="532" y="435" type="line"/>
      <point x="532" y="564" type="line"/>
      <point x="67" y="424" type="line"/>
    </contour>
  </outline>
</glyph>
<glyph name="Bstroke" format="1">
  <advance width="600"/>
  <outline>
    <contour>
      <point x="41" y="174" type="line"/>
      <point x="373" y="174" type="line"/>
      <point x="388" y="249" type="line"/>
      <point x="132" y="249" type="line"/>
      <point x="55" y="243" type="line"/>
    </contour>
    <contour>
      <point x="81" y="0" type="line"/>
      <point x="310" y="0" type="line" smooth="yes"/>
      <point x="470" y="0"/>
      <point x="605" y="75"/>
      <point x="605" y="236" type="curve" smooth="yes"/>
      <point x="605" y="305"/>
      <point x="567" y="347"/>
      <point x="493" y="363" type="curve"/>
      <point x="494" y="367" type="line"/>
      <point x="587" y="389"/>
      <point x="632" y="455"/>
      <point x="632" y="523" type="curve" smooth="yes"/>
      <point x="632" y="619"/>
      <point x="542" y="651"/>
      <point x="420" y="651" type="curve" smooth="yes"/>
      <point x="211" y="651" type="line"/>
    </contour>
    <contour>
      <point x="319" y="400" type="line"/>
      <point x="346" y="538" type="line"/>
      <point x="393" y="538" type="line" smooth="yes"/>
      <point x="448" y="538"/>
      <point x="475" y="523"/>
      <point x="475" y="488" type="curve" smooth="yes"/>
      <point x="475" y="435"/>
      <point x="441" y="400"/>
      <point x="365" y="400" type="curve" smooth="yes"/>
    </contour>
    <contour>
      <point x="261" y="113" type="line"/>
      <point x="300" y="307" type="line"/>
      <point x="359" y="307" type="line" smooth="yes"/>
      <point x="423" y="307"/>
      <point x="456" y="285"/>
      <point x="456" y="235" type="curve" smooth="yes"/>
      <point x="456" y="160"/>
      <point x="409" y="113"/>
      <point x="320" y="113" type="curve" smooth="yes"/>
    </contour>
  </outline>
</glyph>
<glyph name="Oogonek" format="1">
  <advance width="600"/>
  <outline>
    <contour>
      <point x="376" y="-110" type="line"/>
      <point x="365" y="-116"/>
      <point x="351" y="-124"/>
      <point x="338" y="-124" type="curve" smooth="yes"/>
      <point x="320" y="-124"/>
      <point x="303" y="-115"/>
      <point x="303" y="-94" type="curve" smooth="yes"/>
      <point x="303" y="-68"/>
      <point x="326" y="-23"/>
      <point x="390" y="3" type="curve" smooth="yes"/>
      <point x="538" y="63"/>
      <point x="641" y="201"/>
      <point x="641" y="413" type="curve" smooth="yes"/>
      <point x="641" y="571"/>
      <point x="561" y="663"/>
      <point x="433" y="663" type="curve" smooth="yes"/>
      <point x="241" y="663"/>
      <point x="91" y="496"/>
      <point x="91" y="244" type="curve" smooth="yes"/>
      <point x="91" y="114"/>
      <point x="145" y="5"/>
      <point x="269" y="-10" type="curve"/>
      <point x="230" y="-39"/>
      <point x="179" y="-86"/>
      <point x="179" y="-145" type="curve" smooth="yes"/>
      <point x="179" y="-196"/>
      <point x="222" y="-225"/>
      <point x="280" y="-225" type="curve" smooth="yes"/>
      <point x="316" y="-225"/>
      <point x="365" y="-210"/>
      <point x="396" y="-189" type="curve"/>
    </contour>
    <contour>
      <point x="325" y="124" type="curve" smooth="yes"/>
      <point x="279" y="124"/>
      <point x="254" y="176"/>
      <point x="254" y="255" type="curve" smooth="yes"/>
      <point x="254" y="402"/>
      <point x="318" y="527"/>
      <point x="405" y="527" type="curve" smooth="yes"/>
      <point x="452" y="527"/>
      <point x="477" y="479"/>
      <point x="477" y="400" type="curve" smooth="yes"/>
      <point x="477" y="256"/>
      <point x="411" y="124"/>
    </contour>
  </outline>
</glyph>
<glyph name="Schwa" format="1">
  <advance width="600"/>
  <outline>
    <contour>
      <point x="271" y="260" type="curve"/>
      <point x="498" y="260" type="line"/>
      <point x="521" y="375" type="line"/>
      <point x="136" y="375" type="line"/>
      <point x="127" y="346"/>
      <point x="110" y="323"/>
      <point x="110" y="234" type="curve" smooth="yes"/>
      <point x="110" y="79"/>
      <point x="184" y="-12"/>
      <point x="306" y="-12" type="curve" smooth="yes"/>
      <point x="490" y="-12"/>
      <point x="639" y="162"/>
      <point x="639" y="416" type="curve" smooth="yes"/>
      <point x="639" y="571"/>
      <point x="565" y="663"/>
      <point x="445" y="663" type="curve" smooth="yes"/>
      <point x="361" y="663"/>
      <point x="295" y="633"/>
      <point x="242" y="591" type="curve"/>
      <point x="288" y="482" type="line"/>
      <point x="318" y="506"/>
      <point x="354" y="529"/>
      <point x="399" y="529" type="curve" smooth="yes"/>
      <point x="454" y="529"/>
      <point x="482" y="485"/>
      <point x="482" y="403" type="curve" smooth="yes"/>
      <point x="482" y="244"/>
      <point x="412" y="122"/>
      <point x="333" y="122" type="curve" smooth="yes"/>
      <point x="284" y="122"/>
      <point x="259" y="167"/>
    </contour>
  </outline>
</glyph>
<glyph name=".notdef.001" format="1">
  <advance width="600"/>
  <outline>
    <contour>
      <point x="30" y="0" type="line"/>
      <point x="570" y="0" type="line"/>
      <point x="702" y="660" type="line"/>
      <point x="162" y="660" type="line"/>
    </contour>
    <contour>
      <point x="167" y="162" type="line"/>
      <point x="238" y="518" type="line"/>
      <point x="292" y="340" type="line"/>
    </contour>
    <contour>
      <point x="444" y="340" type="line"/>
      <point x="569" y="518" type="line"/>
      <point x="498" y="162" type="line"/>
    </contour>
    <contour>
      <point x="245" y="97" type="line"/>
      <point x="292" y="165" type="line"/>
      <point x="350" y="262" type="line"/>
      <point x="354" y="262" type="line"/>
      <point x="374" y="165" type="line"/>
      <point x="393" y="97" type="line"/>
    </contour>
    <contour>
      <point x="382" y="418" type="line"/>
      <point x="359" y="514" type="line"/>
      <point x="343" y="563" type="line"/>
      <point x="481" y="563" type="line"/>
      <point x="446" y="514" type="line"/>
      <point x="386" y="418" type="line"/>
    </contour>
  </outline>
</glyph>
<glyph name="a.supa" format="1">
  <advance width="599"/>
  <outline>
    <contour>
      <point x="321" y="398" type="curve" smooth="yes"/>
      <point x="321" y="475"/>
      <point x="361" y="508"/>
      <point x="395" y="508" type="curve" smooth="yes"/>
      <point x="410" y="508"/>
      <point x="431" y="504"/>
      <point x="442" y="491" type="curve"/>
      <point x="417" y="366" type="line"/>
      <point x="400" y="347"/>
      <point x="382" y="341"/>
      <point x="363" y="341" type="curve" smooth="yes"/>
      <point x="338" y="341"/>
      <point x="321" y="359"/>
    </contour>
    <contour>
      <point x="206" y="382" type="curve" smooth="yes"/>
      <point x="206" y="302"/>
      <point x="247" y="252"/>
      <point x="316" y="252" type="curve" smooth="yes"/>
      <point x="347" y="252"/>
      <point x="385" y="269"/>
      <point x="412" y="291" type="curve"/>
      <point x="415" y="291" type="line"/>
      <point x="417" y="260" type="line"/>
      <point x="507" y="260" type="line"/>
      <point x="572" y="590" type="line"/>
      <point x="487" y="590" type="line"/>
      <point x="471" y="557" type="line"/>
      <point x="468" y="557" type="line"/>
      <point x="448" y="585"/>
      <point x="421" y="598"/>
      <point x="389" y="598" type="curve" smooth="yes"/>
      <point x="302" y="598"/>
      <point x="206" y="515"/>
    </contour>
  </outline>
</glyph>
<glyph name="acutecmb.cap" format="1">
  <advance width="599"/>
  <outline>
    <contour>
      <point x="360" y="700" type="line"/>
      <point x="490" y="700" type="line"/>
      <point x="632" y="822" type="line"/>
      <point x="460" y="822" type="line"/>
    </contour>
  </outline>
</glyph>
<glyph name="alphalatinturned" format="1">
  <advance width="600"/>
  <outline>
    <contour>
      <point x="450" y="294" type="curve" smooth="yes"/>
      <point x="450" y="172"/>
      <point x="388" y="117"/>
      <point x="326" y="117" type="curve" smooth="yes"/>
      <point x="301" y="117"/>
      <point x="276" y="124"/>
      <point x="256" y="146" type="curve"/>
      <point x="295" y="339" type="line"/>
      <point x="324" y="370"/>
      <point x="351" y="381"/>
      <point x="383" y="381" type="curve" smooth="yes"/>
      <point x="426" y="381"/>
      <point x="450" y="353"/>
    </contour>
    <contour>
      <point x="615" y="321" type="curve" smooth="yes"/>
      <point x="615" y="435"/>
      <point x="559" y="510"/>
      <point x="459" y="510" type="curve" smooth="yes"/>
      <point x="403" y="510"/>
      <point x="344" y="484"/>
      <point x="302" y="449" type="curve"/>
      <point x="299" y="449" type="line"/>
      <point x="297" y="498" type="line"/>
      <point x="168" y="498" type="line"/>
      <point x="69" y="0" type="line"/>
      <point x="192" y="0" type="line"/>
      <point x="216" y="54" type="line"/>
      <point x="220" y="54" type="line"/>
      <point x="250" y="10"/>
      <point x="294" y="-12"/>
      <point x="338" y="-12" type="curve" smooth="yes"/>
      <point x="469" y="-12"/>
      <point x="615" y="114"/>
    </contour>
  </outline>
</glyph>
<glyph name="approxequal.001" format="1">
  <advance width="520"/>
  <outline>
    <contour>
      <point x="116" y="380" type="line"/>
      <point x="134" y="416"/>
      <point x="156" y="434"/>
      <point x="182" y="434" type="curve" smooth="yes"/>
      <point x="234" y="434"/>
      <point x="270" y="360"/>
      <point x="346" y="360" type="curve" smooth="yes"/>
      <point x="396" y="360"/>
      <point x="452" y="388"/>
      <point x="498" y="468" type="curve"/>
      <point x="418" y="522" type="line"/>
      <point x="400" y="486"/>
      <point x="378" y="468"/>
      <point x="352" y="468" type="curve" smooth="yes"/>
      <point x="300" y="468"/>
      <point x="264" y="542"/>
      <point x="188" y="542" type="curve" smooth="yes"/>
      <point x="138" y="542"/>
      <point x="82" y="514"/>
      <point x="36" y="434" type="curve"/>
    </contour>
    <contour>
      <point x="116" y="140" type="line"/>
      <point x="134" y="176"/>
      <point x="156" y="194"/>
      <point x="182" y="194" type="curve" smooth="yes"/>
      <point x="234" y="194"/>
      <point x="270" y="120"/>
      <point x="346" y="120" type="curve" smooth="yes"/>
      <point x="396" y="120"/>
      <point x="452" y="148"/>
      <point x="498" y="228" type="curve"/>
      <point x="418" y="282" type="line"/>
      <point x="400" y="246"/>
      <point x="378" y="228"/>
      <point x="352" y="228" type="curve" smooth="yes"/>
      <point x="300" y="228"/>
      <point x="264" y="302"/>
      <point x="188" y="302" type="curve" smooth="yes"/>
      <point x="138" y="302"/>
      <point x="82" y="274"/>
      <point x="36" y="194" type="curve"/>
    </contour>
  </outline>
</glyph>
<glyph name="arrowdown.001" format="1">
  <advance width="600"/>
  <outline>
    <contour>
      <point x="297" y="-26" type="line"/>
      <point x="620" y="253" type="line"/>
      <point x="550" y="327" type="line"/>
      <point x="400" y="186" type="line"/>
      <point x="468" y="530" type="line"/>
      <point x="343" y="530" type="line"/>
      <point x="275" y="186" type="line"/>
      <point x="181" y="327" type="line"/>
      <point x="81" y="253" type="line"/>
      <point x="293" y="-26" type="line"/>
    </contour>
  </outline>
</glyph>
<glyph name="arrowleft.001" format="1">
  <advance width="600"/>
  <outline>
    <contour>
      <point x="63" y="250" type="line"/>
      <point x="288" y="-18" type="line"/>
      <point x="379" y="67" type="line"/>
      <point x="262" y="189" type="line"/>
      <point x="606" y="189" type="line"/>
      <point x="631" y="315" type="line"/>
      <point x="288" y="315" type="line"/>
      <point x="453" y="437" type="line"/>
      <point x="396" y="522" type="line"/>
      <point x="64" y="254" type="line"/>
    </contour>
  </outline>
</glyph>
<glyph name="arrowright.001" format="1">
  <advance width="599"/>
  <outline>
    <contour>
      <point x="637" y="254" type="line"/>
      <point x="412" y="522" type="line"/>
      <point x="321" y="437" type="line"/>
      <point x="438" y="315" type="line"/>
      <point x="94" y="315" type="line"/>
      <point x="69" y="189" type="line"/>
      <point x="413" y="189" type="line"/>
      <point x="247" y="67" type="line"/>
      <point x="304" y="-18" type="line"/>
      <point x="637" y="250" type="line"/>
    </contour>
  </outline>
</glyph>
<glyph name="arrowup.001" format="1">
  <advance width="600"/>
  <outline>
    <contour>
      <point x="404" y="530" type="line"/>
      <point x="81" y="251" type="line"/>
      <point x="151" y="177" type="line"/>
      <point x="301" y="318" type="line"/>
      <point x="233" y="-26" type="line"/>
      <point x="358" y="-26" type="line"/>
      <point x="427" y="318" type="line"/>
      <point x="521" y="177" type="line"/>
      <point x="620" y="251" type="line"/>
      <point x="408" y="530" type="line"/>
    </contour>
  </outline>
</glyph>
<glyph name="asciicircum.001" format="1">
  <advance width="516"/>
  <outline>
    <contour>
      <point x="68" y="272" type="line"/>
      <point x="198" y="272" type="line"/>
      <point x="236" y="390" type="line"/>
      <point x="280" y="526" type="line"/>
      <point x="284" y="526" type="line"/>
      <point x="326" y="390" type="line"/>
      <point x="364" y="272" type="line"/>
      <point x="494" y="272" type="line"/>
      <point x="344" y="670" type="line"/>
      <point x="218" y="670" type="line"/>
    </contour>
  </outline>
</glyph>
<glyph name="asciicircum.002" format="1">
  <advance width="599"/>
  <outline>
    <contour>
      <point x="136" y="272" type="line"/>
      <point x="265" y="272" type="line"/>
      <point x="332" y="393" type="line"/>
      <point x="404" y="528" type="line"/>
      <point x="408" y="528" type="line"/>
      <point x="425" y="393" type="line"/>
      <point x="444" y="272" type="line"/>
      <point x="573" y="272" type="line"/>
      <point x="497" y="670" type="line"/>
      <point x="371" y="670" type="line"/>
    </contour>
  </outline>
</glyph>
<glyph name="asciitilde.001" format="1">
  <advance width="520"/>
  <outline>
    <contour>
      <point x="116" y="260" type="line"/>
      <point x="134" y="296"/>
      <point x="156" y="314"/>
      <point x="182" y="314" type="curve" smooth="yes"/>
      <point x="234" y="314"/>
      <point x="270" y="240"/>
      <point x="346" y="240" type="curve" smooth="yes"/>
      <point x="396" y="240"/>
      <point x="452" y="268"/>
      <point x="498" y="348" type="curve"/>
      <point x="418" y="402" type="line"/>
      <point x="400" y="366"/>
      <point x="378" y="348"/>
      <point x="352" y="348" type="curve" smooth="yes"/>
      <point x="300" y="348"/>
      <point x="264" y="422"/>
      <point x="188" y="422" type="curve" smooth="yes"/>
      <point x="138" y="422"/>
      <point x="82" y="394"/>
      <point x="36" y="314" type="curve"/>
    </contour>
  </outline>
</glyph>
<glyph name="ascript" format="1">
  <advance width="599"/>
  <outline>
    <contour>
      <point x="250" y="206" type="curve" smooth="yes"/>
      <point x="250" y="326"/>
      <point x="313" y="381"/>
      <point x="374" y="381" type="curve" smooth="yes"/>
      <point x="401" y="381"/>
      <point x="424" y="373"/>
      <point x="444" y="352" type="curve"/>
      <point x="405" y="159" type="line"/>
      <point x="376" y="127"/>
      <point x="349" y="117"/>
      <point x="318" y="117" type="curve" smooth="yes"/>
      <point x="275" y="117"/>
      <point x="250" y="145"/>
    </contour>
    <contour>
      <point x="86" y="185" type="curve" smooth="yes"/>
      <point x="86" y="63"/>
      <point x="148" y="-12"/>
      <point x="251" y="-12" type="curve" smooth="yes"/>
      <point x="297" y="-12"/>
      <point x="355" y="14"/>
      <point x="397" y="49" type="curve"/>
      <point x="401" y="49" type="line"/>
      <point x="403" y="0" type="line"/>
      <point x="531" y="0" type="line"/>
      <point x="631" y="498" type="line"/>
      <point x="507" y="498" type="line"/>
      <point x="484" y="447" type="line"/>
      <point x="481" y="447" type="line"/>
      <point x="450" y="491"/>
      <point x="409" y="510"/>
      <point x="360" y="510" type="curve" smooth="yes"/>
      <point x="230" y="510"/>
      <point x="86" y="385"/>
    </contour>
  </outline>
</glyph>
<glyph name="aturned" format="1">
  <advance width="600"/>
  <outline>
    <contour>
      <point x="624" y="384" type="curve" smooth="yes"/>
      <point x="624" y="454"/>
      <point x="577" y="510"/>
      <point x="488" y="510" type="curve" smooth="yes"/>
      <point x="425" y="510"/>
      <point x="358" y="480"/>
      <point x="301" y="444" type="curve"/>
      <point x="298" y="444" type="line"/>
      <point x="297" y="498" type="line"/>
      <point x="169" y="498" type="line"/>
      <point x="112" y="217" type="line" smooth="yes"/>
      <point x="81" y="59"/>
      <point x="154" y="-12"/>
      <point x="295" y="-12" type="curve" smooth="yes"/>
      <point x="379" y="-12"/>
      <point x="463" y="14"/>
      <point x="543" y="55" type="curve"/>
      <point x="508" y="158" type="line"/>
      <point x="445" y="130"/>
      <point x="396" y="113"/>
      <point x="351" y="113" type="curve" smooth="yes"/>
      <point x="289" y="113"/>
      <point x="259" y="136"/>
      <point x="262" y="176" type="curve"/>
      <point x="531" y="192"/>
      <point x="624" y="260"/>
    </contour>
    <contour>
      <point x="468" y="353" type="curve" smooth="yes"/>
      <point x="468" y="313"/>
      <point x="436" y="278"/>
      <point x="281" y="271" type="curve"/>
      <point x="296" y="345" type="line"/>
      <point x="332" y="369"/>
      <point x="371" y="388"/>
      <point x="413" y="388" type="curve" smooth="yes"/>
      <point x="448" y="388"/>
      <point x="468" y="376"/>
    </contour>
  </outline>
</glyph>
<glyph name="bar.001" format="1">
  <advance width="599"/>
  <outline>
    <contour>
      <point x="180" y="-250" type="line"/>
      <point x="320" y="-250" type="line"/>
      <point x="519" y="750" type="line"/>
      <point x="380" y="750" type="line"/>
    </contour>
  </outline>
</glyph>
<glyph name="brevecmb" format="1">
  <advance width="599"/>
  <outline>
    <contour>
      <point x="412" y="574" type="curve" smooth="yes"/>
      <point x="504" y="574"/>
      <point x="562" y="640"/>
      <point x="580" y="716" type="curve"/>
      <point x="492" y="716" type="line"/>
      <point x="482" y="684"/>
      <point x="462" y="658"/>
      <point x="428" y="658" type="curve" smooth="yes"/>
      <point x="394" y="658"/>
      <point x="384" y="684"/>
      <point x="388" y="716" type="curve"/>
      <point x="304" y="716" type="line"/>
      <point x="288" y="640"/>
      <point x="324" y="574"/>
    </contour>
  </outline>
</glyph>
<glyph name="brevehoi.cap" format="1">
  <advance width="600"/>
  <outline>
    <contour>
      <point x="428" y="807" type="line"/>
      <point x="505" y="812"/>
      <point x="566" y="840"/>
      <point x="566" y="907" type="curve" smooth="yes"/>
      <point x="566" y="945"/>
      <point x="532" y="974"/>
      <point x="430" y="977" type="curve"/>
      <point x="403" y="913" type="line"/>
      <point x="448" y="910"/>
      <point x="462" y="901"/>
      <point x="462" y="886" type="curve" smooth="yes"/>
      <point x="462" y="866"/>
      <point x="447" y="860"/>
      <point x="426" y="856" type="curve"/>
    </contour>
    <contour>
      <point x="441" y="701" type="curve" smooth="yes"/>
      <point x="529" y="701"/>
      <point x="581" y="748"/>
      <point x="604" y="823" type="curve"/>
      <point x="533" y="823" type="line"/>
      <point x="519" y="792"/>
      <point x="497" y="770"/>
      <point x="454" y="770" type="curve" smooth="yes"/>
      <point x="411" y="770"/>
      <point x="399" y="792"/>
      <point x="397" y="823" type="curve"/>
      <point x="326" y="823" type="line"/>
      <point x="319" y="748"/>
      <point x="353" y="701"/>
    </contour>
  </outline>
</glyph>
<glyph name="brevetilde" format="1">
  <advance width="599"/>
  <outline>
    <contour>
      <point x="414" y="574" type="curve" smooth="yes"/>
      <point x="509" y="574"/>
      <point x="564" y="630"/>
      <point x="580" y="695" type="curve"/>
      <point x="507" y="695" type="line"/>
      <point x="496" y="670"/>
      <point x="473" y="647"/>
      <point x="429" y="647" type="curve" smooth="yes"/>
      <point x="385" y="647"/>
      <point x="371" y="670"/>
      <point x="371" y="695" type="curve"/>
      <point x="298" y="695" type="line"/>
      <point x="287" y="630"/>
      <point x="320" y="574"/>
    </contour>
    <contour>
      <point x="295" y="722" type="curve"/>
      <point x="363" y="722" type="line"/>
      <point x="374" y="748"/>
      <point x="388" y="759"/>
      <point x="405" y="759" type="curve" smooth="yes"/>
      <point x="432" y="759"/>
      <point x="446" y="722"/>
      <point x="499" y="722" type="curve" smooth="yes"/>
      <point x="544" y="722"/>
      <point x="590" y="757"/>
      <point x="616" y="839" type="curve"/>
      <point x="549" y="839" type="line"/>
      <point x="538" y="813"/>
      <point x="523" y="802"/>
      <point x="507" y="802" type="curve" smooth="yes"/>
      <point x="480" y="802"/>
      <point x="465" y="839"/>
      <point x="412" y="839" type="curve" smooth="yes"/>
      <point x="368" y="839"/>
      <point x="321" y="804"/>
    </contour>
  </outline>
</glyph>
<glyph name="bulletoperator.001" format="1">
  <advance width="306"/>
  <outline>
    <contour>
      <point x="390" y="474" type="curve" smooth="yes"/>
      <point x="308" y="474"/>
      <point x="252" y="404"/>
      <point x="252" y="334" type="curve" smooth="yes"/>
      <point x="252" y="274"/>
      <point x="292" y="228"/>
      <point x="352" y="228" type="curve" smooth="yes"/>
      <point x="434" y="228"/>
      <point x="490" y="298"/>
      <point x="490" y="368" type="curve" smooth="yes"/>
      <point x="490" y="428"/>
      <point x="450" y="474"/>
    </contour>
  </outline>
</glyph>
<glyph name="caron.alt" format="1">
  <advance width="599"/>
  <outline>
    <contour>
      <point x="433" y="548" type="line"/>
      <point x="489" y="700" type="line"/>
      <point x="505" y="772" type="line"/>
      <point x="405" y="772" type="line"/>
      <point x="366" y="548" type="line"/>
    </contour>
  </outline>
</glyph>
<glyph name="caroncmb.cap" format="1">
  <advance width="599"/>
  <outline>
    <contour>
      <point x="636" y="822" type="line"/>
      <point x="510" y="822" type="line"/>
      <point x="452" y="762" type="line"/>
      <point x="450" y="762" type="line"/>
      <point x="412" y="822" type="line"/>
      <point x="296" y="822" type="line"/>
      <point x="364" y="700" type="line"/>
      <point x="520" y="700" type="line"/>
    </contour>
  </outline>
</glyph>
<glyph name="caroncmb" format="1">
  <advance width="599"/>
  <outline>
    <contour>
      <point x="602" y="726" type="line"/>
      <point x="492" y="726" type="line"/>
      <point x="430" y="650" type="line"/>
      <point x="426" y="650" type="line"/>
      <point x="394" y="726" type="line"/>
      <point x="292" y="726" type="line"/>
      <point x="354" y="574" type="line"/>
      <point x="480" y="574" type="line"/>
    </contour>
  </outline>
</glyph>
<glyph name="cedillacmb.cap" format="1">
  <advance width="599"/>
  <outline>
    <contour>
      <point x="202" y="-76" type="line"/>
      <point x="240" y="-86"/>
      <point x="252" y="-99"/>
      <point x="252" y="-113" type="curve" smooth="yes"/>
      <point x="252" y="-142"/>
      <point x="213" y="-155"/>
      <point x="161" y="-160" type="curve"/>
      <point x="160" y="-222" type="line"/>
      <point x="267" y="-217"/>
      <point x="366" y="-182"/>
      <point x="366" y="-102" type="curve" smooth="yes"/>
      <point x="366" y="-70"/>
      <point x="347" y="-52"/>
      <point x="321" y="-42" type="curve"/>
      <point x="349" y="4" type="line"/>
      <point x="258" y="4" type="line"/>
    </contour>
  </outline>
</glyph>
<glyph name="check.001" format="1">
  <advance width="600"/>
  <outline>
    <contour>
      <point x="287" y="-3" type="line"/>
      <point x="426" y="289"/>
      <point x="592" y="483"/>
      <point x="748" y="605" type="curve"/>
      <point x="668" y="689" type="line"/>
      <point x="509" y="554"/>
      <point x="349" y="336"/>
      <point x="229" y="97" type="curve"/>
      <point x="225" y="97" type="line"/>
      <point x="209" y="179"/>
      <point x="187" y="263"/>
      <point x="151" y="344" type="curve"/>
      <point x="38" y="279" type="line"/>
      <point x="89" y="179"/>
      <point x="117" y="93"/>
      <point x="137" y="-20" type="curve"/>
    </contour>
  </outline>
</glyph>
<glyph name="check" format="1">
  <advance width="600"/>
  <outline>
    <contour>
      <point x="287" y="-3" type="line"/>
      <point x="368" y="289"/>
      <point x="496" y="483"/>
      <point x="627" y="605" type="curve"/>
      <point x="531" y="689" type="line"/>
      <point x="398" y="554"/>
      <point x="281" y="336"/>
      <point x="210" y="97" type="curve"/>
      <point x="206" y="97" type="line"/>
      <point x="173" y="179"/>
      <point x="134" y="263"/>
      <point x="82" y="344" type="curve"/>
      <point x="-18" y="279" type="line"/>
      <point x="54" y="179"/>
      <point x="98" y="93"/>
      <point x="141" y="-20" type="curve"/>
    </contour>
  </outline>
</glyph>
<glyph name="checkbox.001" format="1">
  <advance width="600"/>
  <outline>
    <contour>
      <point x="41" y="51" type="line"/>
      <point x="147" y="584" type="line"/>
      <point x="656" y="584" type="line"/>
      <point x="549" y="51" type="line"/>
    </contour>
    <contour>
      <point x="-32" y="-10" type="line"/>
      <point x="561" y="-10" type="line"/>
      <point x="643" y="67" type="line"/>
      <point x="765" y="675" type="line"/>
      <point x="182" y="675" type="line"/>
      <point x="91" y="608" type="line"/>
    </contour>
  </outline>
</glyph>
<glyph name="checkbox" format="1">
  <advance width="600"/>
  <outline>
    <contour>
      <point x="30" y="51" type="line"/>
      <point x="30" y="584" type="line"/>
      <point x="539" y="584" type="line"/>
      <point x="539" y="51" type="line"/>
    </contour>
    <contour>
      <point x="-30" y="-10" type="line"/>
      <point x="563" y="-10" type="line"/>
      <point x="630" y="67" type="line"/>
      <point x="630" y="675" type="line"/>
      <point x="47" y="675" type="line"/>
      <point x="-30" y="608" type="line"/>
    </contour>
  </outline>
</glyph>
<glyph name="checkedbox.001" format="1">
  <advance width="600"/>
  <outline>
    <contour>
      <point x="392" y="126" type="line"/>
      <point x="529" y="415"/>
      <point x="700" y="610"/>
      <point x="851" y="732" type="curve"/>
      <point x="772" y="816" type="line"/>
      <point x="616" y="681"/>
      <point x="447" y="464"/>
      <point x="330" y="226" type="curve"/>
      <point x="326" y="226" type="line"/>
      <point x="314" y="300"/>
      <point x="299" y="372"/>
      <point x="269" y="445" type="curve"/>
      <point x="156" y="380" type="line"/>
      <point x="200" y="288"/>
      <point x="225" y="211"/>
      <point x="242" y="109" type="curve"/>
    </contour>
    <contour>
      <point x="41" y="51" type="line"/>
      <point x="147" y="584" type="line"/>
      <point x="656" y="584" type="line"/>
      <point x="549" y="51" type="line"/>
    </contour>
    <contour>
      <point x="-32" y="-10" type="line"/>
      <point x="561" y="-10" type="line"/>
      <point x="643" y="67" type="line"/>
      <point x="765" y="675" type="line"/>
      <point x="182" y="675" type="line"/>
      <point x="91" y="608" type="line"/>
    </contour>
  </outline>
</glyph>
<glyph name="circumflexcmb" format="1">
  <advance width="599"/>
  <outline>
    <contour>
      <point x="256" y="574" type="line"/>
      <point x="366" y="574" type="line"/>
      <point x="428" y="650" type="line"/>
      <point x="432" y="650" type="line"/>
      <point x="464" y="574" type="line"/>
      <point x="566" y="574" type="line"/>
      <point x="504" y="726" type="line"/>
      <point x="378" y="726" type="line"/>
    </contour>
  </outline>
</glyph>
<glyph name="circumflexhoi" format="1">
  <advance width="600"/>
  <outline>
    <contour>
      <point x="272" y="574" type="line"/>
      <point x="368" y="574" type="line"/>
      <point x="426" y="638" type="line"/>
      <point x="430" y="638" type="line"/>
      <point x="462" y="574" type="line"/>
      <point x="558" y="574" type="line"/>
      <point x="504" y="704" type="line"/>
      <point x="378" y="704" type="line"/>
    </contour>
    <contour>
      <point x="567" y="628" type="line"/>
      <point x="645" y="638"/>
      <point x="708" y="661"/>
      <point x="708" y="735" type="curve" smooth="yes"/>
      <point x="708" y="775"/>
      <point x="673" y="801"/>
      <point x="571" y="804" type="curve"/>
      <point x="543" y="739" type="line"/>
      <point x="588" y="735"/>
      <point x="602" y="726"/>
      <point x="602" y="711" type="curve" smooth="yes"/>
      <point x="602" y="692"/>
      <point x="589" y="685"/>
      <point x="568" y="681" type="curve"/>
    </contour>
  </outline>
</glyph>
<glyph name="commaabovecmb" format="1">
  <advance width="599"/>
  <outline>
    <contour>
      <point x="373" y="541" type="line"/>
      <point x="461" y="571"/>
      <point x="504" y="629"/>
      <point x="504" y="696" type="curve" smooth="yes"/>
      <point x="504" y="735"/>
      <point x="486" y="757"/>
      <point x="449" y="757" type="curve" smooth="yes"/>
      <point x="414" y="757"/>
      <point x="381" y="729"/>
      <point x="381" y="688" type="curve" smooth="yes"/>
      <point x="381" y="661"/>
      <point x="400" y="644"/>
      <point x="426" y="644" type="curve" smooth="yes"/>
      <point x="441" y="644"/>
      <point x="457" y="652"/>
      <point x="469" y="661" type="curve"/>
      <point x="444" y="708" type="line"/>
      <point x="437" y="655" type="line"/>
      <point x="431" y="623"/>
      <point x="404" y="603"/>
      <point x="359" y="588" type="curve"/>
    </contour>
  </outline>
</glyph>
<glyph name="commabelowcmb.alt" format="1">
  <advance width="599"/>
  <outline>
    <contour>
      <point x="445" y="545" type="curve"/>
      <point x="486" y="602" type="line"/>
      <point x="461" y="609"/>
      <point x="451" y="618"/>
      <point x="451" y="632" type="curve" smooth="yes"/>
      <point x="451" y="659"/>
      <point x="489" y="668"/>
      <point x="540" y="673" type="curve"/>
      <point x="541" y="735" type="line"/>
      <point x="434" y="730"/>
      <point x="335" y="695"/>
      <point x="335" y="614" type="curve" smooth="yes"/>
      <point x="335" y="574"/>
      <point x="365" y="552"/>
    </contour>
  </outline>
</glyph>
<glyph name="darkshade" format="1">
  <advance width="600"/>
  <outline>
    <contour>
      <point x="0" y="-200" type="line"/>
      <point x="30" y="-200" type="line"/>
      <point x="0" y="-150" type="line"/>
    </contour>
    <contour>
      <point x="75" y="-200" type="line"/>
      <point x="105" y="-200" type="line"/>
      <point x="0" y="-25" type="line"/>
      <point x="0" y="-75" type="line"/>
    </contour>
    <contour>
      <point x="150" y="-200" type="line"/>
      <point x="180" y="-200" type="line"/>
      <point x="0" y="100" type="line"/>
      <point x="0" y="50" type="line"/>
    </contour>
    <contour>
      <point x="225" y="-200" type="line"/>
      <point x="255" y="-200" type="line"/>
      <point x="0" y="225" type="line"/>
      <point x="0" y="175" type="line"/>
    </contour>
    <contour>
      <point x="300" y="-200" type="line"/>
      <point x="330" y="-200" type="line"/>
      <point x="0" y="350" type="line"/>
      <point x="0" y="300" type="line"/>
    </contour>
    <contour>
      <point x="375" y="-200" type="line"/>
      <point x="405" y="-200" type="line"/>
      <point x="0" y="475" type="line"/>
      <point x="0" y="425" type="line"/>
    </contour>
    <contour>
      <point x="450" y="-200" type="line"/>
      <point x="480" y="-200" type="line"/>
      <point x="0" y="600" type="line"/>
      <point x="0" y="550" type="line"/>
    </contour>
    <contour>
      <point x="525" y="-200" type="line"/>
      <point x="555" y="-200" type="line"/>
      <point x="0" y="725" type="line"/>
      <point x="0" y="675" type="line"/>
    </contour>
    <contour>
      <point x="600" y="-200" type="line"/>
      <point x="600" y="-150" type="line"/>
      <point x="30" y="800" type="line"/>
      <point x="0" y="800" type="line"/>
    </contour>
    <contour>
      <point x="600" y="-75" type="line"/>
      <point x="600" y="-25" type="line"/>
      <point x="105" y="800" type="line"/>
      <point x="75" y="800" type="line"/>
    </contour>
    <contour>
      <point x="600" y="50" type="line"/>
      <point x="600" y="100" type="line"/>
      <point x="180" y="800" type="line"/>
      <point x="150" y="800" type="line"/>
    </contour>
    <contour>
      <point x="600" y="175" type="line"/>
      <point x="600" y="225" type="line"/>
      <point x="255" y="800" type="line"/>
      <point x="225" y="800" type="line"/>
    </contour>
    <contour>
      <point x="600" y="300" type="line"/>
      <point x="600" y="350" type="line"/>
      <point x="330" y="800" type="line"/>
      <point x="300" y="800" type="line"/>
    </contour>
    <contour>
      <point x="600" y="425" type="line"/>
      <point x="600" y="475" type="line"/>
      <point x="405" y="800" type="line"/>
      <point x="375" y="800" type="line"/>
    </contour>
    <contour>
      <point x="600" y="550" type="line"/>
      <point x="600" y="600" type="line"/>
      <point x="480" y="800" type="line"/>
      <point x="450" y="800" type="line"/>
    </contour>
    <contour>
      <point x="600" y="675" type="line"/>
      <point x="600" y="725" type="line"/>
      <point x="555" y="800" type="line"/>
      <point x="525" y="800" type="line"/>
    </contour>
  </outline>
</glyph>
<glyph name="dbldnhorzbxd.001" format="1">
  <advance width="600"/>
  <outline>
    <contour>
      <point x="-58" y="79" type="line"/>
      <point x="95" y="79" type="line"/>
      <point x="0" y="-400" type="line"/>
      <point x="147" y="-400" type="line"/>
      <point x="272" y="226" type="line"/>
      <point x="-28" y="226" type="line"/>
    </contour>
    <contour>
      <point x="294" y="-400" type="line"/>
      <point x="441" y="-400" type="line"/>
      <point x="536" y="79" type="line"/>
      <point x="689" y="79" type="line"/>
      <point x="719" y="226" type="line"/>
      <point x="419" y="226" type="line"/>
    </contour>
    <contour>
      <point x="1" y="373" type="line"/>
      <point x="748" y="373" type="line"/>
      <point x="778" y="520" type="line"/>
      <point x="31" y="520" type="line"/>
    </contour>
  </outline>
</glyph>
<glyph name="dbldnrightbxd.001" format="1">
  <advance width="600"/>
  <outline>
    <contour>
      <point x="0" y="-400" type="line"/>
      <point x="147" y="-400" type="line"/>
      <point x="301" y="373" type="line"/>
      <point x="748" y="373" type="line"/>
      <point x="778" y="520" type="line"/>
      <point x="184" y="520" type="line"/>
    </contour>
    <contour>
      <point x="294" y="-400" type="line"/>
      <point x="441" y="-400" type="line"/>
      <point x="536" y="79" type="line"/>
      <point x="689" y="79" type="line"/>
      <point x="719" y="226" type="line"/>
      <point x="419" y="226" type="line"/>
    </contour>
  </outline>
</glyph>
<glyph name="dblgravecmb" format="1">
  <advance width="599"/>
  <outline>
    <contour>
      <point x="336" y="726" type="line"/>
      <point x="210" y="726" type="line"/>
      <point x="276" y="574" type="line"/>
      <point x="372" y="574" type="line"/>
    </contour>
    <contour>
      <point x="506" y="726" type="line"/>
      <point x="380" y="726" type="line"/>
      <point x="446" y="574" type="line"/>
      <point x="542" y="574" type="line"/>
    </contour>
  </outline>
</glyph>
<glyph name="dbluphorzbxd.001" format="1">
  <advance width="600"/>
  <outline>
    <contour>
      <point x="1" y="373" type="line"/>
      <point x="301" y="373" type="line"/>
      <point x="426" y="1000" type="line"/>
      <point x="279" y="1000" type="line"/>
      <point x="184" y="520" type="line"/>
      <point x="31" y="520" type="line"/>
    </contour>
    <contour>
      <point x="448" y="373" type="line"/>
      <point x="748" y="373" type="line"/>
      <point x="778" y="520" type="line"/>
      <point x="625" y="520" type="line"/>
      <point x="720" y="1000" type="line"/>
      <point x="573" y="1000" type="line"/>
    </contour>
    <contour>
      <point x="-58" y="79" type="line"/>
      <point x="689" y="79" type="line"/>
      <point x="719" y="226" type="line"/>
      <point x="-28" y="226" type="line"/>
    </contour>
  </outline>
</glyph>
<glyph name="dblvertbxd.001" format="1">
  <advance width="600"/>
  <outline>
    <contour>
      <point x="0" y="-400" type="line"/>
      <point x="147" y="-400" type="line"/>
      <point x="426" y="1000" type="line"/>
      <point x="279" y="1000" type="line"/>
    </contour>
    <contour>
      <point x="294" y="-400" type="line"/>
      <point x="441" y="-400" type="line"/>
      <point x="720" y="1000" type="line"/>
      <point x="573" y="1000" type="line"/>
    </contour>
  </outline>
</glyph>
<glyph name="dblvertrightbxd.001" format="1">
  <advance width="600"/>
  <outline>
    <contour>
      <point x="0" y="-400" type="line"/>
      <point x="147" y="-400" type="line"/>
      <point x="426" y="1000" type="line"/>
      <point x="279" y="1000" type="line"/>
    </contour>
    <contour>
      <point x="448" y="373" type="line"/>
      <point x="748" y="373" type="line"/>
      <point x="778" y="520" type="line"/>
      <point x="625" y="520" type="line"/>
      <point x="720" y="1000" type="line"/>
      <point x="573" y="1000" type="line"/>
    </contour>
    <contour>
      <point x="294" y="-400" type="line"/>
      <point x="441" y="-400" type="line"/>
      <point x="536" y="79" type="line"/>
      <point x="689" y="79" type="line"/>
      <point x="719" y="226" type="line"/>
      <point x="419" y="226" type="line"/>
    </contour>
  </outline>
</glyph>
<glyph name="diamondblack.001" format="1">
  <advance width="600"/>
  <outline>
    <contour>
      <point x="319" y="94" type="line"/>
      <point x="521" y="262" type="line"/>
      <point x="386" y="431" type="line"/>
      <point x="184" y="262" type="line"/>
    </contour>
  </outline>
</glyph>
<glyph name="dieresiscmb" format="1">
  <advance width="599"/>
  <outline>
    <contour>
      <point x="316" y="566" type="curve" smooth="yes"/>
      <point x="364" y="566"/>
      <point x="400" y="602"/>
      <point x="400" y="648" type="curve" smooth="yes"/>
      <point x="400" y="689"/>
      <point x="371" y="714"/>
      <point x="334" y="714" type="curve" smooth="yes"/>
      <point x="286" y="714"/>
      <point x="250" y="675"/>
      <point x="250" y="632" type="curve" smooth="yes"/>
      <point x="250" y="589"/>
      <point x="279" y="566"/>
    </contour>
    <contour>
      <point x="516" y="566" type="curve" smooth="yes"/>
      <point x="564" y="566"/>
      <point x="600" y="602"/>
      <point x="600" y="648" type="curve" smooth="yes"/>
      <point x="600" y="689"/>
      <point x="571" y="714"/>
      <point x="534" y="714" type="curve" smooth="yes"/>
      <point x="486" y="714"/>
      <point x="450" y="675"/>
      <point x="450" y="632" type="curve" smooth="yes"/>
      <point x="450" y="589"/>
      <point x="479" y="566"/>
    </contour>
  </outline>
</glyph>
<glyph name="dieresisgrave" format="1">
  <advance width="600"/>
  <outline>
    <contour>
      <point x="457" y="852" type="line"/>
      <point x="323" y="852" type="line"/>
      <point x="418" y="740" type="line"/>
      <point x="518" y="740" type="line"/>
    </contour>
    <contour>
      <point x="514" y="568" type="curve" smooth="yes"/>
      <point x="557" y="568"/>
      <point x="593" y="602"/>
      <point x="593" y="643" type="curve" smooth="yes"/>
      <point x="593" y="673"/>
      <point x="573" y="697"/>
      <point x="540" y="697" type="curve" smooth="yes"/>
      <point x="497" y="697"/>
      <point x="461" y="662"/>
      <point x="461" y="621" type="curve" smooth="yes"/>
      <point x="461" y="591"/>
      <point x="482" y="568"/>
    </contour>
    <contour>
      <point x="312" y="568" type="curve" smooth="yes"/>
      <point x="355" y="568"/>
      <point x="391" y="602"/>
      <point x="391" y="643" type="curve" smooth="yes"/>
      <point x="391" y="673"/>
      <point x="371" y="697"/>
      <point x="338" y="697" type="curve" smooth="yes"/>
      <point x="295" y="697"/>
      <point x="259" y="662"/>
      <point x="259" y="621" type="curve" smooth="yes"/>
      <point x="259" y="591"/>
      <point x="279" y="568"/>
    </contour>
  </outline>
</glyph>
<glyph name="divide.001" format="1">
  <advance width="520"/>
  <outline>
    <contour>
      <point x="272" y="430" type="curve" smooth="yes"/>
      <point x="320" y="430"/>
      <point x="358" y="464"/>
      <point x="358" y="512" type="curve" smooth="yes"/>
      <point x="358" y="558"/>
      <point x="320" y="592"/>
      <point x="272" y="592" type="curve" smooth="yes"/>
      <point x="224" y="592"/>
      <point x="186" y="558"/>
      <point x="186" y="512" type="curve" smooth="yes"/>
      <point x="186" y="464"/>
      <point x="224" y="430"/>
    </contour>
    <contour>
      <point x="272" y="68" type="curve" smooth="yes"/>
      <point x="320" y="68"/>
      <point x="358" y="100"/>
      <point x="358" y="148" type="curve" smooth="yes"/>
      <point x="358" y="194"/>
      <point x="320" y="230"/>
      <point x="272" y="230" type="curve" smooth="yes"/>
      <point x="224" y="230"/>
      <point x="186" y="194"/>
      <point x="186" y="148" type="curve" smooth="yes"/>
      <point x="186" y="100"/>
      <point x="224" y="68"/>
    </contour>
    <contour>
      <point x="496" y="274" type="line"/>
      <point x="496" y="386" type="line"/>
      <point x="48" y="386" type="line"/>
      <point x="48" y="274" type="line"/>
    </contour>
  </outline>
</glyph>
<glyph name="dndblhorzsngbxd.001" format="1">
  <advance width="600"/>
  <outline>
    <contour>
      <point x="-28" y="226" type="line"/>
      <point x="125" y="226" type="line"/>
      <point x="0" y="-400" type="line"/>
      <point x="147" y="-400" type="line"/>
      <point x="272" y="226" type="line"/>
      <point x="419" y="226" type="line"/>
      <point x="294" y="-400" type="line"/>
      <point x="441" y="-400" type="line"/>
      <point x="566" y="226" type="line"/>
      <point x="719" y="226" type="line"/>
      <point x="748" y="373" type="line"/>
      <point x="1" y="373" type="line"/>
    </contour>
  </outline>
</glyph>
<glyph name="dndblleftsngbxd.001" format="1">
  <advance width="600"/>
  <outline>
    <contour>
      <point x="294" y="-400" type="line"/>
      <point x="441" y="-400" type="line"/>
      <point x="595" y="373" type="line"/>
      <point x="1" y="373" type="line"/>
      <point x="-28" y="226" type="line"/>
      <point x="125" y="226" type="line"/>
      <point x="0" y="-400" type="line"/>
      <point x="147" y="-400" type="line"/>
      <point x="272" y="226" type="line"/>
      <point x="419" y="226" type="line"/>
    </contour>
  </outline>
</glyph>
<glyph name="dndblrightsngbxd.001" format="1">
  <advance width="600"/>
  <outline>
    <contour>
      <point x="0" y="-400" type="line"/>
      <point x="147" y="-400" type="line"/>
      <point x="272" y="226" type="line"/>
      <point x="419" y="226" type="line"/>
      <point x="294" y="-400" type="line"/>
      <point x="441" y="-400" type="line"/>
      <point x="566" y="226" type="line"/>
      <point x="719" y="226" type="line"/>
      <point x="748" y="373" type="line"/>
      <point x="301" y="373" type="line"/>
      <point x="154" y="373" type="line"/>
    </contour>
  </outline>
</glyph>
<glyph name="dnfiveeighthsblock.001" format="1">
  <advance width="600"/>
  <outline>
    <contour>
      <point x="-40" y="-200" type="line"/>
      <point x="560" y="-200" type="line"/>
      <point x="685" y="425" type="line"/>
      <point x="85" y="425" type="line"/>
    </contour>
  </outline>
</glyph>
<glyph name="dnheavyhorzlightbxd.001" format="1">
  <advance width="600"/>
  <outline>
    <contour>
      <point x="-28" y="226" type="line"/>
      <point x="198" y="226" type="line"/>
      <point x="73" y="-400" type="line"/>
      <point x="367" y="-400" type="line"/>
      <point x="492" y="226" type="line"/>
      <point x="719" y="226" type="line"/>
      <point x="748" y="373" type="line"/>
      <point x="1" y="373" type="line"/>
    </contour>
  </outline>
</glyph>
<glyph name="dnheavyleftlightbxd.001" format="1">
  <advance width="599"/>
  <outline>
    <contour>
      <point x="-28" y="226" type="line"/>
      <point x="198" y="226" type="line"/>
      <point x="73" y="-400" type="line"/>
      <point x="367" y="-400" type="line"/>
      <point x="522" y="373" type="line"/>
      <point x="1" y="373" type="line"/>
    </contour>
  </outline>
</glyph>
<glyph name="dnheavyleftuplightbxd.001" format="1">
  <advance width="600"/>
  <outline>
    <contour>
      <point x="-28" y="226" type="line"/>
      <point x="198" y="226" type="line"/>
      <point x="73" y="-400" type="line"/>
      <point x="367" y="-400" type="line"/>
      <point x="522" y="373" type="line"/>
      <point x="448" y="373" type="line"/>
      <point x="573" y="1000" type="line"/>
      <point x="426" y="1000" type="line"/>
      <point x="301" y="373" type="line"/>
      <point x="1" y="373" type="line"/>
    </contour>
  </outline>
</glyph>
<glyph name="dnheavyrightuplightbxd.001" format="1">
  <advance width="599"/>
  <outline>
    <contour>
      <point x="73" y="-400" type="line"/>
      <point x="367" y="-400" type="line"/>
      <point x="492" y="226" type="line"/>
      <point x="719" y="226" type="line"/>
      <point x="748" y="373" type="line"/>
      <point x="448" y="373" type="line"/>
      <point x="573" y="1000" type="line"/>
      <point x="426" y="1000" type="line"/>
      <point x="301" y="373" type="line"/>
      <point x="228" y="373" type="line"/>
    </contour>
  </outline>
</glyph>
<glyph name="dnlightleftheavybxd.001" format="1">
  <advance width="599"/>
  <outline>
    <contour>
      <point x="-43" y="153" type="line"/>
      <point x="257" y="153" type="line"/>
      <point x="147" y="-400" type="line"/>
      <point x="294" y="-400" type="line"/>
      <point x="463" y="447" type="line"/>
      <point x="16" y="447" type="line"/>
    </contour>
  </outline>
</glyph>
<glyph name="dnlightrightheavybxd.001" format="1">
  <advance width="600"/>
  <outline>
    <contour>
      <point x="147" y="-400" type="line"/>
      <point x="294" y="-400" type="line"/>
      <point x="405" y="153" type="line"/>
      <point x="705" y="153" type="line"/>
      <point x="763" y="447" type="line"/>
      <point x="316" y="447" type="line"/>
    </contour>
  </outline>
</glyph>
<glyph name="dnlightrightupheavybxd.001" format="1">
  <advance width="600"/>
  <outline>
    <contour>
      <point x="184" y="153" type="line"/>
      <point x="258" y="153" type="line"/>
      <point x="147" y="-400" type="line"/>
      <point x="294" y="-400" type="line"/>
      <point x="405" y="153" type="line"/>
      <point x="705" y="153" type="line"/>
      <point x="763" y="447" type="line"/>
      <point x="537" y="447" type="line"/>
      <point x="647" y="1000" type="line"/>
      <point x="353" y="1000" type="line"/>
    </contour>
  </outline>
</glyph>
<glyph name="dnlightuphorzheavybxd.001" format="1">
  <advance width="600"/>
  <outline>
    <contour>
      <point x="-43" y="153" type="line"/>
      <point x="257" y="153" type="line"/>
      <point x="147" y="-400" type="line"/>
      <point x="294" y="-400" type="line"/>
      <point x="404" y="153" type="line"/>
      <point x="704" y="153" type="line"/>
      <point x="763" y="447" type="line"/>
      <point x="536" y="447" type="line"/>
      <point x="647" y="1000" type="line"/>
      <point x="353" y="1000" type="line"/>
      <point x="242" y="447" type="line"/>
      <point x="16" y="447" type="line"/>
    </contour>
  </outline>
</glyph>
<glyph name="dnrightquadrant.001" format="1">
  <advance width="599"/>
  <outline>
    <contour>
      <point x="260" y="-200" type="line"/>
      <point x="560" y="-200" type="line"/>
      <point x="660" y="300" type="line"/>
      <point x="360" y="300" type="line"/>
    </contour>
  </outline>
</glyph>
<glyph name="dnsngleftdblbxd.001" format="1">
  <advance width="599"/>
  <outline>
    <contour>
      <point x="1" y="373" type="line"/>
      <point x="301" y="373" type="line"/>
      <point x="272" y="226" type="line"/>
      <point x="-28" y="226" type="line"/>
      <point x="-58" y="79" type="line"/>
      <point x="242" y="79" type="line"/>
      <point x="147" y="-400" type="line"/>
      <point x="294" y="-400" type="line"/>
      <point x="478" y="520" type="line"/>
      <point x="31" y="520" type="line"/>
    </contour>
  </outline>
</glyph>
<glyph name="dnthreequartersblock.001" format="1">
  <advance width="600"/>
  <outline>
    <contour>
      <point x="-40" y="-200" type="line"/>
      <point x="560" y="-200" type="line"/>
      <point x="710" y="550" type="line"/>
      <point x="110" y="550" type="line"/>
    </contour>
  </outline>
</glyph>
<glyph name="dotaccentcmb.cap" format="1">
  <advance width="599"/>
  <outline>
    <contour>
      <point x="448" y="698" type="curve" smooth="yes"/>
      <point x="502" y="698"/>
      <point x="544" y="736"/>
      <point x="544" y="788" type="curve" smooth="yes"/>
      <point x="544" y="836"/>
      <point x="502" y="862"/>
      <point x="460" y="862" type="curve" smooth="yes"/>
      <point x="406" y="862"/>
      <point x="364" y="820"/>
      <point x="364" y="772" type="curve" smooth="yes"/>
      <point x="364" y="722"/>
      <point x="406" y="698"/>
    </contour>
  </outline>
</glyph>
<glyph name="dotbelowcmb" format="1">
  <advance width="600"/>
  <outline>
    <contour>
      <point x="248" y="-258" type="curve" smooth="yes"/>
      <point x="316" y="-258"/>
      <point x="372" y="-212"/>
      <point x="372" y="-147" type="curve" smooth="yes"/>
      <point x="372" y="-100"/>
      <point x="339" y="-68"/>
      <point x="286" y="-68" type="curve" smooth="yes"/>
      <point x="218" y="-68"/>
      <point x="162" y="-116"/>
      <point x="162" y="-180" type="curve" smooth="yes"/>
      <point x="162" y="-227"/>
      <point x="196" y="-258"/>
    </contour>
  </outline>
</glyph>
<glyph name="eighthnote.001" format="1">
  <advance width="599"/>
  <outline>
    <contour>
      <point x="59" y="45" type="curve" smooth="yes"/>
      <point x="59" y="-7"/>
      <point x="107" y="-29"/>
      <point x="157" y="-29" type="curve" smooth="yes"/>
      <point x="281" y="-29"/>
      <point x="373" y="42"/>
      <point x="400" y="176" type="curve" smooth="yes"/>
      <point x="471" y="529" type="line"/>
      <point x="525" y="510"/>
      <point x="553" y="460"/>
      <point x="553" y="410" type="curve" smooth="yes"/>
      <point x="553" y="352"/>
      <point x="534" y="327"/>
      <point x="518" y="296" type="curve"/>
      <point x="565" y="276" type="line"/>
      <point x="604" y="318"/>
      <point x="652" y="387"/>
      <point x="652" y="465" type="curve" smooth="yes"/>
      <point x="652" y="525"/>
      <point x="625" y="578"/>
      <point x="560" y="629" type="curve" smooth="yes"/>
      <point x="517" y="663"/>
      <point x="508" y="671"/>
      <point x="501" y="694" type="curve"/>
      <point x="418" y="694" type="line"/>
      <point x="315" y="181" type="line"/>
      <point x="308" y="187"/>
      <point x="285" y="193"/>
      <point x="259" y="193" type="curve" smooth="yes"/>
      <point x="155" y="193"/>
      <point x="59" y="123"/>
    </contour>
  </outline>
</glyph>
<glyph name="eighthnote" format="1">
  <advance width="599"/>
  <outline>
    <contour>
      <point x="49" y="59" type="curve" smooth="yes"/>
      <point x="49" y="-3"/>
      <point x="107" y="-29"/>
      <point x="163" y="-29" type="curve" smooth="yes"/>
      <point x="287" y="-29"/>
      <point x="365" y="42"/>
      <point x="365" y="176" type="curve" smooth="yes"/>
      <point x="365" y="529" type="line"/>
      <point x="433" y="506"/>
      <point x="472" y="447"/>
      <point x="472" y="388" type="curve" smooth="yes"/>
      <point x="472" y="352"/>
      <point x="468" y="327"/>
      <point x="458" y="296" type="curve"/>
      <point x="509" y="276" type="line"/>
      <point x="535" y="311"/>
      <point x="562" y="369"/>
      <point x="562" y="426" type="curve" smooth="yes"/>
      <point x="562" y="507"/>
      <point x="529" y="565"/>
      <point x="434" y="629" type="curve" smooth="yes"/>
      <point x="384" y="663"/>
      <point x="374" y="671"/>
      <point x="362" y="694" type="curve"/>
      <point x="279" y="694" type="line"/>
      <point x="279" y="181" type="line"/>
      <point x="271" y="187"/>
      <point x="246" y="193"/>
      <point x="220" y="193" type="curve" smooth="yes"/>
      <point x="126" y="193"/>
      <point x="49" y="132"/>
    </contour>
  </outline>
</glyph>
<glyph name="equal.001" format="1">
  <advance width="520"/>
  <outline>
    <contour>
      <point x="496" y="394" type="line"/>
      <point x="496" y="506" type="line"/>
      <point x="48" y="506" type="line"/>
      <point x="48" y="394" type="line"/>
    </contour>
    <contour>
      <point x="496" y="154" type="line"/>
      <point x="496" y="266" type="line"/>
      <point x="48" y="266" type="line"/>
      <point x="48" y="154" type="line"/>
    </contour>
  </outline>
</glyph>
<glyph name="ereversed" format="1">
  <advance width="599"/>
  <outline>
    <contour>
      <point x="603" y="298" type="curve" smooth="yes"/>
      <point x="603" y="430"/>
      <point x="513" y="510"/>
      <point x="400" y="510" type="curve" smooth="yes"/>
      <point x="240" y="510"/>
      <point x="133" y="404"/>
      <point x="106" y="270" type="curve" smooth="yes"/>
      <point x="100" y="242"/>
      <point x="99" y="214"/>
      <point x="99" y="202" type="curve"/>
      <point x="426" y="202" type="line"/>
      <point x="395" y="132"/>
      <point x="338" y="108"/>
      <point x="270" y="108" type="curve" smooth="yes"/>
      <point x="227" y="108"/>
      <point x="192" y="119"/>
      <point x="152" y="140" type="curve"/>
      <point x="81" y="46" type="line"/>
      <point x="132" y="9"/>
      <point x="203" y="-12"/>
      <point x="267" y="-12" type="curve" smooth="yes"/>
      <point x="446" y="-12"/>
      <point x="603" y="106"/>
    </contour>
    <contour>
      <point x="256" y="306" type="line"/>
      <point x="266" y="355"/>
      <point x="305" y="390"/>
      <point x="367" y="390" type="curve" smooth="yes"/>
      <point x="417" y="390"/>
      <point x="449" y="364"/>
      <point x="448" y="306" type="curve"/>
    </contour>
  </outline>
</glyph>
<glyph name="fisheye.001" format="1">
  <advance width="599"/>
  <outline>
    <contour>
      <point x="338" y="191" type="curve" smooth="yes"/>
      <point x="382" y="191"/>
      <point x="422" y="229"/>
      <point x="422" y="275" type="curve" smooth="yes"/>
      <point x="422" y="308"/>
      <point x="400" y="333"/>
      <point x="366" y="333" type="curve" smooth="yes"/>
      <point x="322" y="333"/>
      <point x="283" y="295"/>
      <point x="283" y="249" type="curve" smooth="yes"/>
      <point x="283" y="216"/>
      <point x="304" y="191"/>
    </contour>
    <contour>
      <point x="311" y="55" type="curve" smooth="yes"/>
      <point x="444" y="55"/>
      <point x="562" y="160"/>
      <point x="562" y="300" type="curve" smooth="yes"/>
      <point x="562" y="400"/>
      <point x="495" y="470"/>
      <point x="394" y="470" type="curve" smooth="yes"/>
      <point x="261" y="470"/>
      <point x="142" y="364"/>
      <point x="142" y="225" type="curve" smooth="yes"/>
      <point x="142" y="125"/>
      <point x="209" y="55"/>
    </contour>
    <contour>
      <point x="326" y="133" type="curve" smooth="yes"/>
      <point x="266" y="133"/>
      <point x="226" y="176"/>
      <point x="226" y="238" type="curve" smooth="yes"/>
      <point x="226" y="325"/>
      <point x="298" y="391"/>
      <point x="378" y="391" type="curve" smooth="yes"/>
      <point x="438" y="391"/>
      <point x="478" y="348"/>
      <point x="478" y="286" type="curve" smooth="yes"/>
      <point x="478" y="199"/>
      <point x="406" y="133"/>
    </contour>
  </outline>
</glyph>
<glyph name="four.onum" format="1">
  <advance width="599"/>
  <outline>
    <contour>
      <point x="50" y="81" type="line"/>
      <point x="576" y="81" type="line"/>
      <point x="600" y="200" type="line"/>
      <point x="224" y="200" type="line"/>
      <point x="337" y="336" type="line" smooth="yes"/>
      <point x="367" y="373"/>
      <point x="399" y="411"/>
      <point x="427" y="448" type="curve"/>
      <point x="431" y="448" type="line"/>
      <point x="421" y="406"/>
      <point x="405" y="345"/>
      <point x="397" y="304" type="curve" smooth="yes"/>
      <point x="320" y="-79" type="line"/>
      <point x="467" y="-79" type="line"/>
      <point x="599" y="579" type="line"/>
      <point x="406" y="579" type="line"/>
      <point x="72" y="190" type="line"/>
    </contour>
  </outline>
</glyph>
<glyph name="g.supa" format="1">
  <advance width="599"/>
  <outline>
    <contour>
      <point x="233" y="244" type="curve"/>
      <point x="182" y="173" type="line"/>
      <point x="216" y="147"/>
      <point x="268" y="136"/>
      <point x="304" y="136" type="curve" smooth="yes"/>
      <point x="417" y="136"/>
      <point x="491" y="182"/>
      <point x="508" y="268" type="curve" smooth="yes"/>
      <point x="573" y="590" type="line"/>
      <point x="484" y="590" type="line"/>
      <point x="470" y="559" type="line"/>
      <point x="468" y="559" type="line"/>
      <point x="449" y="586"/>
      <point x="421" y="598"/>
      <point x="389" y="598" type="curve" smooth="yes"/>
      <point x="310" y="598"/>
      <point x="209" y="516"/>
      <point x="209" y="397" type="curve" smooth="yes"/>
      <point x="209" y="323"/>
      <point x="250" y="270"/>
      <point x="320" y="270" type="curve" smooth="yes"/>
      <point x="350" y="270"/>
      <point x="382" y="281"/>
      <point x="407" y="300" type="curve"/>
      <point x="398" y="265" type="line" smooth="yes"/>
      <point x="391" y="240"/>
      <point x="366" y="221"/>
      <point x="320" y="221" type="curve" smooth="yes"/>
      <point x="294" y="221"/>
      <point x="260" y="228"/>
    </contour>
    <contour>
      <point x="367" y="357" type="curve" smooth="yes"/>
      <point x="340" y="357"/>
      <point x="323" y="377"/>
      <point x="323" y="412" type="curve" smooth="yes"/>
      <point x="323" y="475"/>
      <point x="362" y="508"/>
      <point x="395" y="508" type="curve" smooth="yes"/>
      <point x="411" y="508"/>
      <point x="431" y="504"/>
      <point x="443" y="491" type="curve"/>
      <point x="421" y="384" type="line"/>
      <point x="403" y="364"/>
      <point x="386" y="357"/>
    </contour>
  </outline>
</glyph>
<glyph name="greater.001" format="1">
  <advance width="520"/>
  <outline>
    <contour>
      <point x="48" y="98" type="line"/>
      <point x="498" y="276" type="line"/>
      <point x="498" y="386" type="line"/>
      <point x="48" y="564" type="line"/>
      <point x="48" y="434" type="line"/>
      <point x="206" y="380" type="line"/>
      <point x="336" y="334" type="line"/>
      <point x="336" y="330" type="line"/>
      <point x="206" y="284" type="line"/>
      <point x="48" y="230" type="line"/>
    </contour>
  </outline>
</glyph>
<glyph name="greater.002" format="1">
  <advance width="600"/>
  <outline>
    <contour>
      <point x="563" y="386" type="line"/>
      <point x="224" y="636" type="line"/>
      <point x="195" y="494" type="line"/>
      <point x="423" y="334" type="line"/>
      <point x="422" y="330" type="line"/>
      <point x="130" y="170" type="line"/>
      <point x="102" y="28" type="line"/>
      <point x="541" y="278" type="line"/>
    </contour>
  </outline>
</glyph>
<glyph name="greaterequal.001" format="1">
  <advance width="520"/>
  <outline>
    <contour>
      <point x="496" y="0" type="line"/>
      <point x="496" y="112" type="line"/>
      <point x="48" y="112" type="line"/>
      <point x="48" y="0" type="line"/>
    </contour>
    <contour>
      <point x="48" y="152" type="line"/>
      <point x="498" y="294" type="line"/>
      <point x="498" y="424" type="line"/>
      <point x="48" y="564" type="line"/>
      <point x="48" y="434" type="line"/>
      <point x="204" y="392" type="line"/>
      <point x="338" y="360" type="line"/>
      <point x="338" y="356" type="line"/>
      <point x="204" y="324" type="line"/>
      <point x="48" y="284" type="line"/>
    </contour>
  </outline>
</glyph>
<glyph name="greaterequal.002" format="1">
  <advance width="599"/>
  <outline>
    <contour>
      <point x="67" y="0" type="line"/>
      <point x="532" y="0" type="line"/>
      <point x="554" y="111" type="line"/>
      <point x="89" y="111" type="line"/>
    </contour>
    <contour>
      <point x="617" y="424" type="line"/>
      <point x="180" y="564" type="line"/>
      <point x="154" y="435" type="line"/>
      <point x="312" y="393" type="line"/>
      <point x="445" y="361" type="line"/>
      <point x="444" y="357" type="line"/>
      <point x="298" y="325" type="line"/>
      <point x="124" y="283" type="line"/>
      <point x="98" y="154" type="line"/>
      <point x="591" y="294" type="line"/>
    </contour>
  </outline>
</glyph>
<glyph name="heavydbldashhorzbxd.001" format="1">
  <advance width="600"/>
  <outline>
    <contour>
      <point x="106" y="153" type="line"/>
      <point x="256" y="153" type="line"/>
      <point x="315" y="447" type="line"/>
      <point x="165" y="447" type="line"/>
    </contour>
    <contour>
      <point x="406" y="153" type="line"/>
      <point x="556" y="153" type="line"/>
      <point x="615" y="447" type="line"/>
      <point x="465" y="447" type="line"/>
    </contour>
  </outline>
</glyph>
<glyph name="heavydbldashvertbxd.001" format="1">
  <advance width="599"/>
  <outline>
    <contour>
      <point x="138" y="-75" type="line"/>
      <point x="432" y="-75" type="line"/>
      <point x="482" y="175" type="line"/>
      <point x="188" y="175" type="line"/>
    </contour>
    <contour>
      <point x="238" y="425" type="line"/>
      <point x="532" y="425" type="line"/>
      <point x="582" y="675" type="line"/>
      <point x="288" y="675" type="line"/>
    </contour>
  </outline>
</glyph>
<glyph name="heavydbldashvertbxd" format="1">
  <advance width="600"/>
  <outline>
    <contour>
      <point x="140" y="-75" type="line"/>
      <point x="460" y="-75" type="line"/>
      <point x="460" y="175" type="line"/>
      <point x="140" y="175" type="line"/>
    </contour>
    <contour>
      <point x="140" y="425" type="line"/>
      <point x="460" y="425" type="line"/>
      <point x="460" y="675" type="line"/>
      <point x="140" y="675" type="line"/>
    </contour>
  </outline>
</glyph>
<glyph name="heavydnbxd.001" format="1">
  <advance width="599"/>
  <outline>
    <contour>
      <point x="73" y="-400" type="line"/>
      <point x="367" y="-400" type="line"/>
      <point x="522" y="373" type="line"/>
      <point x="228" y="373" type="line"/>
    </contour>
  </outline>
</glyph>
<glyph name="heavydnhorzbxd.001" format="1">
  <advance width="600"/>
  <outline>
    <contour>
      <point x="-43" y="153" type="line"/>
      <point x="184" y="153" type="line"/>
      <point x="73" y="-400" type="line"/>
      <point x="367" y="-400" type="line"/>
      <point x="478" y="153" type="line"/>
      <point x="704" y="153" type="line"/>
      <point x="763" y="447" type="line"/>
      <point x="16" y="447" type="line"/>
    </contour>
  </outline>
</glyph>
<glyph name="heavyleftbxd.001" format="1">
  <advance width="599"/>
  <outline>
    <contour>
      <point x="-43" y="153" type="line"/>
      <point x="404" y="153" type="line"/>
      <point x="463" y="447" type="line"/>
      <point x="16" y="447" type="line"/>
    </contour>
  </outline>
</glyph>
<glyph name="heavyleftlightrightbxd.001" format="1">
  <advance width="600"/>
  <outline>
    <contour>
      <point x="-43" y="153" type="line"/>
      <point x="404" y="153" type="line"/>
      <point x="419" y="226" type="line"/>
      <point x="719" y="226" type="line"/>
      <point x="748" y="373" type="line"/>
      <point x="448" y="373" type="line"/>
      <point x="463" y="447" type="line"/>
      <point x="16" y="447" type="line"/>
    </contour>
  </outline>
</glyph>
<glyph name="heavyquaddashhorzbxd.001" format="1">
  <advance width="600"/>
  <outline>
    <contour>
      <point x="49" y="153" type="line"/>
      <point x="162" y="153" type="line"/>
      <point x="221" y="447" type="line"/>
      <point x="108" y="447" type="line"/>
    </contour>
    <contour>
      <point x="199" y="153" type="line"/>
      <point x="312" y="153" type="line"/>
      <point x="371" y="447" type="line"/>
      <point x="258" y="447" type="line"/>
    </contour>
    <contour>
      <point x="349" y="153" type="line"/>
      <point x="462" y="153" type="line"/>
      <point x="521" y="447" type="line"/>
      <point x="408" y="447" type="line"/>
    </contour>
    <contour>
      <point x="499" y="153" type="line"/>
      <point x="612" y="153" type="line"/>
      <point x="671" y="447" type="line"/>
      <point x="558" y="447" type="line"/>
    </contour>
  </outline>
</glyph>
<glyph name="heavyquaddashvertbxd.001" format="1">
  <advance width="599"/>
  <outline>
    <contour>
      <point x="119" y="-169" type="line"/>
      <point x="413" y="-169" type="line"/>
      <point x="451" y="19" type="line"/>
      <point x="157" y="19" type="line"/>
    </contour>
    <contour>
      <point x="169" y="81" type="line"/>
      <point x="463" y="81" type="line"/>
      <point x="501" y="269" type="line"/>
      <point x="207" y="269" type="line"/>
    </contour>
    <contour>
      <point x="219" y="331" type="line"/>
      <point x="513" y="331" type="line"/>
      <point x="550" y="519" type="line"/>
      <point x="256" y="519" type="line"/>
    </contour>
    <contour>
      <point x="269" y="581" type="line"/>
      <point x="563" y="581" type="line"/>
      <point x="600" y="769" type="line"/>
      <point x="306" y="769" type="line"/>
    </contour>
  </outline>
</glyph>
<glyph name="heavyrightbxd.001" format="1">
  <advance width="599"/>
  <outline>
    <contour>
      <point x="257" y="153" type="line"/>
      <point x="704" y="153" type="line"/>
      <point x="763" y="447" type="line"/>
      <point x="316" y="447" type="line"/>
    </contour>
  </outline>
</glyph>
<glyph name="heavytrpldashhorzbxd.001" format="1">
  <advance width="600"/>
  <outline>
    <contour>
      <point x="64" y="153" type="line"/>
      <point x="198" y="153" type="line"/>
      <point x="257" y="447" type="line"/>
      <point x="123" y="447" type="line"/>
    </contour>
    <contour>
      <point x="264" y="153" type="line"/>
      <point x="398" y="153" type="line"/>
      <point x="457" y="447" type="line"/>
      <point x="323" y="447" type="line"/>
    </contour>
    <contour>
      <point x="464" y="153" type="line"/>
      <point x="598" y="153" type="line"/>
      <point x="657" y="447" type="line"/>
      <point x="523" y="447" type="line"/>
    </contour>
  </outline>
</glyph>
<glyph name="heavytrpldashvertbxd.001" format="1">
  <advance width="600"/>
  <outline>
    <contour>
      <point x="124" y="-145" type="line"/>
      <point x="418" y="-145" type="line"/>
      <point x="462" y="77" type="line"/>
      <point x="168" y="77" type="line"/>
    </contour>
    <contour>
      <point x="191" y="188" type="line"/>
      <point x="485" y="188" type="line"/>
      <point x="529" y="410" type="line"/>
      <point x="235" y="410" type="line"/>
    </contour>
    <contour>
      <point x="257" y="521" type="line"/>
      <point x="551" y="521" type="line"/>
      <point x="595" y="743" type="line"/>
      <point x="301" y="743" type="line"/>
    </contour>
  </outline>
</glyph>
<glyph name="heavyupbxd.001" format="1">
  <advance width="599"/>
  <outline>
    <contour>
      <point x="198" y="226" type="line"/>
      <point x="492" y="226" type="line"/>
      <point x="647" y="1000" type="line"/>
      <point x="353" y="1000" type="line"/>
    </contour>
  </outline>
</glyph>
<glyph name="heavyuprightbxd.001" format="1">
  <advance width="600"/>
  <outline>
    <contour>
      <point x="184" y="153" type="line"/>
      <point x="704" y="153" type="line"/>
      <point x="763" y="447" type="line"/>
      <point x="537" y="447" type="line"/>
      <point x="647" y="1000" type="line"/>
      <point x="353" y="1000" type="line"/>
    </contour>
  </outline>
</glyph>
<glyph name="heavyvertbxd.001" format="1">
  <advance width="599"/>
  <outline>
    <contour>
      <point x="73" y="-400" type="line"/>
      <point x="367" y="-400" type="line"/>
      <point x="647" y="1000" type="line"/>
      <point x="353" y="1000" type="line"/>
    </contour>
  </outline>
</glyph>
<glyph name="heavyvertleftbxd.001" format="1">
  <advance width="600"/>
  <outline>
    <contour>
      <point x="-43" y="153" type="line"/>
      <point x="184" y="153" type="line"/>
      <point x="73" y="-400" type="line"/>
      <point x="367" y="-400" type="line"/>
      <point x="647" y="1000" type="line"/>
      <point x="353" y="1000" type="line"/>
      <point x="242" y="447" type="line"/>
      <point x="16" y="447" type="line"/>
    </contour>
  </outline>
</glyph>
<glyph name="heavyvertrightbxd.001" format="1">
  <advance width="599"/>
  <outline>
    <contour>
      <point x="73" y="-400" type="line"/>
      <point x="367" y="-400" type="line"/>
      <point x="478" y="153" type="line"/>
      <point x="704" y="153" type="line"/>
      <point x="763" y="447" type="line"/>
      <point x="536" y="447" type="line"/>
      <point x="647" y="1000" type="line"/>
      <point x="353" y="1000" type="line"/>
    </contour>
  </outline>
</glyph>
<glyph name="hyphen.a" format="1">
  <advance width="600"/>
  <outline>
    <contour>
      <point x="161" y="196" type="line"/>
      <point x="517" y="196" type="line"/>
      <point x="540" y="313" type="line"/>
      <point x="184" y="313" type="line"/>
    </contour>
  </outline>
</glyph>
<glyph name="infinity.001" format="1">
  <advance width="792"/>
  <outline>
    <contour>
      <point x="218" y="132" type="curve" smooth="yes"/>
      <point x="282" y="132"/>
      <point x="336" y="178"/>
      <point x="368" y="222" type="curve"/>
      <point x="372" y="222" type="line"/>
      <point x="432" y="138"/>
      <point x="492" y="106"/>
      <point x="572" y="106" type="curve" smooth="yes"/>
      <point x="680" y="106"/>
      <point x="770" y="200"/>
      <point x="770" y="330" type="curve" smooth="yes"/>
      <point x="770" y="462"/>
      <point x="682" y="544"/>
      <point x="572" y="544" type="curve" smooth="yes"/>
      <point x="500" y="544"/>
      <point x="446" y="506"/>
      <point x="398" y="438" type="curve"/>
      <point x="394" y="438" type="line"/>
      <point x="358" y="486"/>
      <point x="306" y="528"/>
      <point x="226" y="528" type="curve" smooth="yes"/>
      <point x="116" y="528"/>
      <point x="48" y="438"/>
      <point x="48" y="326" type="curve" smooth="yes"/>
      <point x="48" y="218"/>
      <point x="112" y="132"/>
    </contour>
    <contour>
      <point x="446" y="350" type="curve"/>
      <point x="482" y="402"/>
      <point x="526" y="428"/>
      <point x="566" y="428" type="curve" smooth="yes"/>
      <point x="618" y="428"/>
      <point x="654" y="396"/>
      <point x="654" y="344" type="curve" smooth="yes"/>
      <point x="654" y="294"/>
      <point x="622" y="252"/>
      <point x="572" y="252" type="curve" smooth="yes"/>
      <point x="518" y="252"/>
      <point x="482" y="298"/>
    </contour>
    <contour>
      <point x="230" y="248" type="curve" smooth="yes"/>
      <point x="186" y="248"/>
      <point x="164" y="282"/>
      <point x="164" y="316" type="curve" smooth="yes"/>
      <point x="164" y="352"/>
      <point x="182" y="382"/>
      <point x="226" y="382" type="curve" smooth="yes"/>
      <point x="260" y="382"/>
      <point x="296" y="350"/>
      <point x="320" y="310" type="curve"/>
      <point x="296" y="272"/>
      <point x="266" y="248"/>
    </contour>
  </outline>
</glyph>
<glyph name="infinity.002" format="1">
  <advance width="599"/>
  <outline>
    <contour>
      <point x="158" y="143" type="curve" smooth="yes"/>
      <point x="218" y="143"/>
      <point x="267" y="174"/>
      <point x="307" y="224" type="curve"/>
      <point x="311" y="224" type="line"/>
      <point x="348" y="139"/>
      <point x="393" y="116"/>
      <point x="464" y="116" type="curve" smooth="yes"/>
      <point x="581" y="116"/>
      <point x="688" y="224"/>
      <point x="688" y="379" type="curve" smooth="yes"/>
      <point x="688" y="470"/>
      <point x="634" y="535"/>
      <point x="557" y="535" type="curve" smooth="yes"/>
      <point x="490" y="535"/>
      <point x="436" y="507"/>
      <point x="376" y="437" type="curve"/>
      <point x="372" y="437" type="line"/>
      <point x="352" y="490"/>
      <point x="316" y="519"/>
      <point x="255" y="519" type="curve" smooth="yes"/>
      <point x="135" y="519"/>
      <point x="44" y="418"/>
      <point x="44" y="284" type="curve" smooth="yes"/>
      <point x="44" y="208"/>
      <point x="89" y="143"/>
    </contour>
    <contour>
      <point x="402" y="352" type="curve"/>
      <point x="440" y="399"/>
      <point x="476" y="420"/>
      <point x="509" y="420" type="curve" smooth="yes"/>
      <point x="547" y="420"/>
      <point x="570" y="396"/>
      <point x="570" y="356" type="curve" smooth="yes"/>
      <point x="570" y="306"/>
      <point x="533" y="262"/>
      <point x="484" y="262" type="curve" smooth="yes"/>
      <point x="440" y="262"/>
      <point x="418" y="293"/>
    </contour>
    <contour>
      <point x="204" y="257" type="curve" smooth="yes"/>
      <point x="177" y="257"/>
      <point x="162" y="282"/>
      <point x="162" y="308" type="curve" smooth="yes"/>
      <point x="162" y="341"/>
      <point x="182" y="373"/>
      <point x="222" y="373" type="curve" smooth="yes"/>
      <point x="248" y="373"/>
      <point x="271" y="356"/>
      <point x="282" y="310" type="curve"/>
      <point x="257" y="272"/>
      <point x="231" y="257"/>
    </contour>
  </outline>
</glyph>
<glyph name="j.sups" format="1">
  <advance width="599"/>
  <outline>
    <contour>
      <point x="257" y="504" type="line"/>
      <point x="380" y="504" type="line"/>
      <point x="336" y="283" type="line" smooth="yes"/>
      <point x="326" y="238"/>
      <point x="309" y="220"/>
      <point x="267" y="220" type="curve" smooth="yes"/>
      <point x="251" y="220"/>
      <point x="233" y="222"/>
      <point x="210" y="234" type="curve"/>
      <point x="163" y="157" type="line"/>
      <point x="188" y="144"/>
      <point x="217" y="134"/>
      <point x="257" y="134" type="curve" smooth="yes"/>
      <point x="381" y="134"/>
      <point x="430" y="207"/>
      <point x="447" y="287" type="curve" smooth="yes"/>
      <point x="507" y="590" type="line"/>
      <point x="274" y="590" type="line"/>
    </contour>
    <contour>
      <point x="459" y="632" type="curve" smooth="yes"/>
      <point x="506" y="632"/>
      <point x="545" y="663"/>
      <point x="545" y="708" type="curve" smooth="yes"/>
      <point x="545" y="739"/>
      <point x="521" y="762"/>
      <point x="485" y="762" type="curve" smooth="yes"/>
      <point x="438" y="762"/>
      <point x="399" y="729"/>
      <point x="399" y="686" type="curve" smooth="yes"/>
      <point x="399" y="653"/>
      <point x="423" y="632"/>
    </contour>
  </outline>
</glyph>
<glyph name="kturned" format="1">
  <advance width="600"/>
  <outline>
    <contour>
      <point x="629" y="498" type="line"/>
      <point x="471" y="498" type="line"/>
      <point x="447" y="376" type="line"/>
      <point x="366" y="310" type="line"/>
      <point x="283" y="498" type="line"/>
      <point x="112" y="498" type="line"/>
      <point x="254" y="206" type="line"/>
      <point x="27" y="0" type="line"/>
      <point x="198" y="0" type="line"/>
      <point x="405" y="187" type="line"/>
      <point x="409" y="187" type="line"/>
      <point x="336" y="-181" type="line"/>
      <point x="494" y="-181" type="line"/>
    </contour>
  </outline>
</glyph>
<glyph name="leftfiveeighthsblock.001" format="1">
  <advance width="599"/>
  <outline>
    <contour>
      <point x="-40" y="-200" type="line"/>
      <point x="335" y="-200" type="line"/>
      <point x="535" y="800" type="line"/>
      <point x="160" y="800" type="line"/>
    </contour>
  </outline>
</glyph>
<glyph name="leftheavyrightdnlightbxd.001" format="1">
  <advance width="600"/>
  <outline>
    <contour>
      <point x="-43" y="153" type="line"/>
      <point x="257" y="153" type="line"/>
      <point x="147" y="-400" type="line"/>
      <point x="294" y="-400" type="line"/>
      <point x="419" y="226" type="line"/>
      <point x="719" y="226" type="line"/>
      <point x="748" y="373" type="line"/>
      <point x="448" y="373" type="line"/>
      <point x="463" y="447" type="line"/>
      <point x="16" y="447" type="line"/>
    </contour>
  </outline>
</glyph>
<glyph name="less.001" format="1">
  <advance width="520"/>
  <outline>
    <contour>
      <point x="46" y="276" type="line"/>
      <point x="496" y="98" type="line"/>
      <point x="496" y="230" type="line"/>
      <point x="338" y="284" type="line"/>
      <point x="208" y="330" type="line"/>
      <point x="208" y="334" type="line"/>
      <point x="338" y="380" type="line"/>
      <point x="496" y="434" type="line"/>
      <point x="496" y="564" type="line"/>
      <point x="46" y="386" type="line"/>
    </contour>
  </outline>
</glyph>
<glyph name="less.002" format="1">
  <advance width="600"/>
  <outline>
    <contour>
      <point x="171" y="278" type="line"/>
      <point x="510" y="28" type="line"/>
      <point x="538" y="170" type="line"/>
      <point x="311" y="330" type="line"/>
      <point x="311" y="334" type="line"/>
      <point x="603" y="494" type="line"/>
      <point x="632" y="636" type="line"/>
      <point x="193" y="386" type="line"/>
    </contour>
  </outline>
</glyph>
<glyph name="lessequal.001" format="1">
  <advance width="520"/>
  <outline>
    <contour>
      <point x="496" y="0" type="line"/>
      <point x="496" y="112" type="line"/>
      <point x="48" y="112" type="line"/>
      <point x="48" y="0" type="line"/>
    </contour>
    <contour>
      <point x="46" y="294" type="line"/>
      <point x="496" y="152" type="line"/>
      <point x="496" y="284" type="line"/>
      <point x="342" y="324" type="line"/>
      <point x="208" y="356" type="line"/>
      <point x="208" y="360" type="line"/>
      <point x="342" y="392" type="line"/>
      <point x="496" y="434" type="line"/>
      <point x="496" y="564" type="line"/>
      <point x="46" y="424" type="line"/>
    </contour>
  </outline>
</glyph>
<glyph name="lessequal.002" format="1">
  <advance width="599"/>
  <outline>
    <contour>
      <point x="67" y="0" type="line"/>
      <point x="532" y="0" type="line"/>
      <point x="554" y="111" type="line"/>
      <point x="89" y="111" type="line"/>
    </contour>
    <contour>
      <point x="126" y="294" type="line"/>
      <point x="563" y="154" type="line"/>
      <point x="589" y="283" type="line"/>
      <point x="431" y="325" type="line"/>
      <point x="298" y="357" type="line"/>
      <point x="299" y="361" type="line"/>
      <point x="445" y="393" type="line"/>
      <point x="619" y="435" type="line"/>
      <point x="645" y="564" type="line"/>
      <point x="152" y="424" type="line"/>
    </contour>
  </outline>
</glyph>
<glyph name="lightarcdnleftbxd.001" format="1">
  <advance width="599"/>
  <outline>
    <contour>
      <point x="373" y="0" type="line" smooth="yes"/>
      <point x="415" y="206"/>
      <point x="281" y="373"/>
      <point x="75" y="373" type="curve" smooth="yes"/>
      <point x="1" y="373" type="line"/>
      <point x="-28" y="226" type="line"/>
      <point x="45" y="226" type="line" smooth="yes"/>
      <point x="171" y="226"/>
      <point x="252" y="125"/>
      <point x="226" y="0" type="curve" smooth="yes"/>
      <point x="147" y="-400" type="line"/>
      <point x="294" y="-400" type="line"/>
    </contour>
  </outline>
</glyph>
<glyph name="lightarcdnrightbxd.001" format="1">
  <advance width="600"/>
  <outline>
    <contour>
      <point x="147" y="-400" type="line"/>
      <point x="294" y="-400" type="line"/>
      <point x="374" y="0" type="line" smooth="yes"/>
      <point x="399" y="125"/>
      <point x="520" y="226"/>
      <point x="646" y="226" type="curve" smooth="yes"/>
      <point x="719" y="226" type="line"/>
      <point x="749" y="373" type="line"/>
      <point x="675" y="373" type="line" smooth="yes"/>
      <point x="469" y="373"/>
      <point x="268" y="206"/>
      <point x="227" y="0" type="curve" smooth="yes"/>
    </contour>
  </outline>
</glyph>
<glyph name="lightarcupleftbxd.001" format="1">
  <advance width="600"/>
  <outline>
    <contour>
      <point x="573" y="1000" type="line"/>
      <point x="426" y="1000" type="line"/>
      <point x="346" y="600" type="line" smooth="yes"/>
      <point x="321" y="474"/>
      <point x="200" y="373"/>
      <point x="75" y="373" type="curve" smooth="yes"/>
      <point x="1" y="373" type="line"/>
      <point x="-28" y="226" type="line"/>
      <point x="45" y="226" type="line" smooth="yes"/>
      <point x="252" y="226"/>
      <point x="452" y="394"/>
      <point x="493" y="600" type="curve" smooth="yes"/>
    </contour>
  </outline>
</glyph>
<glyph name="lightarcuprightbxd.001" format="1">
  <advance width="599"/>
  <outline>
    <contour>
      <point x="346" y="600" type="line" smooth="yes"/>
      <point x="305" y="394"/>
      <point x="439" y="226"/>
      <point x="645" y="226" type="curve" smooth="yes"/>
      <point x="719" y="226" type="line"/>
      <point x="748" y="373" type="line"/>
      <point x="674" y="373" type="line" smooth="yes"/>
      <point x="549" y="373"/>
      <point x="468" y="474"/>
      <point x="493" y="600" type="curve" smooth="yes"/>
      <point x="573" y="1000" type="line"/>
      <point x="426" y="1000" type="line"/>
    </contour>
  </outline>
</glyph>
<glyph name="lightdbldashhorzbxd.001" format="1">
  <advance width="599"/>
  <outline>
    <contour>
      <point x="120" y="226" type="line"/>
      <point x="270" y="226" type="line"/>
      <point x="299" y="373" type="line"/>
      <point x="149" y="373" type="line"/>
    </contour>
    <contour>
      <point x="420" y="226" type="line"/>
      <point x="570" y="226" type="line"/>
      <point x="599" y="373" type="line"/>
      <point x="449" y="373" type="line"/>
    </contour>
  </outline>
</glyph>
<glyph name="lightdbldashvertbxd.001" format="1">
  <advance width="600"/>
  <outline>
    <contour>
      <point x="212" y="-75" type="line"/>
      <point x="359" y="-75" type="line"/>
      <point x="409" y="175" type="line"/>
      <point x="262" y="175" type="line"/>
    </contour>
    <contour>
      <point x="312" y="425" type="line"/>
      <point x="459" y="425" type="line"/>
      <point x="509" y="675" type="line"/>
      <point x="362" y="675" type="line"/>
    </contour>
  </outline>
</glyph>
<glyph name="lightdbldashvertbxd" format="1">
  <advance width="600"/>
  <outline>
    <contour>
      <point x="220" y="-75" type="line"/>
      <point x="380" y="-75" type="line"/>
      <point x="380" y="175" type="line"/>
      <point x="220" y="175" type="line"/>
    </contour>
    <contour>
      <point x="220" y="425" type="line"/>
      <point x="380" y="425" type="line"/>
      <point x="380" y="675" type="line"/>
      <point x="220" y="675" type="line"/>
    </contour>
  </outline>
</glyph>
<glyph name="lightdiagcrossbxd.001" format="1">
  <advance width="600"/>
  <outline>
    <contour>
      <point x="248" y="873" type="line"/>
      <point x="101" y="873" type="line"/>
      <point x="72" y="726" type="line"/>
      <point x="242" y="300" type="line"/>
      <point x="-99" y="-127" type="line"/>
      <point x="-128" y="-274" type="line"/>
      <point x="19" y="-274" type="line"/>
      <point x="321" y="103" type="line"/>
      <point x="472" y="-274" type="line"/>
      <point x="619" y="-274" type="line"/>
      <point x="648" y="-127" type="line"/>
      <point x="478" y="300" type="line"/>
      <point x="819" y="726" type="line"/>
      <point x="848" y="873" type="line"/>
      <point x="701" y="873" type="line"/>
      <point x="399" y="496" type="line"/>
    </contour>
  </outline>
</glyph>
<glyph name="lightdiagupleftdnrightbxd.001" format="1">
  <advance width="600"/>
  <outline>
    <contour>
      <point x="248" y="873" type="line"/>
      <point x="101" y="873" type="line"/>
      <point x="72" y="726" type="line"/>
      <point x="472" y="-274" type="line"/>
      <point x="619" y="-274" type="line"/>
      <point x="649" y="-127" type="line"/>
    </contour>
  </outline>
</glyph>
<glyph name="lightdiaguprightdnleftbxd.001" format="1">
  <advance width="600"/>
  <outline>
    <contour>
      <point x="-99" y="-127" type="line"/>
      <point x="-128" y="-274" type="line"/>
      <point x="19" y="-274" type="line"/>
      <point x="819" y="726" type="line"/>
      <point x="848" y="873" type="line"/>
      <point x="701" y="873" type="line"/>
    </contour>
  </outline>
</glyph>
<glyph name="lightleftheavyrightbxd.001" format="1">
  <advance width="600"/>
  <outline>
    <contour>
      <point x="-28" y="226" type="line"/>
      <point x="272" y="226" type="line"/>
      <point x="257" y="153" type="line"/>
      <point x="704" y="153" type="line"/>
      <point x="763" y="447" type="line"/>
      <point x="316" y="447" type="line"/>
      <point x="301" y="373" type="line"/>
      <point x="1" y="373" type="line"/>
    </contour>
  </outline>
</glyph>
<glyph name="lightquaddashhorzbxd.001" format="1">
  <advance width="599"/>
  <outline>
    <contour>
      <point x="63" y="226" type="line"/>
      <point x="176" y="226" type="line"/>
      <point x="205" y="373" type="line"/>
      <point x="92" y="373" type="line"/>
    </contour>
    <contour>
      <point x="213" y="226" type="line"/>
      <point x="326" y="226" type="line"/>
      <point x="355" y="373" type="line"/>
      <point x="242" y="373" type="line"/>
    </contour>
    <contour>
      <point x="363" y="226" type="line"/>
      <point x="476" y="226" type="line"/>
      <point x="505" y="373" type="line"/>
      <point x="392" y="373" type="line"/>
    </contour>
    <contour>
      <point x="513" y="226" type="line"/>
      <point x="626" y="226" type="line"/>
      <point x="655" y="373" type="line"/>
      <point x="542" y="373" type="line"/>
    </contour>
  </outline>
</glyph>
<glyph name="lightquaddashvertbxd.001" format="1">
  <advance width="600"/>
  <outline>
    <contour>
      <point x="193" y="-169" type="line"/>
      <point x="340" y="-169" type="line"/>
      <point x="378" y="19" type="line"/>
      <point x="231" y="19" type="line"/>
    </contour>
    <contour>
      <point x="243" y="81" type="line"/>
      <point x="390" y="81" type="line"/>
      <point x="428" y="269" type="line"/>
      <point x="281" y="269" type="line"/>
    </contour>
    <contour>
      <point x="293" y="331" type="line"/>
      <point x="440" y="331" type="line"/>
      <point x="477" y="519" type="line"/>
      <point x="330" y="519" type="line"/>
    </contour>
    <contour>
      <point x="343" y="581" type="line"/>
      <point x="490" y="581" type="line"/>
      <point x="527" y="769" type="line"/>
      <point x="380" y="769" type="line"/>
    </contour>
  </outline>
</glyph>
<glyph name="lightquaddashvertbxd" format="1">
  <advance width="600"/>
  <outline>
    <contour>
      <point x="220" y="-169" type="line"/>
      <point x="380" y="-169" type="line"/>
      <point x="380" y="19" type="line"/>
      <point x="220" y="19" type="line"/>
    </contour>
    <contour>
      <point x="220" y="81" type="line"/>
      <point x="380" y="81" type="line"/>
      <point x="380" y="269" type="line"/>
      <point x="220" y="269" type="line"/>
    </contour>
    <contour>
      <point x="220" y="331" type="line"/>
      <point x="380" y="331" type="line"/>
      <point x="380" y="519" type="line"/>
      <point x="220" y="519" type="line"/>
    </contour>
    <contour>
      <point x="220" y="581" type="line"/>
      <point x="380" y="581" type="line"/>
      <point x="380" y="769" type="line"/>
      <point x="220" y="769" type="line"/>
    </contour>
  </outline>
</glyph>
<glyph name="lightrightbxd.001" format="1">
  <advance width="600"/>
  <outline>
    <contour>
      <point x="272" y="226" type="line"/>
      <point x="719" y="226" type="line"/>
      <point x="748" y="373" type="line"/>
      <point x="301" y="373" type="line"/>
    </contour>
  </outline>
</glyph>
<glyph name="lighttrpldashhorzbxd.001" format="1">
  <advance width="599"/>
  <outline>
    <contour>
      <point x="78" y="226" type="line"/>
      <point x="212" y="226" type="line"/>
      <point x="241" y="373" type="line"/>
      <point x="107" y="373" type="line"/>
    </contour>
    <contour>
      <point x="278" y="226" type="line"/>
      <point x="412" y="226" type="line"/>
      <point x="441" y="373" type="line"/>
      <point x="307" y="373" type="line"/>
    </contour>
    <contour>
      <point x="478" y="226" type="line"/>
      <point x="612" y="226" type="line"/>
      <point x="641" y="373" type="line"/>
      <point x="507" y="373" type="line"/>
    </contour>
  </outline>
</glyph>
<glyph name="lighttrpldashvertbxd.001" format="1">
  <advance width="600"/>
  <outline>
    <contour>
      <point x="198" y="-145" type="line"/>
      <point x="345" y="-145" type="line"/>
      <point x="389" y="77" type="line"/>
      <point x="242" y="77" type="line"/>
    </contour>
    <contour>
      <point x="265" y="188" type="line"/>
      <point x="412" y="188" type="line"/>
      <point x="456" y="410" type="line"/>
      <point x="309" y="410" type="line"/>
    </contour>
    <contour>
      <point x="331" y="521" type="line"/>
      <point x="478" y="521" type="line"/>
      <point x="522" y="743" type="line"/>
      <point x="375" y="743" type="line"/>
    </contour>
  </outline>
</glyph>
<glyph name="lightupbxd.001" format="1">
  <advance width="600"/>
  <outline>
    <contour>
      <point x="272" y="226" type="line"/>
      <point x="419" y="226" type="line"/>
      <point x="574" y="1000" type="line"/>
      <point x="427" y="1000" type="line"/>
    </contour>
  </outline>
</glyph>
<glyph name="lightupheavydnbxd.001" format="1">
  <advance width="600"/>
  <outline>
    <contour>
      <point x="73" y="-400" type="line"/>
      <point x="367" y="-400" type="line"/>
      <point x="522" y="373" type="line"/>
      <point x="448" y="373" type="line"/>
      <point x="573" y="1000" type="line"/>
      <point x="426" y="1000" type="line"/>
      <point x="301" y="373" type="line"/>
      <point x="228" y="373" type="line"/>
    </contour>
  </outline>
</glyph>
<glyph name="lightvertbxd.001" format="1">
  <advance width="600"/>
  <outline>
    <contour>
      <point x="147" y="-400" type="line"/>
      <point x="294" y="-400" type="line"/>
      <point x="574" y="1000" type="line"/>
      <point x="427" y="1000" type="line"/>
    </contour>
  </outline>
</glyph>
<glyph name="liraturkish" format="1">
  <advance width="599"/>
  <outline>
    <contour>
      <point x="300" y="135" type="curve"/>
      <point x="331" y="290" type="line"/>
      <point x="502" y="366" type="line"/>
      <point x="519" y="452" type="line"/>
      <point x="348" y="376" type="line"/>
      <point x="358" y="428" type="line"/>
      <point x="529" y="504" type="line"/>
      <point x="546" y="590" type="line"/>
      <point x="375" y="514" type="line"/>
      <point x="399" y="635" type="line"/>
      <point x="241" y="635" type="line"/>
      <point x="202" y="436" type="line"/>
      <point x="112" y="397" type="line"/>
      <point x="94" y="311" type="line"/>
      <point x="185" y="351" type="line"/>
      <point x="174" y="299" type="line"/>
      <point x="84" y="259" type="line"/>
      <point x="67" y="173" type="line"/>
      <point x="157" y="213" type="line"/>
      <point x="112" y="-12" type="line"/>
      <point x="423" y="-20"/>
      <point x="609" y="101"/>
      <point x="609" y="296" type="curve" smooth="yes"/>
      <point x="609" y="300"/>
      <point x="609" y="311"/>
      <point x="609" y="315" type="curve"/>
      <point x="473" y="286" type="line"/>
      <point x="473" y="284"/>
      <point x="473" y="277"/>
      <point x="473" y="276" type="curve" smooth="yes"/>
      <point x="473" y="201"/>
      <point x="389" y="144"/>
    </contour>
  </outline>
</glyph>
<glyph name="logicalnot.001" format="1">
  <advance width="520"/>
  <outline>
    <contour>
      <point x="48" y="274" type="line"/>
      <point x="382" y="274" type="line"/>
      <point x="382" y="92" type="line"/>
      <point x="496" y="92" type="line"/>
      <point x="496" y="386" type="line"/>
      <point x="48" y="386" type="line"/>
    </contour>
  </outline>
</glyph>
<glyph name="lozenge.001" format="1">
  <advance width="599"/>
  <outline>
    <contour>
      <point x="234" y="-10" type="line"/>
      <point x="361" y="-10" type="line"/>
      <point x="591" y="330" type="line"/>
      <point x="497" y="670" type="line"/>
      <point x="370" y="670" type="line"/>
      <point x="140" y="330" type="line"/>
    </contour>
    <contour>
      <point x="322" y="122" type="line"/>
      <point x="294" y="241" type="line"/>
      <point x="269" y="330" type="line"/>
      <point x="329" y="419" type="line"/>
      <point x="405" y="538" type="line"/>
      <point x="409" y="538" type="line"/>
      <point x="437" y="419" type="line"/>
      <point x="462" y="330" type="line"/>
      <point x="402" y="241" type="line"/>
      <point x="326" y="122" type="line"/>
    </contour>
  </outline>
</glyph>
<glyph name="macronbelowcmb" format="1">
  <advance width="600"/>
  <outline>
    <contour>
      <point x="422" y="-92" type="line"/>
      <point x="141" y="-92" type="line"/>
      <point x="121" y="-192" type="line"/>
      <point x="402" y="-192" type="line"/>
    </contour>
  </outline>
</glyph>
<glyph name="macroncmb" format="1">
  <advance width="600"/>
  <outline>
    <contour>
      <point x="280" y="590" type="line"/>
      <point x="554" y="590" type="line"/>
      <point x="574" y="690" type="line"/>
      <point x="300" y="690" type="line"/>
    </contour>
  </outline>
</glyph>
<glyph name="mediumshade.001" format="1">
  <advance width="600"/>
  <outline>
    <contour>
      <point x="-40" y="-200" type="line"/>
      <point x="-10" y="-200" type="line"/>
      <point x="-30" y="-150" type="line"/>
    </contour>
    <contour>
      <point x="110" y="-200" type="line"/>
      <point x="140" y="-200" type="line"/>
      <point x="20" y="100" type="line"/>
      <point x="10" y="50" type="line"/>
    </contour>
    <contour>
      <point x="260" y="-200" type="line"/>
      <point x="290" y="-200" type="line"/>
      <point x="70" y="350" type="line"/>
      <point x="60" y="300" type="line"/>
    </contour>
    <contour>
      <point x="410" y="-200" type="line"/>
      <point x="440" y="-200" type="line"/>
      <point x="120" y="600" type="line"/>
      <point x="110" y="550" type="line"/>
    </contour>
    <contour>
      <point x="560" y="-200" type="line"/>
      <point x="570" y="-150" type="line"/>
      <point x="190" y="800" type="line"/>
      <point x="160" y="800" type="line"/>
    </contour>
    <contour>
      <point x="610" y="50" type="line"/>
      <point x="620" y="100" type="line"/>
      <point x="340" y="800" type="line"/>
      <point x="310" y="800" type="line"/>
    </contour>
    <contour>
      <point x="660" y="300" type="line"/>
      <point x="670" y="350" type="line"/>
      <point x="490" y="800" type="line"/>
      <point x="460" y="800" type="line"/>
    </contour>
    <contour>
      <point x="710" y="550" type="line"/>
      <point x="720" y="600" type="line"/>
      <point x="640" y="800" type="line"/>
      <point x="610" y="800" type="line"/>
    </contour>
  </outline>
</glyph>
<glyph name="multiply.001" format="1">
  <advance width="520"/>
  <outline>
    <contour>
      <point x="272" y="252" type="line"/>
      <point x="404" y="114" type="line"/>
      <point x="482" y="192" type="line"/>
      <point x="350" y="330" type="line"/>
      <point x="482" y="468" type="line"/>
      <point x="404" y="546" type="line"/>
      <point x="272" y="408" type="line"/>
      <point x="140" y="546" type="line"/>
      <point x="62" y="468" type="line"/>
      <point x="194" y="330" type="line"/>
      <point x="62" y="192" type="line"/>
      <point x="140" y="114" type="line"/>
    </contour>
  </outline>
</glyph>
<glyph name="n.sups" format="1">
  <advance width="599"/>
  <outline>
    <contour>
      <point x="205" y="260" type="line"/>
      <point x="315" y="260" type="line"/>
      <point x="359" y="478" type="line"/>
      <point x="382" y="495"/>
      <point x="397" y="505"/>
      <point x="419" y="505" type="curve" smooth="yes"/>
      <point x="450" y="505"/>
      <point x="457" y="488"/>
      <point x="449" y="449" type="curve" smooth="yes"/>
      <point x="412" y="260" type="line"/>
      <point x="522" y="260" type="line"/>
      <point x="563" y="463" type="line" smooth="yes"/>
      <point x="579" y="545"/>
      <point x="557" y="598"/>
      <point x="483" y="598" type="curve" smooth="yes"/>
      <point x="434" y="598"/>
      <point x="395" y="574"/>
      <point x="363" y="549" type="curve"/>
      <point x="360" y="549" type="line"/>
      <point x="361" y="590" type="line"/>
      <point x="271" y="590" type="line"/>
    </contour>
  </outline>
</glyph>
<glyph name="notequal.001" format="1">
  <advance width="520"/>
  <outline>
    <contour>
      <point x="496" y="154" type="line"/>
      <point x="496" y="266" type="line"/>
      <point x="286" y="266" type="line"/>
      <point x="358" y="394" type="line"/>
      <point x="496" y="394" type="line"/>
      <point x="496" y="506" type="line"/>
      <point x="416" y="506" type="line"/>
      <point x="486" y="626" type="line"/>
      <point x="386" y="626" type="line"/>
      <point x="316" y="506" type="line"/>
      <point x="48" y="506" type="line"/>
      <point x="48" y="394" type="line"/>
      <point x="258" y="394" type="line"/>
      <point x="186" y="266" type="line"/>
      <point x="48" y="266" type="line"/>
      <point x="48" y="154" type="line"/>
      <point x="128" y="154" type="line"/>
      <point x="58" y="34" type="line"/>
      <point x="158" y="34" type="line"/>
      <point x="228" y="154" type="line"/>
    </contour>
  </outline>
</glyph>
<glyph name="ogonekcmb.cap" format="1">
  <advance width="599"/>
  <outline>
    <contour>
      <point x="283" y="2" type="line"/>
      <point x="249" y="-18"/>
      <point x="179" y="-75"/>
      <point x="179" y="-145" type="curve" smooth="yes"/>
      <point x="179" y="-196"/>
      <point x="221" y="-225"/>
      <point x="280" y="-225" type="curve" smooth="yes"/>
      <point x="316" y="-225"/>
      <point x="365" y="-210"/>
      <point x="395" y="-189" type="curve"/>
      <point x="376" y="-110" type="line"/>
      <point x="365" y="-116"/>
      <point x="351" y="-124"/>
      <point x="338" y="-124" type="curve" smooth="yes"/>
      <point x="320" y="-124"/>
      <point x="303" y="-115"/>
      <point x="303" y="-94" type="curve" smooth="yes"/>
      <point x="303" y="-65"/>
      <point x="331" y="-30"/>
      <point x="378" y="2" type="curve"/>
    </contour>
  </outline>
</glyph>
<glyph name="oogonek" format="1">
  <advance width="599"/>
  <outline>
    <contour>
      <point x="184" y="-135" type="curve" smooth="yes"/>
      <point x="184" y="-185"/>
      <point x="223" y="-211"/>
      <point x="276" y="-211" type="curve" smooth="yes"/>
      <point x="309" y="-211"/>
      <point x="358" y="-197"/>
      <point x="388" y="-176" type="curve"/>
      <point x="370" y="-106" type="line"/>
      <point x="360" y="-112"/>
      <point x="346" y="-118"/>
      <point x="333" y="-118" type="curve" smooth="yes"/>
      <point x="315" y="-118"/>
      <point x="298" y="-109"/>
      <point x="298" y="-89" type="curve" smooth="yes"/>
      <point x="298" y="-63"/>
      <point x="319" y="-25"/>
      <point x="381" y="1" type="curve" smooth="yes"/>
      <point x="519" y="56"/>
      <point x="611" y="142"/>
      <point x="611" y="298" type="curve" smooth="yes"/>
      <point x="611" y="431"/>
      <point x="517" y="510"/>
      <point x="401" y="510" type="curve" smooth="yes"/>
      <point x="251" y="510"/>
      <point x="88" y="392"/>
      <point x="88" y="200" type="curve" smooth="yes"/>
      <point x="88" y="80"/>
      <point x="164" y="4"/>
      <point x="263" y="-9" type="curve"/>
      <point x="231" y="-33"/>
      <point x="184" y="-78"/>
    </contour>
    <contour>
      <point x="250" y="208" type="curve" smooth="yes"/>
      <point x="250" y="299"/>
      <point x="291" y="383"/>
      <point x="376" y="383" type="curve" smooth="yes"/>
      <point x="426" y="383"/>
      <point x="448" y="346"/>
      <point x="448" y="290" type="curve" smooth="yes"/>
      <point x="448" y="198"/>
      <point x="408" y="115"/>
      <point x="323" y="115" type="curve" smooth="yes"/>
      <point x="273" y="115"/>
      <point x="250" y="152"/>
    </contour>
  </outline>
</glyph>
<glyph name="plus.001" format="1">
  <advance width="520"/>
  <outline>
    <contour>
      <point x="212" y="92" type="line"/>
      <point x="328" y="92" type="line"/>
      <point x="328" y="274" type="line"/>
      <point x="496" y="274" type="line"/>
      <point x="496" y="386" type="line"/>
      <point x="330" y="386" type="line"/>
      <point x="330" y="568" type="line"/>
      <point x="214" y="568" type="line"/>
      <point x="214" y="386" type="line"/>
      <point x="48" y="386" type="line"/>
      <point x="48" y="274" type="line"/>
      <point x="212" y="274" type="line"/>
    </contour>
  </outline>
</glyph>
<glyph name="plusminus.001" format="1">
  <advance width="520"/>
  <outline>
    <contour>
      <point x="212" y="164" type="line"/>
      <point x="328" y="164" type="line"/>
      <point x="328" y="310" type="line"/>
      <point x="496" y="310" type="line"/>
      <point x="496" y="422" type="line"/>
      <point x="330" y="422" type="line"/>
      <point x="330" y="568" type="line"/>
      <point x="214" y="568" type="line"/>
      <point x="214" y="422" type="line"/>
      <point x="48" y="422" type="line"/>
      <point x="48" y="310" type="line"/>
      <point x="212" y="310" type="line"/>
    </contour>
    <contour>
      <point x="496" y="0" type="line"/>
      <point x="496" y="112" type="line"/>
      <point x="48" y="112" type="line"/>
      <point x="48" y="0" type="line"/>
    </contour>
  </outline>
</glyph>
<glyph name="prime" format="1">
  <advance width="599"/>
  <outline>
    <contour>
      <point x="293" y="341" type="line"/>
      <point x="396" y="341" type="line"/>
      <point x="483" y="533" type="line"/>
      <point x="541" y="685" type="line"/>
      <point x="383" y="685" type="line"/>
    </contour>
  </outline>
</glyph>
<glyph name="q.sups" format="1">
  <advance width="599"/>
  <outline>
    <contour>
      <point x="206" y="382" type="curve" smooth="yes"/>
      <point x="206" y="302"/>
      <point x="247" y="252"/>
      <point x="317" y="252" type="curve" smooth="yes"/>
      <point x="346" y="252"/>
      <point x="380" y="266"/>
      <point x="406" y="286" type="curve"/>
      <point x="392" y="238" type="line"/>
      <point x="373" y="142" type="line"/>
      <point x="483" y="142" type="line"/>
      <point x="572" y="590" type="line"/>
      <point x="486" y="590" type="line"/>
      <point x="471" y="556" type="line"/>
      <point x="468" y="556" type="line"/>
      <point x="447" y="585"/>
      <point x="424" y="598"/>
      <point x="387" y="598" type="curve" smooth="yes"/>
      <point x="305" y="598"/>
      <point x="206" y="515"/>
    </contour>
    <contour>
      <point x="321" y="397" type="curve" smooth="yes"/>
      <point x="321" y="474"/>
      <point x="359" y="508"/>
      <point x="396" y="508" type="curve" smooth="yes"/>
      <point x="412" y="508"/>
      <point x="430" y="504"/>
      <point x="442" y="491" type="curve"/>
      <point x="417" y="366" type="line"/>
      <point x="399" y="347"/>
      <point x="383" y="341"/>
      <point x="363" y="341" type="curve" smooth="yes"/>
      <point x="337" y="341"/>
      <point x="321" y="358"/>
    </contour>
  </outline>
</glyph>
<glyph name="rightdnheavyleftuplightbxd.001" format="1">
  <advance width="600"/>
  <outline>
    <contour>
      <point x="-28" y="226" type="line"/>
      <point x="198" y="226" type="line"/>
      <point x="73" y="-400" type="line"/>
      <point x="367" y="-400" type="line"/>
      <point x="478" y="153" type="line"/>
      <point x="704" y="153" type="line"/>
      <point x="763" y="447" type="line"/>
      <point x="463" y="447" type="line"/>
      <point x="573" y="1000" type="line"/>
      <point x="426" y="1000" type="line"/>
      <point x="316" y="447" type="line"/>
      <point x="242" y="447" type="line"/>
      <point x="228" y="373" type="line"/>
      <point x="1" y="373" type="line"/>
    </contour>
  </outline>
</glyph>
<glyph name="righteighthblock.001" format="1">
  <advance width="599"/>
  <outline>
    <contour>
      <point x="485" y="-200" type="line"/>
      <point x="560" y="-200" type="line"/>
      <point x="760" y="800" type="line"/>
      <point x="685" y="800" type="line"/>
    </contour>
  </outline>
</glyph>
<glyph name="rightheavyleftdnlightbxd.001" format="1">
  <advance width="600"/>
  <outline>
    <contour>
      <point x="-28" y="226" type="line"/>
      <point x="272" y="226" type="line"/>
      <point x="147" y="-400" type="line"/>
      <point x="294" y="-400" type="line"/>
      <point x="404" y="153" type="line"/>
      <point x="704" y="153" type="line"/>
      <point x="763" y="447" type="line"/>
      <point x="316" y="447" type="line"/>
      <point x="301" y="373" type="line"/>
      <point x="1" y="373" type="line"/>
    </contour>
  </outline>
</glyph>
<glyph name="rightheavyleftuplightbxd.001" format="1">
  <advance width="600"/>
  <outline>
    <contour>
      <point x="-28" y="226" type="line"/>
      <point x="272" y="226" type="line"/>
      <point x="257" y="153" type="line"/>
      <point x="704" y="153" type="line"/>
      <point x="763" y="447" type="line"/>
      <point x="463" y="447" type="line"/>
      <point x="573" y="1000" type="line"/>
      <point x="426" y="1000" type="line"/>
      <point x="301" y="373" type="line"/>
      <point x="1" y="373" type="line"/>
    </contour>
  </outline>
</glyph>
<glyph name="rightlightleftdnheavybxd.001" format="1">
  <advance width="600"/>
  <outline>
    <contour>
      <point x="-43" y="153" type="line"/>
      <point x="184" y="153" type="line"/>
      <point x="73" y="-400" type="line"/>
      <point x="367" y="-400" type="line"/>
      <point x="492" y="226" type="line"/>
      <point x="719" y="226" type="line"/>
      <point x="748" y="373" type="line"/>
      <point x="522" y="373" type="line"/>
      <point x="536" y="447" type="line"/>
      <point x="16" y="447" type="line"/>
    </contour>
  </outline>
</glyph>
<glyph name="rightupheavyleftdnlightbxd.001" format="1">
  <advance width="600"/>
  <outline>
    <contour>
      <point x="-28" y="226" type="line"/>
      <point x="198" y="226" type="line"/>
      <point x="184" y="153" type="line"/>
      <point x="257" y="153" type="line"/>
      <point x="147" y="-400" type="line"/>
      <point x="294" y="-400" type="line"/>
      <point x="404" y="153" type="line"/>
      <point x="704" y="153" type="line"/>
      <point x="763" y="447" type="line"/>
      <point x="536" y="447" type="line"/>
      <point x="647" y="1000" type="line"/>
      <point x="353" y="1000" type="line"/>
      <point x="228" y="373" type="line"/>
      <point x="1" y="373" type="line"/>
    </contour>
  </outline>
</glyph>
<glyph name="ringcmb.cap" format="1">
  <advance width="599"/>
  <outline>
    <contour>
      <point x="454" y="696" type="curve" smooth="yes"/>
      <point x="520" y="696"/>
      <point x="574" y="746"/>
      <point x="574" y="810" type="curve" smooth="yes"/>
      <point x="574" y="870"/>
      <point x="522" y="898"/>
      <point x="466" y="898" type="curve" smooth="yes"/>
      <point x="400" y="898"/>
      <point x="346" y="846"/>
      <point x="346" y="784" type="curve" smooth="yes"/>
      <point x="346" y="722"/>
      <point x="396" y="696"/>
    </contour>
    <contour>
      <point x="464" y="838" type="curve" smooth="yes"/>
      <point x="486" y="838"/>
      <point x="498" y="822"/>
      <point x="498" y="804" type="curve" smooth="yes"/>
      <point x="498" y="778"/>
      <point x="478" y="756"/>
      <point x="456" y="756" type="curve" smooth="yes"/>
      <point x="434" y="756"/>
      <point x="422" y="772"/>
      <point x="422" y="790" type="curve" smooth="yes"/>
      <point x="422" y="814"/>
      <point x="440" y="838"/>
    </contour>
  </outline>
</glyph>
<glyph name="rupeeindian" format="1">
  <advance width="600"/>
  <outline>
    <contour>
      <point x="124" y="193" type="line"/>
      <point x="211" y="193" type="line" smooth="yes"/>
      <point x="385" y="193"/>
      <point x="538" y="275"/>
      <point x="538" y="448" type="curve" smooth="yes"/>
      <point x="538" y="492"/>
      <point x="520" y="531"/>
      <point x="487" y="556" type="curve"/>
      <point x="635" y="556" type="line"/>
      <point x="650" y="635" type="line"/>
      <point x="212" y="635" type="line"/>
      <point x="187" y="509" type="line"/>
      <point x="260" y="509" type="line" smooth="yes"/>
      <point x="338" y="509"/>
      <point x="383" y="491"/>
      <point x="383" y="438" type="curve" smooth="yes"/>
      <point x="383" y="361"/>
      <point x="324" y="318"/>
      <point x="221" y="318" type="curve" smooth="yes"/>
      <point x="149" y="318" type="line"/>
    </contour>
    <contour>
      <point x="161" y="381" type="line"/>
      <point x="599" y="381" type="line"/>
      <point x="615" y="459" type="line"/>
      <point x="259" y="459" type="line"/>
      <point x="176" y="453" type="line"/>
    </contour>
    <contour>
      <point x="188" y="225" type="line"/>
      <point x="328" y="0" type="line"/>
      <point x="504" y="0" type="line"/>
      <point x="310" y="302" type="line"/>
    </contour>
  </outline>
</glyph>
<glyph name="six.dnom" format="1">
  <advance width="600"/>
  <outline>
    <contour>
      <point x="282" y="109" type="line"/>
      <point x="298" y="121"/>
      <point x="315" y="128"/>
      <point x="330" y="128" type="curve" smooth="yes"/>
      <point x="348" y="128"/>
      <point x="359" y="120"/>
      <point x="359" y="106" type="curve" smooth="yes"/>
      <point x="359" y="85"/>
      <point x="344" y="72"/>
      <point x="321" y="72" type="curve" smooth="yes"/>
      <point x="305" y="72"/>
      <point x="286" y="81"/>
      <point x="286" y="118" type="curve" smooth="yes"/>
      <point x="286" y="191"/>
      <point x="321" y="241"/>
      <point x="382" y="241" type="curve" smooth="yes"/>
      <point x="406" y="241"/>
      <point x="422" y="233"/>
      <point x="437" y="219" type="curve"/>
      <point x="493" y="282" type="line"/>
      <point x="468" y="308"/>
      <point x="434" y="325"/>
      <point x="390" y="325" type="curve" smooth="yes"/>
      <point x="263" y="325"/>
      <point x="186" y="223"/>
      <point x="186" y="120" type="curve" smooth="yes"/>
      <point x="186" y="42"/>
      <point x="228" y="-12"/>
      <point x="309" y="-12" type="curve" smooth="yes"/>
      <point x="391" y="-12"/>
      <point x="461" y="48"/>
      <point x="461" y="121" type="curve" smooth="yes"/>
      <point x="461" y="169"/>
      <point x="429" y="195"/>
      <point x="378" y="195" type="curve" smooth="yes"/>
      <point x="342" y="195"/>
      <point x="312" y="182"/>
      <point x="288" y="161" type="curve"/>
    </contour>
  </outline>
</glyph>
<glyph name="squareblack.001" format="1">
  <advance width="599"/>
  <outline>
    <contour>
      <point x="206" y="138" type="line"/>
      <point x="449" y="138" type="line"/>
      <point x="499" y="386" type="line"/>
      <point x="255" y="386" type="line"/>
    </contour>
  </outline>
</glyph>
<glyph name="squareshadow.001" format="1">
  <advance width="599"/>
  <outline>
    <contour>
      <point x="225" y="150" type="line"/>
      <point x="261" y="334" type="line"/>
      <point x="441" y="334" type="line"/>
      <point x="405" y="150" type="line"/>
    </contour>
    <contour>
      <point x="163" y="98" type="line"/>
      <point x="418" y="98" type="line"/>
      <point x="490" y="167" type="line"/>
      <point x="540" y="416" type="line"/>
      <point x="295" y="416" type="line"/>
      <point x="215" y="358" type="line"/>
    </contour>
  </outline>
</glyph>
<glyph name="squareshadow" format="1">
  <advance width="599"/>
  <outline>
    <contour>
      <point x="194" y="150" type="line"/>
      <point x="194" y="334" type="line"/>
      <point x="374" y="334" type="line"/>
      <point x="374" y="150" type="line"/>
    </contour>
    <contour>
      <point x="143" y="98" type="line"/>
      <point x="398" y="98" type="line"/>
      <point x="456" y="167" type="line"/>
      <point x="456" y="416" type="line"/>
      <point x="211" y="416" type="line"/>
      <point x="143" y="358" type="line"/>
    </contour>
  </outline>
</glyph>
<glyph name="three.onum" format="1">
  <advance width="599"/>
  <outline>
    <contour>
      <point x="39" y="-1" type="line"/>
      <point x="77" y="-56"/>
      <point x="151" y="-91"/>
      <point x="259" y="-91" type="curve" smooth="yes"/>
      <point x="409" y="-91"/>
      <point x="557" y="-9"/>
      <point x="557" y="130" type="curve" smooth="yes"/>
      <point x="557" y="199"/>
      <point x="510" y="241"/>
      <point x="445" y="261" type="curve"/>
      <point x="446" y="265" type="line"/>
      <point x="542" y="301"/>
      <point x="598" y="356"/>
      <point x="598" y="440" type="curve" smooth="yes"/>
      <point x="598" y="535"/>
      <point x="518" y="591"/>
      <point x="392" y="591" type="curve" smooth="yes"/>
      <point x="310" y="591"/>
      <point x="231" y="560"/>
      <point x="158" y="509" type="curve"/>
      <point x="218" y="414" type="line"/>
      <point x="269" y="448"/>
      <point x="312" y="468"/>
      <point x="360" y="468" type="curve" smooth="yes"/>
      <point x="408" y="468"/>
      <point x="436" y="445"/>
      <point x="436" y="411" type="curve" smooth="yes"/>
      <point x="436" y="354"/>
      <point x="389" y="313"/>
      <point x="253" y="313" type="curve"/>
      <point x="230" y="202" type="line"/>
      <point x="359" y="202"/>
      <point x="400" y="176"/>
      <point x="400" y="129" type="curve" smooth="yes"/>
      <point x="400" y="68"/>
      <point x="342" y="36"/>
      <point x="269" y="36" type="curve" smooth="yes"/>
      <point x="215" y="36"/>
      <point x="166" y="62"/>
      <point x="131" y="98" type="curve"/>
    </contour>
  </outline>
</glyph>
<glyph name="triangleblackdown.001" format="1">
  <advance width="600"/>
  <outline>
    <contour>
      <point x="302" y="17" type="line"/>
      <point x="306" y="17" type="line"/>
      <point x="688" y="544" type="line"/>
      <point x="688" y="546" type="line"/>
      <point x="130" y="546" type="line"/>
      <point x="130" y="544" type="line"/>
    </contour>
  </outline>
</glyph>
<glyph name="triangleblackleft" format="1">
  <advance width="599"/>
  <outline>
    <contour>
      <point x="15" y="280" type="line"/>
      <point x="543" y="3" type="line"/>
      <point x="545" y="3" type="line"/>
      <point x="545" y="561" type="line"/>
      <point x="543" y="561" type="line"/>
      <point x="15" y="284" type="line"/>
    </contour>
  </outline>
</glyph>
<glyph name="triangleblackright.001" format="1">
  <advance width="600"/>
  <outline>
    <contour>
      <point x="56" y="3" type="line"/>
      <point x="58" y="3" type="line"/>
      <point x="641" y="280" type="line"/>
      <point x="642" y="284" type="line"/>
      <point x="169" y="561" type="line"/>
      <point x="167" y="561" type="line"/>
    </contour>
  </outline>
</glyph>
<glyph name="triangleblackup.001" format="1">
  <advance width="600"/>
  <outline>
    <contour>
      <point x="25" y="18" type="line"/>
      <point x="583" y="18" type="line"/>
      <point x="583" y="20" type="line"/>
      <point x="412" y="547" type="line"/>
      <point x="408" y="547" type="line"/>
      <point x="25" y="20" type="line"/>
    </contour>
  </outline>
</glyph>
<glyph name="trianglewhitedown.001" format="1">
  <advance width="600"/>
  <outline>
    <contour>
      <point x="493" y="444" type="line"/>
      <point x="348" y="236" type="line"/>
      <point x="286" y="444" type="line"/>
    </contour>
    <contour>
      <point x="130" y="544" type="line"/>
      <point x="302" y="16" type="line"/>
      <point x="306" y="16" type="line"/>
      <point x="688" y="544" type="line"/>
      <point x="688" y="546" type="line"/>
      <point x="130" y="546" type="line"/>
    </contour>
  </outline>
</glyph>
<glyph name="trianglewhiteleft.001" format="1">
  <advance width="599"/>
  <outline>
    <contour>
      <point x="292" y="282" type="line"/>
      <point x="520" y="385" type="line"/>
      <point x="478" y="178" type="line"/>
    </contour>
    <contour>
      <point x="657" y="561" type="line"/>
      <point x="655" y="561" type="line"/>
      <point x="72" y="284" type="line"/>
      <point x="71" y="280" type="line"/>
      <point x="543" y="3" type="line"/>
      <point x="545" y="3" type="line"/>
    </contour>
  </outline>
</glyph>
<glyph name="trianglewhiteleft" format="1">
  <advance width="599"/>
  <outline>
    <contour>
      <point x="235" y="282" type="line"/>
      <point x="443" y="385" type="line"/>
      <point x="443" y="178" type="line"/>
    </contour>
    <contour>
      <point x="545" y="561" type="line"/>
      <point x="543" y="561" type="line"/>
      <point x="15" y="284" type="line"/>
      <point x="15" y="280" type="line"/>
      <point x="543" y="3" type="line"/>
      <point x="545" y="3" type="line"/>
    </contour>
  </outline>
</glyph>
<glyph name="trianglewhiteup" format="1">
  <advance width="599"/>
  <outline>
    <contour>
      <point x="196" y="120" type="line"/>
      <point x="300" y="327" type="line"/>
      <point x="404" y="120" type="line"/>
    </contour>
    <contour>
      <point x="21" y="18" type="line"/>
      <point x="579" y="18" type="line"/>
      <point x="579" y="20" type="line"/>
      <point x="302" y="547" type="line"/>
      <point x="298" y="547" type="line"/>
      <point x="21" y="20" type="line"/>
    </contour>
  </outline>
</glyph>
<glyph name="tturned" format="1">
  <advance width="600"/>
  <outline>
    <contour>
      <point x="489" y="289" type="line" smooth="yes"/>
      <point x="515" y="421"/>
      <point x="475" y="510"/>
      <point x="315" y="510" type="curve" smooth="yes"/>
      <point x="249" y="510"/>
      <point x="192" y="496"/>
      <point x="146" y="483" type="curve"/>
      <point x="151" y="369" type="line"/>
      <point x="181" y="379"/>
      <point x="214" y="386"/>
      <point x="250" y="386" type="curve" smooth="yes"/>
      <point x="318" y="386"/>
      <point x="345" y="361"/>
      <point x="331" y="287" type="curve" smooth="yes"/>
      <point x="298" y="123" type="line"/>
      <point x="94" y="123" type="line"/>
      <point x="69" y="0" type="line"/>
      <point x="273" y="0" type="line"/>
      <point x="247" y="-131" type="line"/>
      <point x="378" y="-131" type="line"/>
      <point x="424" y="0" type="line"/>
      <point x="554" y="0" type="line"/>
      <point x="579" y="123" type="line"/>
      <point x="456" y="123" type="line"/>
    </contour>
  </outline>
</glyph>
<glyph name="updblleftsngbxd.001" format="1">
  <advance width="600"/>
  <outline>
    <contour>
      <point x="-28" y="226" type="line"/>
      <point x="566" y="226" type="line"/>
      <point x="720" y="1000" type="line"/>
      <point x="573" y="1000" type="line"/>
      <point x="448" y="373" type="line"/>
      <point x="301" y="373" type="line"/>
      <point x="426" y="1000" type="line"/>
      <point x="279" y="1000" type="line"/>
      <point x="154" y="373" type="line"/>
      <point x="1" y="373" type="line"/>
    </contour>
  </outline>
</glyph>
<glyph name="updblrightsngbxd.001" format="1">
  <advance width="600"/>
  <outline>
    <contour>
      <point x="125" y="226" type="line"/>
      <point x="719" y="226" type="line"/>
      <point x="748" y="373" type="line"/>
      <point x="595" y="373" type="line"/>
      <point x="721" y="1000" type="line"/>
      <point x="574" y="1000" type="line"/>
      <point x="448" y="373" type="line"/>
      <point x="301" y="373" type="line"/>
      <point x="427" y="1000" type="line"/>
      <point x="280" y="1000" type="line"/>
    </contour>
  </outline>
</glyph>
<glyph name="upheavyhorzlightbxd.001" format="1">
  <advance width="600"/>
  <outline>
    <contour>
      <point x="-28" y="226" type="line"/>
      <point x="719" y="226" type="line"/>
      <point x="748" y="373" type="line"/>
      <point x="522" y="373" type="line"/>
      <point x="647" y="1000" type="line"/>
      <point x="353" y="1000" type="line"/>
      <point x="228" y="373" type="line"/>
      <point x="1" y="373" type="line"/>
    </contour>
  </outline>
</glyph>
<glyph name="upheavyleftdnlightbxd.001" format="1">
  <advance width="600"/>
  <outline>
    <contour>
      <point x="-28" y="226" type="line"/>
      <point x="272" y="226" type="line"/>
      <point x="147" y="-400" type="line"/>
      <point x="294" y="-400" type="line"/>
      <point x="419" y="226" type="line"/>
      <point x="492" y="226" type="line"/>
      <point x="647" y="1000" type="line"/>
      <point x="353" y="1000" type="line"/>
      <point x="228" y="373" type="line"/>
      <point x="1" y="373" type="line"/>
    </contour>
  </outline>
</glyph>
<glyph name="upleftquadrant.001" format="1">
  <advance width="599"/>
  <outline>
    <contour>
      <point x="60" y="300" type="line"/>
      <point x="360" y="300" type="line"/>
      <point x="460" y="800" type="line"/>
      <point x="160" y="800" type="line"/>
    </contour>
  </outline>
</glyph>
<glyph name="upleftuprightdnleftquadrant.001" format="1">
  <advance width="600"/>
  <outline>
    <contour>
      <point x="-40" y="-200" type="line"/>
      <point x="260" y="-200" type="line"/>
      <point x="360" y="300" type="line"/>
      <point x="660" y="300" type="line"/>
      <point x="760" y="800" type="line"/>
      <point x="160" y="800" type="line"/>
    </contour>
  </outline>
</glyph>
<glyph name="uplighthorzheavybxd.001" format="1">
  <advance width="600"/>
  <outline>
    <contour>
      <point x="-43" y="153" type="line"/>
      <point x="704" y="153" type="line"/>
      <point x="763" y="447" type="line"/>
      <point x="463" y="447" type="line"/>
      <point x="573" y="1000" type="line"/>
      <point x="426" y="1000" type="line"/>
      <point x="316" y="447" type="line"/>
      <point x="16" y="447" type="line"/>
    </contour>
  </outline>
</glyph>
<glyph name="uplightrightheavybxd.001" format="1">
  <advance width="599"/>
  <outline>
    <contour>
      <point x="257" y="153" type="line"/>
      <point x="704" y="153" type="line"/>
      <point x="763" y="447" type="line"/>
      <point x="463" y="447" type="line"/>
      <point x="573" y="1000" type="line"/>
      <point x="426" y="1000" type="line"/>
    </contour>
  </outline>
</glyph>
<glyph name="uprightquadrant.001" format="1">
  <advance width="600"/>
  <outline>
    <contour>
      <point x="360" y="300" type="line"/>
      <point x="660" y="300" type="line"/>
      <point x="760" y="800" type="line"/>
      <point x="460" y="800" type="line"/>
    </contour>
  </outline>
</glyph>
<glyph name="upsngleftdblbxd.001" format="1">
  <advance width="600"/>
  <outline>
    <contour>
      <point x="1" y="373" type="line"/>
      <point x="301" y="373" type="line"/>
      <point x="272" y="226" type="line"/>
      <point x="-28" y="226" type="line"/>
      <point x="-58" y="79" type="line"/>
      <point x="389" y="79" type="line"/>
      <point x="573" y="1000" type="line"/>
      <point x="426" y="1000" type="line"/>
      <point x="331" y="520" type="line"/>
      <point x="31" y="520" type="line"/>
    </contour>
  </outline>
</glyph>
<glyph name="upsngrightdblbxd.001" format="1">
  <advance width="599"/>
  <outline>
    <contour>
      <point x="242" y="79" type="line"/>
      <point x="689" y="79" type="line"/>
      <point x="718" y="226" type="line"/>
      <point x="418" y="226" type="line"/>
      <point x="448" y="373" type="line"/>
      <point x="748" y="373" type="line"/>
      <point x="777" y="520" type="line"/>
      <point x="477" y="520" type="line"/>
      <point x="573" y="1000" type="line"/>
      <point x="426" y="1000" type="line"/>
    </contour>
  </outline>
</glyph>
